<?xml version="1.0" encoding="UTF-8"?>
<svg id="b" data-name="Layer 2" xmlns="http://www.w3.org/2000/svg" viewBox="0 0 1972.39 2534.34">
  <defs>
    <style>
      .e {
        fill: #192841;
      }
    </style>
  </defs>
  <g id="c" data-name="Capa 1">
    <g>
      <g>
        <path class="e" d="M238.2,2175.2h17.35v114.35h-17.35v-114.35Z"/>
        <path class="e" d="M357.44,2245.08v44.48h-16.56v-44.01c0-14.04-8.52-20.98-18.77-20.98-9.15,0-21.77,5.52-21.77,21.92v43.06h-16.88v-79.65h16.88v14.19c3.63-11.2,15.77-15.77,26.5-15.77,18.61,0,30.6,13.72,30.6,36.75Z"/>
        <path class="e" d="M462.32,2171.26v118.3h-16.72v-16.09c-5.21,10.41-14.51,17.67-28.39,17.67-21.29,0-40.22-16.72-40.22-41.33s18.45-41.48,40.54-41.48c13.56,0,22.87,6.47,28.08,16.4v-53.47h16.72ZM445.6,2250.28v-.63c-.16-14.35-11.67-25.55-25.87-25.55s-26.03,11.36-26.03,25.71,11.67,25.71,26.03,25.71,25.71-10.41,25.87-25.24Z"/>
        <path class="e" d="M484.56,2184.03c0-5.99,3.47-9.62,9.94-9.62s9.94,3.63,9.94,9.62-3.63,9.62-9.94,9.62-9.94-3.47-9.94-9.62ZM486.14,2209.9h16.72v79.65h-16.72v-79.65Z"/>
        <path class="e" d="M600.33,2209.9l-33.75,79.65h-15.62l-33.6-79.65h17.82l23.5,59.62,23.66-59.62h17.98Z"/>
        <path class="e" d="M613.1,2184.03c0-5.99,3.47-9.62,9.94-9.62s9.94,3.63,9.94,9.62-3.63,9.62-9.94,9.62-9.94-3.47-9.94-9.62ZM614.68,2209.9h16.72v79.65h-16.72v-79.65Z"/>
        <path class="e" d="M735.97,2171.26v118.3h-16.72v-16.09c-5.21,10.41-14.51,17.67-28.39,17.67-21.29,0-40.22-16.72-40.22-41.33s18.45-41.48,40.54-41.48c13.56,0,22.87,6.47,28.08,16.4v-53.47h16.72ZM719.25,2250.28v-.63c-.16-14.35-11.67-25.55-25.87-25.55s-26.03,11.36-26.03,25.71,11.67,25.71,26.03,25.71,25.71-10.41,25.87-25.24Z"/>
        <path class="e" d="M833.6,2209.9v79.65h-16.72v-14.35c-3.31,11.51-15.14,15.93-25.87,15.93-18.77,0-30.76-13.72-30.76-36.75v-44.48h16.72v44.01c0,14.04,8.68,20.98,18.93,20.98,8.83,0,20.66-5.2,20.98-21.61v-43.38h16.72Z"/>
        <path class="e" d="M938.96,2209.9v79.65h-16.72v-15.3c-5.36,9.94-14.67,16.88-28.39,16.88-21.14,0-40.06-16.72-40.06-41.33s18.61-41.48,40.06-41.48c13.56,0,23.03,6.94,28.39,17.03v-15.46h16.72ZM922.24,2249.96v-.63c-.16-14.35-11.83-25.39-25.87-25.39s-25.71,11.2-25.71,25.87,11.67,25.87,25.87,25.87,25.71-11.04,25.71-25.71Z"/>
        <path class="e" d="M964.19,2171.26h16.88v118.3h-16.88v-118.3Z"/>
        <path class="e" d="M1005.99,2171.26h16.88v118.3h-16.88v-118.3Z"/>
        <path class="e" d="M1122.86,2209.9l-40.85,96.21c-6.62,16.25-11.67,24.45-28.55,24.45h-12.3v-15.93h11.83c5.68,0,8.99-2.52,11.67-8.52l6.78-15.93-31.39-80.28h17.98l22.4,58.83,24.76-58.83h17.67Z"/>
        <path class="e" d="M1173.01,2249.49c0-25.4,20.19-41.17,42.11-41.17,14.51,0,28.08,7.25,34.86,20.5l-14.2,6.78c-4.1-7.41-12.62-11.67-21.14-11.67-13.09,0-25.24,10.1-25.24,25.55s12.15,26.18,25.24,26.18c8.36,0,16.72-4.42,20.82-11.36l14.67,6.31c-6.94,13.41-20.5,20.51-35.17,20.51-22.71,0-41.96-16.72-41.96-41.64Z"/>
        <path class="e" d="M1318.12,2208.33v15.93h-9.15c-20.82,0-22.24,23.03-22.24,23.03v42.27h-16.88v-79.65h16.88v16.88s4.26-18.45,22.24-18.45h9.15Z"/>
        <path class="e" d="M1411.18,2209.9v79.65h-16.72v-15.3c-5.36,9.94-14.67,16.88-28.39,16.88-21.14,0-40.06-16.72-40.06-41.33s18.61-41.48,40.06-41.48c13.56,0,23.03,6.94,28.39,17.03v-15.46h16.72ZM1394.46,2249.96v-.63c-.16-14.35-11.83-25.39-25.87-25.39s-25.71,11.2-25.71,25.87,11.67,25.87,25.87,25.87,25.71-11.04,25.71-25.71Z"/>
        <path class="e" d="M1459.75,2192.55v17.35h19.24v12.78h-19.24v66.88h-15.93v-66.88h-14.83v-12.78h14.83v-17.35c0-15.3,7.73-22.87,22.87-22.87h17.03v15.93h-17.03c-4.73,0-6.94,2.21-6.94,6.94Z"/>
        <path class="e" d="M1519.84,2222.68v44.01c0,5.84,2.68,8.52,8.52,8.52h13.25v15.93h-13.25c-16.88,0-25.24-8.2-25.24-24.45v-44.01h-14.04v-12.78h14.04v-27.6h16.72v27.6h21.77v12.78h-21.77Z"/>
        <path class="e" d="M1633.88,2255.17h-64.51c1.89,14.35,11.99,21.92,25.24,21.92,8.99,0,17.03-3.63,22.4-11.36l12.46,7.57c-7.1,11.51-20.98,17.82-35.17,17.82-23.03,0-41.48-16.56-41.48-41.64s18.45-41.17,41.01-41.17,40.22,16.09,40.22,41.01l-.16,5.84ZM1617.95,2244.44c0-13.72-11.2-21.77-23.82-21.77-11.83,0-22.56,7.1-24.61,21.77h48.42Z"/>
        <path class="e" d="M1734.19,2171.26v118.3h-16.72v-16.09c-5.21,10.41-14.51,17.67-28.39,17.67-21.29,0-40.22-16.72-40.22-41.33s18.45-41.48,40.54-41.48c13.56,0,22.87,6.47,28.08,16.4v-53.47h16.72ZM1717.47,2250.28v-.63c-.16-14.35-11.67-25.55-25.87-25.55s-26.03,11.36-26.03,25.71,11.67,25.71,26.03,25.71,25.71-10.41,25.87-25.24Z"/>
      </g>
      <g>
        <path class="e" d="M0,2375.69h17.72v116.77H0v-116.77Z"/>
        <path class="e" d="M121.76,2447.04v45.42h-16.91v-44.94c0-14.34-8.7-21.42-19.17-21.42-9.34,0-22.23,5.64-22.23,22.39v43.97h-17.23v-81.34h17.23v14.5c3.7-11.44,16.11-16.11,27.06-16.11,19.01,0,31.25,14.01,31.25,37.53Z"/>
        <path class="e" d="M168.47,2424.17v44.94c0,5.96,2.74,8.7,8.7,8.7h13.53v16.27h-13.53c-17.23,0-25.77-8.38-25.77-24.96v-44.94h-14.33v-13.05h14.33v-28.19h17.07v28.19h22.23v13.05h-22.23Z"/>
        <path class="e" d="M284.92,2457.35h-65.88c1.93,14.66,12.24,22.39,25.77,22.39,9.18,0,17.4-3.7,22.87-11.6l12.72,7.73c-7.25,11.76-21.42,18.2-35.92,18.2-23.52,0-42.36-16.91-42.36-42.52s18.84-42.04,41.88-42.04,41.07,16.43,41.07,41.88l-.16,5.96ZM268.65,2446.4c0-14.01-11.44-22.23-24.32-22.23-12.08,0-23.03,7.25-25.13,22.23h49.45Z"/>
        <path class="e" d="M354.02,2409.51v16.27h-9.34c-21.26,0-22.71,23.52-22.71,23.52v43.17h-17.23v-81.34h17.23v17.23s4.35-18.84,22.71-18.84h9.34Z"/>
        <path class="e" d="M445.18,2447.04v45.42h-16.91v-44.94c0-14.34-8.7-21.42-19.17-21.42-9.34,0-22.23,5.64-22.23,22.39v43.97h-17.23v-81.34h17.23v14.5c3.7-11.44,16.11-16.11,27.06-16.11,19.01,0,31.25,14.01,31.25,37.53Z"/>
        <path class="e" d="M551.97,2411.12v81.34h-17.07v-15.62c-5.48,10.15-14.98,17.23-28.99,17.23-21.58,0-40.91-17.07-40.91-42.2s19.01-42.36,40.91-42.36c13.85,0,23.52,7.09,28.99,17.4v-15.78h17.07ZM534.89,2452.03v-.64c-.16-14.66-12.08-25.93-26.41-25.93s-26.25,11.43-26.25,26.41,11.92,26.41,26.41,26.41,26.25-11.27,26.25-26.25Z"/>
        <path class="e" d="M600.45,2424.17v44.94c0,5.96,2.74,8.7,8.7,8.7h13.53v16.27h-13.53c-17.23,0-25.77-8.38-25.77-24.96v-44.94h-14.33v-13.05h14.33v-28.19h17.07v28.19h22.23v13.05h-22.23Z"/>
        <path class="e" d="M637.33,2384.71c0-6.12,3.54-9.83,10.15-9.83s10.15,3.7,10.15,9.83-3.7,9.82-10.15,9.82-10.15-3.54-10.15-9.82ZM638.94,2411.12h17.07v81.34h-17.07v-81.34Z"/>
        <path class="e" d="M675.5,2451.71c0-25.61,19.81-42.2,43-42.2s42.84,16.75,42.84,42.2-19.81,42.36-42.84,42.36-43-16.75-43-42.36ZM744.92,2451.71c0-15.46-12.08-26.25-26.58-26.25s-26.58,10.79-26.58,26.25,12.08,26.58,26.58,26.58,26.58-11.11,26.58-26.58Z"/>
        <path class="e" d="M857.66,2447.04v45.42h-16.91v-44.94c0-14.34-8.7-21.42-19.17-21.42-9.34,0-22.23,5.64-22.23,22.39v43.97h-17.23v-81.34h17.23v14.5c3.7-11.44,16.11-16.11,27.06-16.11,19.01,0,31.25,14.01,31.25,37.53Z"/>
        <path class="e" d="M964.45,2411.12v81.34h-17.07v-15.62c-5.48,10.15-14.98,17.23-28.99,17.23-21.58,0-40.91-17.07-40.91-42.2s19.01-42.36,40.91-42.36c13.85,0,23.52,7.09,28.99,17.4v-15.78h17.07ZM947.38,2452.03v-.64c-.16-14.66-12.08-25.93-26.41-25.93s-26.25,11.43-26.25,26.41,11.92,26.41,26.41,26.41,26.25-11.27,26.25-26.25Z"/>
        <path class="e" d="M990.06,2371.66h17.23v120.8h-17.23v-120.8Z"/>
        <path class="e" d="M1032.9,2371.66h17.23v120.8h-17.23v-120.8Z"/>
        <path class="e" d="M1152.25,2411.12l-41.72,98.25c-6.76,16.59-11.92,24.96-29.15,24.96h-12.56v-16.27h12.08c5.8,0,9.18-2.58,11.92-8.7l6.93-16.27-32.05-81.98h18.36l22.87,60.08,25.29-60.08h18.04Z"/>
        <path class="e" d="M1205.24,2384.71c0-6.12,3.54-9.83,10.15-9.83s10.15,3.7,10.15,9.83-3.7,9.82-10.15,9.82-10.15-3.54-10.15-9.82ZM1206.85,2411.12h17.07v81.34h-17.07v-81.34Z"/>
        <path class="e" d="M1323.78,2447.04v45.42h-16.91v-44.94c0-14.34-8.7-21.42-19.17-21.42-9.34,0-22.23,5.64-22.23,22.39v43.97h-17.23v-81.34h17.23v14.5c3.7-11.44,16.11-16.11,27.06-16.11,19.01,0,31.25,14.01,31.25,37.53Z"/>
        <path class="e" d="M1343.27,2472.33l14.98-4.19c2.09,5.15,7.57,12.4,19.33,12.4,9.5,0,14.98-4.51,14.98-10.31,0-5.32-4.35-9.02-12.72-11.11-10.47-2.9-34.15-6.44-34.15-25.77,0-14.98,14.33-23.84,30.44-23.84,13.21,0,27.38,6.28,31.25,18.36l-14.66,5.48c-2.74-6.6-8.86-10.15-15.95-10.15s-13.85,3.22-13.85,9.5c0,8.86,13.53,10.79,22.87,13.37,21.9,6.28,24.16,16.59,24.16,23.03,0,16.59-15.14,24.96-31.89,24.96s-30.76-8.86-34.79-21.74Z"/>
        <path class="e" d="M1517.7,2451.71c0,24.64-18.84,42.36-41.39,42.36-14.01,0-23.03-6.76-28.35-16.43v55.09h-17.23v-121.6h17.23v15.95c5.32-10.31,14.82-17.56,28.83-17.56,21.74,0,40.91,17.23,40.91,42.2ZM1500.47,2451.71c0-15.95-13.05-26.09-26.41-26.25-14.5,0-25.93,11.92-26.09,26.09v.64c.16,14.01,11.6,25.93,26.41,25.93s26.09-11.43,26.09-26.41Z"/>
        <path class="e" d="M1616.76,2457.35h-65.88c1.93,14.66,12.24,22.39,25.77,22.39,9.18,0,17.4-3.7,22.87-11.6l12.72,7.73c-7.25,11.76-21.42,18.2-35.92,18.2-23.52,0-42.36-16.91-42.36-42.52s18.84-42.04,41.88-42.04,41.07,16.43,41.07,41.88l-.16,5.96ZM1600.49,2446.4c0-14.01-11.44-22.23-24.32-22.23-12.08,0-23.03,7.25-25.13,22.23h49.45Z"/>
        <path class="e" d="M1631.74,2451.55c0-25.93,20.62-42.04,43-42.04,14.82,0,28.67,7.41,35.6,20.94l-14.5,6.93c-4.19-7.57-12.89-11.92-21.58-11.92-13.37,0-25.77,10.31-25.77,26.09s12.4,26.74,25.77,26.74c8.54,0,17.07-4.51,21.26-11.6l14.98,6.44c-7.09,13.69-20.94,20.94-35.92,20.94-23.19,0-42.84-17.07-42.84-42.52Z"/>
        <path class="e" d="M1753.5,2424.17v44.94c0,5.96,2.74,8.7,8.7,8.7h13.53v16.27h-13.53c-17.23,0-25.77-8.38-25.77-24.96v-44.94h-14.33v-13.05h14.33v-28.19h17.07v28.19h22.23v13.05h-22.23Z"/>
        <path class="e" d="M1869.95,2457.35h-65.88c1.93,14.66,12.24,22.39,25.77,22.39,9.18,0,17.4-3.7,22.87-11.6l12.72,7.73c-7.25,11.76-21.42,18.2-35.92,18.2-23.52,0-42.36-16.91-42.36-42.52s18.84-42.04,41.88-42.04,41.07,16.43,41.07,41.88l-.16,5.96ZM1853.68,2446.4c0-14.01-11.44-22.23-24.32-22.23-12.08,0-23.03,7.25-25.13,22.23h49.45Z"/>
        <path class="e" d="M1972.39,2371.66v120.8h-17.07v-16.43c-5.32,10.63-14.82,18.04-28.99,18.04-21.74,0-41.07-17.07-41.07-42.2s18.84-42.36,41.39-42.36c13.85,0,23.35,6.6,28.67,16.75v-54.6h17.07ZM1955.31,2452.36v-.64c-.16-14.66-11.92-26.09-26.41-26.09s-26.58,11.6-26.58,26.25,11.92,26.25,26.58,26.25,26.25-10.63,26.41-25.77Z"/>
      </g>
    </g>
    <g>
      <polygon class="e" points="1017.13 894.97 935.11 894.97 932.43 1582.21 1017.13 1581.53 1017.13 894.97"/>
      <polygon class="e" points="1036.1 1483.53 1158.99 1483.53 1158.99 1421.03 1099.32 1421.03 1099.32 1327.48 1158.85 1327.48 1158.85 1278.7 1036.1 1278.7 1036.1 1483.53"/>
      <path class="e" d="M977.15,793.69c-25.66,23.66-59.93,38.12-97.59,38.12-3.55,0-7.08-.13-10.56-.39v46.56l216.66-.14v-46.44c-3.6.27-7.25.41-10.92.41-37.66,0-71.93-14.46-97.59-38.12Z"/>
      <g>
        <path class="e" d="M942.44,704.67c4.84,25.02,17.08,48.51,34.72,66.9,17.75-18.5,30.03-42.17,34.81-67.37-21.51,9.69-47.86,9.86-69.52.47Z"/>
        <path class="e" d="M1063.81,617.64c21.48-17.96,37.2-42.69,44.13-69.83-26.71-6.84-55.51-5.15-81.25,4.7,21.4,14.88,35.16,38.65,37.13,65.13Z"/>
        <path class="e" d="M1124.17,557.69c-10.03,34.04-32.33,64.21-61.84,83.89-3.97,19.77-14.54,37.33-30.2,50.17-2.82,34.28-17.71,67.32-41.48,92.17,165.49,119.76,319.93-145.6,134.72-230.44-.39,1.4-.78,2.81-1.19,4.21Z"/>
        <path class="e" d="M960.98,781.02c-22.04-24.25-35.82-55.76-38.72-88.4-16.34-13.02-27.58-31.63-31.47-52.08-30-20.54-52.26-52.02-61.52-87.19-185.75,84.61-31.15,350.42,134.4,230.58-.9-.97-1.81-1.93-2.69-2.91Z"/>
        <path class="e" d="M926.96,552.27c-25.46-9.59-53.87-11.22-80.25-4.54,6.79,26.62,22.04,50.96,42.88,68.84,2.26-26.23,16.05-49.64,37.37-64.3Z"/>
        <path class="e" d="M849.32,528.39c33.2-6.75,68.55-2.01,98.83,13.18,18.39-6.41,39.25-6.34,57.59.2,32.3-16.35,70.4-20.67,105.54-12,16.07-197.37-283.9-197.36-267.92-.09,1.98-.45,3.96-.9,5.95-1.3Z"/>
      </g>
    </g>
    <g id="d" data-name="Texto">
      <g>
        <path class="e" d="M42.27,686.55l20.75,4.78c-3.53,2.47-6.51,5.29-8.94,8.47-2.43,3.18-4.49,6.58-6.18,10.2-1.69,3.62-3.09,7.38-4.21,11.28-1.12,3.91-2.12,7.8-3.02,11.69-.34,1.49-.68,2.97-1,4.45-.33,1.48-.66,2.95-.99,4.41l-8.27,35.74-2.43,10.54,44.85,10.32,11.56-50.22c1.21-5.26,2.05-9.9,2.53-13.91.47-4.01.55-7.51.24-10.5-.31-2.99-1.04-5.52-2.19-7.6-1.15-2.08-2.72-3.82-4.71-5.24l32.82,7.56c-2.18.4-4.23,1.28-6.14,2.66-1.91,1.37-3.69,3.34-5.34,5.89-1.65,2.55-3.18,5.73-4.59,9.54-1.41,3.81-2.73,8.35-3.94,13.61l-11.56,50.22,54.72,12.6,10.27-44.81c1.74-7.67,3.12-14.76,4.16-21.28,1.04-6.52,1.67-12.45,1.9-17.8.23-5.34.02-10.09-.62-14.24-.64-4.15-1.77-7.69-3.39-10.62l19.61,9.74c-1.45,6.28-2.81,12.22-4.1,17.81-1.29,5.59-2.53,10.99-3.72,16.18-1.2,5.19-2.37,10.25-3.51,15.16-1.15,4.92-2.29,9.84-3.42,14.77l-12.27,53.32c-5.93-1.71-12.3-3.47-19.11-5.27-6.81-1.8-13.85-3.6-21.13-5.39s-14.67-3.55-22.18-5.28c-7.51-1.73-14.93-3.38-22.25-4.95-7.33-1.57-14.45-3.04-21.36-4.39-6.91-1.36-13.41-2.56-19.49-3.62l26.66-115.81Z"/>
        <path class="e" d="M86.86,600.91c3.36,1.77,6.89,3.61,10.62,5.5,3.72,1.89,7.58,3.81,11.57,5.77,3.99,1.95,8.07,3.92,12.25,5.89,4.18,1.98,8.41,3.95,12.7,5.93l50.41,22.85,17.92-39.56c3.25-7.16,6.05-13.82,8.4-19.99,2.35-6.17,4.22-11.83,5.59-16.98,1.38-5.15,2.24-9.79,2.57-13.92.34-4.13.11-7.74-.69-10.84l15.31,12.55c-2.67,5.87-5.19,11.42-7.56,16.64-2.37,5.23-4.66,10.27-6.87,15.12-2.2,4.85-4.36,9.57-6.46,14.16-2.1,4.59-4.2,9.19-6.29,13.8l-21.58,47.5c-4-2.13-8.26-4.33-12.77-6.59-4.51-2.27-9.2-4.57-14.05-6.92-4.85-2.34-9.81-4.7-14.89-7.07-5.07-2.37-10.17-4.7-15.27-6.99-4.31-1.93-8.59-3.82-12.84-5.67-4.25-1.85-8.42-3.64-12.52-5.36-4.09-1.72-8.08-3.36-11.95-4.92-3.87-1.56-7.58-3.02-11.12-4.38l7.51-16.53Z"/>
        <path class="e" d="M234.79,350.06l15.48,11.23c-3.96,1.08-7.61,2.65-10.95,4.73-3.34,2.08-6.46,4.47-9.35,7.18-2.89,2.71-5.61,5.64-8.15,8.81-2.54,3.17-4.99,6.37-7.33,9.59-.91,1.26-1.81,2.5-2.69,3.74-.88,1.23-1.76,2.46-2.64,3.67l-21.58,29.67-6.35,8.75,33.51,24.31,30.26-41.71c3.17-4.37,5.78-8.3,7.81-11.78,2.04-3.48,3.54-6.63,4.49-9.45.96-2.81,1.39-5.35,1.28-7.61-.11-2.26-.71-4.37-1.81-6.32l24.48,17.76c-2-.37-4.08-.25-6.24.37-2.16.62-4.46,1.81-6.89,3.57-2.43,1.76-5.02,4.14-7.76,7.13-2.74,2.99-5.7,6.67-8.87,11.04l-30.26,41.71,40.82,29.61,26.96-37.24c4.62-6.36,8.69-12.33,12.23-17.9,3.54-5.57,6.5-10.75,8.87-15.52,2.38-4.77,4.15-9.15,5.31-13.13s1.66-7.57,1.49-10.76l12.49,15.35c-3.79,5.22-7.36,10.15-10.74,14.8-3.37,4.65-6.62,9.13-9.75,13.44-3.13,4.31-6.18,8.51-9.16,12.59-2.98,4.08-5.95,8.16-8.92,12.26l-32.13,44.29c-4.29-3.53-8.93-7.24-13.92-11.15-4.99-3.9-10.18-7.88-15.56-11.92-5.38-4.04-10.87-8.1-16.48-12.17-5.61-4.07-11.17-8.03-16.68-11.89-5.51-3.86-10.9-7.56-16.16-11.1-5.26-3.54-10.23-6.79-14.92-9.77l69.79-96.19Z"/>
        <path class="e" d="M320.34,337.97c-3.63-4.07-6.52-8.3-8.65-12.69-2.13-4.39-3.63-8.86-4.48-13.43-.85-4.56-1.1-9.18-.76-13.85.35-4.67,1.19-9.31,2.52-13.93,1.33-4.62,3.1-9.18,5.3-13.68,2.2-4.5,4.74-8.87,7.61-13.1,2.87-4.23,6.03-8.29,9.48-12.18,3.45-3.89,7.08-7.54,10.9-10.94,4.54-4.05,9.24-7.69,14.12-10.93,4.88-3.24,9.78-5.95,14.69-8.13,4.91-2.18,9.73-3.79,14.47-4.81,4.73-1.02,9.23-1.33,13.5-.93l12.88,14.43c-3.8-1.12-7.69-1.79-11.67-2.03-3.98-.24-7.98-.1-11.99.41-4.01.51-8.01,1.38-12,2.61-3.99,1.23-7.88,2.75-11.67,4.56-3.8,1.82-7.47,3.91-11.02,6.28-3.55,2.37-6.9,4.96-10.04,7.76-4.01,3.58-7.62,7.46-10.85,11.64-3.22,4.18-5.92,8.57-8.08,13.18-2.16,4.6-3.72,9.35-4.67,14.23-.95,4.88-1.13,9.8-.56,14.76.58,4.96,1.98,9.91,4.22,14.85,2.23,4.94,5.44,9.76,9.62,14.44,4.18,4.68,8.59,8.4,13.23,11.16,4.64,2.76,9.39,4.7,14.24,5.83,4.85,1.13,9.75,1.5,14.69,1.11,4.94-.39,9.81-1.4,14.61-3.03,4.8-1.63,9.46-3.81,14-6.55,4.53-2.74,8.79-5.88,12.78-9.44,3.35-2.99,6.49-6.23,9.4-9.72,2.91-3.49,5.52-7.15,7.83-10.97,2.31-3.82,4.29-7.79,5.93-11.89,1.65-4.1,2.89-8.25,3.73-12.45-5.45-5.86-10.78-11.48-15.97-16.88-5.19-5.39-10.09-10.37-14.69-14.94l14.27-12.73c4.16,5.64,8.81,11.61,13.93,17.9,5.12,6.29,10.52,12.7,16.19,19.23l-.68.83.25.28c-.06,4.26-.88,8.69-2.44,13.29-1.56,4.6-3.71,9.21-6.44,13.84-2.73,4.63-5.99,9.2-9.78,13.7-3.79,4.5-7.95,8.77-12.49,12.82-3.82,3.41-7.85,6.6-12.09,9.57-4.25,2.97-8.63,5.65-13.15,8.04-4.52,2.39-9.14,4.42-13.86,6.09-4.72,1.67-9.45,2.91-14.18,3.7-4.73.79-9.43,1.1-14.1.92-4.67-.17-9.21-.94-13.64-2.29-4.43-1.35-8.7-3.34-12.82-5.96-4.12-2.62-7.98-5.95-11.6-10Z"/>
        <path class="e" d="M509,198.11l6.69-86.09,62.59,36.99c5.52,3.11,11.08,6.2,16.69,9.25,5.6,3.05,11.16,6.02,16.66,8.9,5.51,2.88,10.89,5.64,16.16,8.28,5.27,2.64,10.31,5.11,15.13,7.42l-17.74,9.64c-4.6-3.01-9.8-6.27-15.62-9.78-5.82-3.51-12.14-7.23-18.97-11.15l-73.3,39.84c-.54,7.47-1.01,14.65-1.4,21.54-.39,6.89-.69,13.37-.9,19.44l-12.41,6.74c.57-4.46,1.13-9.14,1.69-14.03.56-4.89,1.11-9.91,1.66-15.07.54-5.15,1.07-10.41,1.59-15.78.51-5.36,1.01-10.75,1.48-16.15ZM582.69,167.08l-58.87-34.86-5.86,70.04,64.73-35.18Z"/>
        <path class="e" d="M686.51,167.03c-1.17-5.43-2.5-11.22-3.99-17.38-1.49-6.16-3.09-12.5-4.79-19.01-1.71-6.51-3.49-13.1-5.36-19.77-1.87-6.67-3.76-13.23-5.69-19.68-1.92-6.45-3.85-12.69-5.77-18.73-1.93-6.04-3.8-11.68-5.62-16.93l-1.11-3.17c12.43,5.8,24.74,11.35,36.95,16.65,12.2,5.3,24.1,10.3,35.69,14.98,11.59,4.68,22.78,9.05,33.57,13.09,10.79,4.04,21,7.72,30.62,11.05l-7.05-25.33c-1.46-5.23-2.95-10.43-4.46-15.6-1.51-5.17-3.02-10.23-4.54-15.18s-3.03-9.74-4.53-14.37c-1.5-4.63-2.96-9.01-4.38-13.13l13.6-3.81c1.17,5.43,2.5,11.22,3.99,17.38,1.49,6.16,3.09,12.5,4.79,19.01,1.71,6.51,3.49,13.1,5.36,19.77,1.87,6.67,3.76,13.23,5.69,19.68,1.92,6.45,3.85,12.69,5.77,18.73,1.93,6.04,3.8,11.68,5.62,16.93l1.18,3.28c-12.43-5.91-24.45-11.41-36.04-16.49-11.6-5.08-22.99-9.87-34.18-14.39-11.19-4.52-22.29-8.82-33.3-12.92-11.01-4.1-22.14-8.12-33.38-12.08l7.05,25.33c1.46,5.23,2.95,10.43,4.46,15.6,1.51,5.17,3.02,10.23,4.54,15.18,1.52,4.95,3.03,9.74,4.53,14.37,1.5,4.63,2.96,9.01,4.38,13.13l-13.6,3.81Z"/>
        <path class="e" d="M849.33,8.13L996.61,0l1.05,19.1c-3.08-1.93-6.22-3.51-9.42-4.75-3.2-1.24-6.71-2.18-10.54-2.84-3.83-.65-8.12-1.04-12.87-1.16-4.75-.12-10.2-.01-16.36.33l-17.49.97,2.59,46.2c.27,5.45.6,10.89.99,16.32.38,5.43.82,10.75,1.31,15.96.49,5.21,1.01,10.26,1.58,15.14s1.17,9.5,1.81,13.85l-19.1,1.05c.15-3.94.22-8.26.22-12.95,0-4.69-.08-9.64-.23-14.86-.15-5.22-.35-10.67-.61-16.36-.26-5.69-.58-11.52-.96-17.47l-2.5-46.08-17.74.98c-4.09.23-7.87.52-11.31.88-3.45.36-6.63.8-9.55,1.31-2.92.52-5.62,1.13-8.1,1.85-2.48.72-4.81,1.55-6.98,2.49-2.17.94-4.24,2.01-6.22,3.21-1.97,1.2-3.91,2.55-5.81,4.04l-1.05-19.1Z"/>
        <path class="e" d="M1160.28,4.96l18.47,4.99c-1.32,3.69-2.66,7.56-4.02,11.63-1.36,4.07-2.73,8.27-4.1,12.6-1.37,4.33-2.73,8.77-4.08,13.33-1.35,4.56-2.68,9.16-3.99,13.81l100.28,27.07c1.2-4.68,2.37-9.33,3.5-13.95,1.13-4.62,2.21-9.13,3.24-13.56s2.02-8.72,2.96-12.91c.94-4.18,1.82-8.18,2.65-12l18.47,4.99c-2.1,5.82-4.23,12.08-6.39,18.79-2.16,6.71-4.3,13.66-6.42,20.85-2.12,7.19-4.18,14.5-6.19,21.94-2.01,7.44-3.91,14.8-5.7,22.08-1.79,7.28-3.44,14.36-4.94,21.25-1.51,6.89-2.82,13.37-3.93,19.45l-18.47-4.99c1.61-4.46,3.23-9.2,4.85-14.22s3.23-10.22,4.82-15.59c1.59-5.37,3.18-10.86,4.76-16.49,1.58-5.62,3.1-11.28,4.58-16.97l-100.44-27.11c-1.53,5.68-3.02,11.35-4.46,17.01-1.44,5.66-2.79,11.22-4.06,16.67-1.27,5.46-2.45,10.77-3.55,15.93-1.1,5.17-2.08,10.08-2.92,14.74l-18.47-4.99c2.1-5.82,4.2-12.09,6.31-18.81,2.11-6.72,4.19-13.69,6.25-20.89,2.06-7.2,4.07-14.53,6.02-21.99,1.95-7.45,3.82-14.82,5.61-22.1,1.79-7.28,3.47-14.35,5.05-21.22,1.58-6.87,3.02-13.32,4.32-19.35Z"/>
        <path class="e" d="M1473.39,206.02c-3.43,6.15-7.34,11.35-11.72,15.61-4.38,4.26-9.13,7.64-14.27,10.15-5.13,2.5-10.61,4.15-16.43,4.94-5.82.79-11.89.78-18.22-.02-6.33-.8-12.85-2.37-19.58-4.7-6.72-2.33-13.57-5.37-20.55-9.12-6.97-3.75-13.29-7.79-18.94-12.11-5.65-4.32-10.56-8.9-14.72-13.74-4.16-4.84-7.51-9.9-10.06-15.19-2.55-5.29-4.2-10.76-4.94-16.43-.74-5.66-.54-11.5.6-17.5,1.14-6,3.33-12.13,6.56-18.38,3.43-6.15,7.34-11.35,11.72-15.61,4.38-4.26,9.13-7.64,14.27-10.14,5.13-2.5,10.61-4.15,16.43-4.94,5.82-.79,11.89-.78,18.22.02,6.33.8,12.85,2.37,19.58,4.7,6.72,2.33,13.57,5.37,20.55,9.12,6.97,3.75,13.29,7.79,18.94,12.11,5.65,4.32,10.56,8.9,14.71,13.74,4.16,4.84,7.51,9.9,10.06,15.19,2.55,5.29,4.2,10.76,4.94,16.43.74,5.66.54,11.5-.6,17.5-1.14,6-3.33,12.13-6.56,18.38ZM1457.88,197.87c4.31-8.08,7-15.72,8.06-22.92s.41-14.03-1.96-20.49c-2.37-6.46-6.52-12.57-12.46-18.33-5.94-5.76-13.78-11.26-23.51-16.5s-18.65-8.74-26.73-10.52c-8.08-1.78-15.47-1.87-22.17-.29-6.7,1.58-12.75,4.81-18.15,9.67-5.41,4.86-10.31,11.31-14.69,19.35-4.29,8.1-6.97,15.74-8.05,22.93-1.07,7.19-.43,14.02,1.94,20.48,2.37,6.46,6.52,12.57,12.46,18.33,5.94,5.76,13.78,11.26,23.51,16.5,9.74,5.24,18.65,8.74,26.73,10.52,8.08,1.78,15.47,1.87,22.16.29s12.75-4.8,18.17-9.66c5.42-4.85,10.31-11.31,14.68-19.36Z"/>
        <path class="e" d="M1555.67,195.15l110.31,97.93-12.7,14.3c-.83-3.54-1.95-6.87-3.34-10-1.4-3.13-3.23-6.28-5.49-9.44-2.26-3.16-5.04-6.46-8.32-9.89-3.29-3.43-7.24-7.19-11.85-11.28l-13.1-11.63-30.69,34.63c-3.64,4.06-7.24,8.16-10.79,12.28-3.55,4.13-6.99,8.21-10.31,12.26-3.33,4.04-6.5,8-9.54,11.86-3.03,3.87-5.86,7.57-8.47,11.11l-14.3-12.7c2.88-2.7,5.97-5.71,9.27-9.04,3.3-3.33,6.73-6.9,10.3-10.71,3.57-3.81,7.27-7.82,11.09-12.05,3.82-4.22,7.7-8.59,11.62-13.08l30.67-34.48-13.29-11.8c-3.07-2.72-5.95-5.17-8.65-7.34-2.7-2.17-5.27-4.1-7.71-5.79-2.43-1.69-4.78-3.15-7.05-4.39-2.27-1.24-4.5-2.29-6.71-3.15-2.2-.86-4.43-1.56-6.67-2.1-2.25-.54-4.57-.95-6.97-1.22l12.7-14.3Z"/>
        <path class="e" d="M1782.17,441.92l-15.45,11.28c.19-4.1-.19-8.06-1.14-11.88-.95-3.82-2.27-7.52-3.96-11.1-1.69-3.58-3.65-7.07-5.88-10.46-2.23-3.39-4.52-6.7-6.88-9.92-.92-1.26-1.83-2.49-2.73-3.7-.9-1.21-1.8-2.43-2.68-3.64l-21.6-29.65-6.38-8.74-33.43,24.41,30.39,41.62c3.18,4.36,6.12,8.05,8.81,11.06,2.69,3.01,5.22,5.4,7.61,7.18,2.38,1.78,4.67,2.96,6.85,3.56,2.18.59,4.37.67,6.57.22l-24.42,17.83c.97-1.79,1.49-3.81,1.57-6.05.08-2.24-.35-4.79-1.28-7.65s-2.4-6.05-4.39-9.58c-2-3.53-4.59-7.47-7.78-11.84l-30.39-41.62-40.73,29.74,27.15,37.11c4.63,6.35,9.06,12.06,13.28,17.14,4.22,5.08,8.23,9.48,12.04,13.21,3.81,3.73,7.43,6.76,10.86,9.09,3.43,2.33,6.69,3.9,9.78,4.73l-18.45,7.17c-3.8-5.21-7.4-10.13-10.78-14.76-3.38-4.64-6.65-9.11-9.79-13.41-3.14-4.31-6.2-8.5-9.16-12.58-2.97-4.08-5.94-8.17-8.92-12.26l-32.26-44.19c4.68-2.99,9.64-6.27,14.89-9.82,5.25-3.55,10.62-7.27,16.13-11.14,5.5-3.88,11.05-7.86,16.64-11.94,5.59-4.08,11.08-8.16,16.44-12.22,5.37-4.06,10.54-8.05,15.53-11.97,4.98-3.92,9.61-7.65,13.89-11.19l70.08,95.98Z"/>
        <path class="e" d="M1828.27,524.08c-3.54,1.37-7.24,2.84-11.11,4.41-3.87,1.57-7.85,3.22-11.94,4.96-4.09,1.73-8.25,3.53-12.48,5.39-4.23,1.86-8.5,3.76-12.8,5.7l-50.3,23.09,18.13,39.47c3.27,7.15,6.47,13.63,9.59,19.45,3.12,5.82,6.17,10.94,9.16,15.35,2.99,4.42,5.93,8.11,8.83,11.07,2.9,2.96,5.78,5.16,8.64,6.58l-19.51,3.34c-2.69-5.86-5.22-11.4-7.61-16.62-2.39-5.22-4.7-10.25-6.92-15.1-2.22-4.85-4.38-9.57-6.46-14.16-2.09-4.59-4.19-9.19-6.3-13.79l-21.73-47.43c4.23-1.63,8.68-3.4,13.35-5.33,4.67-1.92,9.48-3.95,14.43-6.08,4.95-2.13,9.98-4.33,15.1-6.61,5.11-2.28,10.21-4.6,15.29-6.96,4.28-1.99,8.51-3.99,12.7-5.98,4.19-2,8.27-3.98,12.25-5.94,3.98-1.96,7.83-3.9,11.55-5.8,3.71-1.9,7.25-3.75,10.6-5.53l7.56,16.5Z"/>
        <path class="e" d="M1861.66,688.54c2.64-.74,5.4-.94,8.27-.61s5.75,1.21,8.66,2.63c2.9,1.42,5.77,3.39,8.61,5.89,2.84,2.5,5.53,5.55,8.09,9.15,2.56,3.6,4.93,7.72,7.11,12.38,2.18,4.66,4.06,9.86,5.65,15.62.26.87.49,1.73.69,2.58s.4,1.72.61,2.6c1.42,6.03,2.37,11.88,2.86,17.56.49,5.68.58,11.14.27,16.38-.31,5.24-.99,10.24-2.03,15.01-1.05,4.76-2.42,9.22-4.12,13.36l-19.18,4.41c3.93-5.4,7.17-10.77,9.72-16.11,2.55-5.35,4.43-10.73,5.65-16.14,1.21-5.41,1.77-10.88,1.66-16.42-.11-5.54-.84-11.18-2.19-16.93-.16-.69-.32-1.37-.48-2.04-.16-.67-.35-1.36-.57-2.07-1.69-5.96-3.76-11.22-6.2-15.75-2.44-4.54-5.05-8.26-7.83-11.17-2.77-2.91-5.6-4.95-8.5-6.13-2.89-1.18-5.61-1.43-8.15-.75-2.49.67-4.62,1.84-6.41,3.51-1.79,1.67-3.26,3.7-4.41,6.09-1.15,2.39-2.01,5.1-2.56,8.12-.55,3.02-.85,6.23-.88,9.64-.03,3.4.18,6.94.64,10.61.45,3.67,1.11,7.35,1.98,11.04.11.47.22.92.32,1.36.1.44.22.89.36,1.35.16.57.31,1.14.44,1.7.13.56.27,1.14.4,1.71,1.09,4.63,1.93,9.29,2.52,14,.6,4.71.86,9.3.79,13.78-.07,4.47-.51,8.74-1.31,12.79-.81,4.05-2.07,7.74-3.79,11.06-1.72,3.32-3.94,6.19-6.67,8.6-2.73,2.41-6.05,4.21-9.95,5.38-2.74.82-5.6,1.09-8.57.81-2.97-.28-5.96-1.11-8.97-2.49-3.01-1.38-5.98-3.32-8.92-5.79-2.93-2.48-5.71-5.51-8.34-9.09-2.63-3.58-5.06-7.72-7.29-12.41s-4.14-9.93-5.73-15.71c-.5-1.74-.96-3.52-1.38-5.34-.97-4.16-1.77-8.37-2.4-12.64-.62-4.27-1.07-8.5-1.35-12.71-.27-4.21-.38-8.34-.32-12.41s.31-7.98.73-11.74c.42-3.76,1.02-7.32,1.79-10.68.76-3.36,1.71-6.42,2.83-9.18l19.18-4.41c-3.91,5.39-7.05,11.09-9.43,17.11-2.38,6.02-4.06,12.16-5.05,18.41-.99,6.26-1.34,12.53-1.05,18.83.29,6.29,1.13,12.41,2.52,18.36.17.72.33,1.42.5,2.13.16.7.36,1.4.58,2.11,1.69,5.96,3.79,11.2,6.3,15.71,2.51,4.51,5.2,8.2,8.08,11.06,2.88,2.87,5.83,4.88,8.84,6.03,3.01,1.15,5.87,1.35,8.57.6,2.75-.76,5.1-2.02,7.02-3.76,1.93-1.74,3.5-3.87,4.71-6.38,1.21-2.51,2.09-5.34,2.64-8.51.55-3.16.81-6.55.78-10.16-.03-3.61-.32-7.4-.86-11.39-.54-3.98-1.29-8.02-2.26-12.13-1.07-4.57-1.95-9.28-2.64-14.13-.69-4.85-1.07-9.62-1.16-14.3-.08-4.69.2-9.2.86-13.53.65-4.34,1.77-8.28,3.37-11.83,1.59-3.55,3.72-6.6,6.39-9.15,2.67-2.54,5.98-4.38,9.93-5.51Z"/>
      </g>
      <g>
        <path class="e" d="M147.12,1109.97c.91,5.98,1.33,11.9,1.28,17.76-.06,5.86-.6,11.44-1.64,16.74-1.04,5.31-2.57,10.24-4.6,14.81-2.02,4.57-4.54,8.54-7.55,11.91l-21.34,3.24c3.4-2.63,6.45-5.58,9.15-8.83,2.7-3.25,5.06-6.73,7.08-10.43,2.03-3.7,3.72-7.56,5.06-11.6,1.35-4.04,2.36-8.15,3.04-12.34.68-4.19,1.03-8.44,1.05-12.73.02-4.29-.28-8.52-.92-12.69l-.14-.92c-.85-5.22-2.22-10.28-4.12-15.18-1.9-4.9-4.3-9.46-7.2-13.67-2.9-4.21-6.31-7.98-10.23-11.32-3.92-3.34-8.33-6.07-13.23-8.18-4.9-2.12-10.29-3.53-16.19-4.24-5.9-.71-12.27-.54-19.12.5-6.85,1.04-12.98,2.78-18.41,5.21-5.42,2.44-10.16,5.39-14.21,8.87-4.05,3.47-7.44,7.39-10.17,11.75-2.73,4.36-4.85,8.99-6.37,13.88-1.52,4.89-2.44,9.96-2.78,15.2-.34,5.24-.13,10.49.61,15.76l.12.8c.64,4.19,1.6,8.33,2.89,12.41,1.29,4.08,2.88,8.02,4.77,11.82,1.89,3.8,4.09,7.43,6.58,10.88,2.5,3.45,5.25,6.64,8.27,9.56,3.02,2.92,6.3,5.53,9.85,7.84,3.55,2.31,7.33,4.21,11.33,5.72l-21.39,3.24c-3.88-2.36-7.46-5.42-10.74-9.18-3.29-3.76-6.21-8.04-8.76-12.83-2.56-4.79-4.73-9.98-6.52-15.57-1.79-5.59-3.14-11.39-4.05-17.4-.8-5.26-1.24-10.54-1.33-15.86-.09-5.32.19-10.55.84-15.7.65-5.15,1.69-10.17,3.12-15.06,1.43-4.89,3.27-9.54,5.52-13.94,2.25-4.4,4.92-8.5,8.02-12.31,3.1-3.8,6.65-7.19,10.64-10.17,3.99-2.98,8.45-5.49,13.38-7.54,4.92-2.05,10.32-3.52,16.19-4.41,5.9-.89,11.5-1.09,16.79-.59,5.29.5,10.3,1.58,15.01,3.26,4.72,1.67,9.12,3.87,13.22,6.58,4.1,2.71,7.88,5.84,11.35,9.39,3.47,3.55,6.61,7.45,9.43,11.7,2.82,4.25,5.31,8.75,7.47,13.5,2.16,4.75,3.99,9.68,5.48,14.8,1.49,5.12,2.64,10.31,3.43,15.57Z"/>
        <path class="e" d="M151.72,1221.41c-3.64,1.08-7.45,2.24-11.44,3.48-3.98,1.25-8.09,2.57-12.3,3.96-4.22,1.39-8.51,2.84-12.88,4.35-4.37,1.51-8.78,3.05-13.23,4.63l-15.38,5.61c-4.24,1.41-7.93,3.28-11.07,5.61-3.14,2.32-5.78,4.96-7.9,7.91-2.12,2.95-3.75,6.15-4.89,9.6-1.14,3.45-1.85,7.01-2.11,10.69-.26,3.67-.12,7.4.43,11.17.55,3.77,1.46,7.44,2.72,11.01,1.31,3.62,2.95,7.07,4.92,10.35,1.97,3.29,4.24,6.28,6.81,8.97,2.57,2.69,5.4,5.02,8.5,6.98,3.1,1.96,6.41,3.41,9.95,4.36,3.53.95,7.26,1.31,11.18,1.1,3.92-.22,7.99-1.15,12.2-2.79l15.41-5.53c4.43-1.63,8.81-3.27,13.13-4.91s8.55-3.27,12.68-4.9c4.13-1.63,8.13-3.24,11.99-4.83,3.86-1.59,7.53-3.14,11.02-4.64l6.18,17.07c-3.64,1.08-7.45,2.24-11.44,3.48-3.98,1.25-8.09,2.57-12.3,3.96-4.22,1.39-8.52,2.84-12.9,4.35-4.38,1.51-8.8,3.06-13.25,4.64l-15.73,5.65c-5.05,1.83-9.95,2.76-14.71,2.8-4.75.04-9.29-.65-13.6-2.07-4.32-1.42-8.39-3.46-12.21-6.14-3.83-2.67-7.34-5.82-10.54-9.43-3.2-3.61-6.05-7.59-8.56-11.94s-4.62-8.9-6.33-13.63c-1.7-4.71-2.97-9.53-3.8-14.48-.83-4.95-1.16-9.82-1-14.61.16-4.79.85-9.44,2.09-13.93,1.23-4.49,3.06-8.65,5.48-12.47,2.42-3.82,5.46-7.23,9.13-10.23,3.67-3,8.01-5.4,13.04-7.22l15.7-5.73c4.43-1.63,8.81-3.27,13.15-4.92,4.34-1.64,8.57-3.28,12.7-4.91,4.13-1.63,8.13-3.24,11.99-4.83,3.86-1.59,7.53-3.14,11.02-4.64l6.18,17.07Z"/>
        <path class="e" d="M151.37,1390.61c4.83-2.83,9.64-5.7,14.43-8.6,4.79-2.9,9.47-5.78,14.04-8.64,4.57-2.86,8.97-5.66,13.22-8.4,4.24-2.74,8.24-5.39,11.98-7.94l8.32,14.05,32.89,55.59c2.62,4.43,4.46,8.7,5.51,12.83,1.05,4.13,1.48,8.02,1.28,11.69-.19,3.66-.95,7.04-2.25,10.13-1.31,3.09-3.02,5.81-5.15,8.15-2.13,2.34-4.58,4.27-7.36,5.76-2.78,1.5-5.74,2.48-8.88,2.94-3.14.47-6.39.37-9.74-.29-3.35-.66-6.66-1.98-9.93-3.95.72,4.27.72,8.29,0,12.06-.73,3.77-2,7.18-3.82,10.23-1.82,3.05-4.09,5.68-6.8,7.87-2.71,2.2-5.69,3.86-8.95,4.98-3.26,1.13-6.7,1.67-10.31,1.62-3.61-.05-7.21-.81-10.79-2.28-3.59-1.48-7.07-3.71-10.45-6.7-3.38-2.99-6.49-6.87-9.31-11.64l-35.93-60.55.04-.02-7.98-13.46c3.37-1.74,6.9-3.59,10.59-5.56,3.68-1.97,7.46-4.03,11.35-6.18,3.88-2.15,7.84-4.39,11.88-6.7,4.04-2.31,8.08-4.65,12.13-7.02ZM161.4,1402.22l-40.59,24.1,35.2,59.4c1.56,2.63,3.34,4.77,5.34,6.43,2,1.66,4.12,2.89,6.36,3.7,2.24.81,4.53,1.23,6.89,1.27,2.35.03,4.66-.26,6.93-.87,2.26-.62,4.43-1.54,6.5-2.76,2.07-1.22,3.92-2.68,5.56-4.35,1.64-1.68,3.01-3.55,4.12-5.62,1.11-2.07,1.84-4.29,2.2-6.65.36-2.36.29-4.83-.21-7.39-.5-2.56-1.54-5.17-3.11-7.82l-35.16-59.42ZM168.34,1398.11l32.6,55.02c1.95,3.28,4.2,5.84,6.76,7.66,2.56,1.82,5.22,3.02,8,3.59,2.77.58,5.55.61,8.34.09,2.78-.52,5.37-1.48,7.77-2.9,2.4-1.42,4.5-3.21,6.3-5.38,1.8-2.17,3.12-4.61,3.95-7.32.83-2.71,1.05-5.63.68-8.76-.38-3.13-1.55-6.36-3.53-9.69l-32.52-54.97-38.33,22.66Z"/>
        <path class="e" d="M260.32,1558.97l85.21-13.95-21.06,69.58c-1.71,6.1-3.39,12.24-5.02,18.41-1.64,6.17-3.2,12.27-4.68,18.3-1.49,6.03-2.89,11.92-4.2,17.66-1.31,5.74-2.52,11.23-3.61,16.46l-13.58-14.94c1.83-5.18,3.76-11.01,5.79-17.5,2.03-6.49,4.14-13.51,6.32-21.08l-56.12-61.73c-7.39,1.25-14.47,2.5-21.26,3.76-6.79,1.26-13.15,2.51-19.09,3.74l-9.5-10.45c4.47-.51,9.14-1.07,14.03-1.69,4.88-.62,9.89-1.28,15.03-1.97,5.14-.7,10.37-1.43,15.7-2.21,5.33-.78,10.68-1.58,16.04-2.4ZM307.97,1623.18l19.87-65.47-69.43,10.95,49.56,54.51Z"/>
        <path class="e" d="M352.16,1723.61c3.51-4.3,7.2-8.96,11.08-13.97,3.88-5.01,7.83-10.22,11.85-15.62,4.02-5.4,8.05-10.91,12.09-16.54,4.04-5.63,7.98-11.21,11.81-16.74,3.83-5.53,7.51-10.93,11.02-16.21,3.51-5.28,6.75-10.26,9.7-14.96l1.78-2.85c3.24,13.33,6.6,26.41,10.08,39.25,3.48,12.84,7.01,25.25,10.6,37.22,3.58,11.97,7.17,23.44,10.76,34.39,3.59,10.95,7.09,21.22,10.51,30.81l15.38-21.33c3.17-4.41,6.3-8.82,9.4-13.23,3.1-4.41,6.1-8.75,9.02-13.03,2.92-4.28,5.71-8.45,8.39-12.51,2.68-4.07,5.18-7.94,7.52-11.63l11.47,8.24c-3.51,4.3-7.2,8.96-11.08,13.97-3.88,5.01-7.83,10.22-11.85,15.62-4.02,5.4-8.05,10.91-12.09,16.54-4.04,5.63-7.98,11.21-11.81,16.74-3.84,5.53-7.51,10.94-11.02,16.21-3.51,5.28-6.75,10.26-9.7,14.96l-1.82,2.97c-3.15-13.4-6.36-26.22-9.64-38.44-3.28-12.23-6.65-24.12-10.12-35.68-3.47-11.56-7.04-22.92-10.72-34.07-3.68-11.16-7.49-22.36-11.42-33.61l-15.38,21.33c-3.17,4.41-6.3,8.82-9.4,13.22-3.1,4.41-6.1,8.75-9.02,13.03-2.92,4.28-5.71,8.45-8.39,12.51-2.68,4.07-5.18,7.94-7.52,11.63l-11.47-8.24Z"/>
        <path class="e" d="M773.74,1799.08l.86.22c5.86,1.5,11.5,3.37,16.91,5.62,5.41,2.25,10.38,4.79,14.92,7.65,4.54,2.85,8.55,5.96,12.04,9.32,3.49,3.36,6.26,6.92,8.3,10.68l-4.79,18.74c-1.19-3.78-2.81-7.39-4.85-10.83-2.04-3.44-4.39-6.68-7.06-9.73-2.66-3.05-5.62-5.88-8.88-8.51-3.25-2.63-6.69-5.01-10.32-7.15-3.63-2.14-7.41-4.02-11.36-5.64-3.95-1.62-7.98-2.96-12.09-4.01-5.45-1.39-10.87-2.25-16.24-2.56-5.38-.31-10.58-.04-15.61.8-5.03.84-9.81,2.28-14.32,4.3-4.52,2.03-8.63,4.67-12.34,7.94-3.71,3.27-6.94,7.17-9.69,11.7-2.75,4.54-4.88,9.75-6.39,15.64-1.51,5.89-2.14,11.49-1.89,16.81.25,5.32,1.22,10.29,2.92,14.93s4.06,8.92,7.07,12.84c3.01,3.92,6.52,7.45,10.54,10.58,4.02,3.13,8.47,5.84,13.35,8.14,4.88,2.3,10.05,4.15,15.5,5.54,4.08,1.04,8.24,1.8,12.49,2.27,4.24.47,8.47.64,12.68.51,4.21-.13,8.36-.58,12.44-1.33,4.09-.75,8.03-1.82,11.83-3.21,3.8-1.39,7.41-3.11,10.84-5.15,3.43-2.04,6.57-4.42,9.42-7.13l-4.79,18.74c-3.6,2.32-7.74,4.11-12.41,5.38-4.67,1.27-9.69,2.07-15.06,2.39-5.36.32-10.96.17-16.78-.46-5.82-.63-11.68-1.7-17.57-3.2l-1.93-.49c-4.85-1.33-9.66-2.95-14.41-4.85-4.75-1.9-9.33-4.07-13.72-6.51-4.4-2.44-8.55-5.14-12.46-8.11-3.91-2.97-7.47-6.18-10.67-9.65-3.2-3.46-5.98-7.16-8.35-11.09-2.36-3.93-4.19-8.09-5.48-12.48-1.29-4.38-1.98-8.98-2.08-13.77-.1-4.8.51-9.79,1.84-14.96,1.34-5.23,3.22-9.95,5.66-14.16,2.43-4.21,5.29-7.93,8.57-11.16,3.28-3.23,6.93-6.01,10.95-8.34,4.02-2.33,8.31-4.23,12.84-5.71,4.54-1.48,9.26-2.58,14.17-3.29,4.91-.71,9.91-1.07,15-1.07,5.09,0,10.2.33,15.31.98,5.12.65,10.14,1.6,15.08,2.83Z"/>
        <path class="e" d="M1018.41,1887.68c-.38,7.03-1.6,13.42-3.66,19.17-2.06,5.75-4.84,10.88-8.35,15.39-3.51,4.51-7.7,8.39-12.58,11.66-4.88,3.27-10.33,5.93-16.37,7.99-6.04,2.06-12.58,3.53-19.65,4.39-7.06.86-14.55,1.14-22.46.84-7.91-.3-15.36-1.15-22.33-2.55-6.98-1.4-13.4-3.35-19.26-5.87-5.86-2.51-11.1-5.59-15.71-9.21-4.62-3.63-8.5-7.82-11.66-12.58-3.16-4.76-5.54-10.09-7.16-15.98-1.62-5.89-2.35-12.36-2.19-19.39.38-7.03,1.6-13.42,3.66-19.17,2.06-5.75,4.84-10.88,8.35-15.39,3.51-4.51,7.7-8.39,12.58-11.66,4.88-3.27,10.33-5.93,16.37-7.99,6.03-2.06,12.58-3.53,19.65-4.39,7.06-.86,14.55-1.14,22.46-.84,7.91.3,15.36,1.15,22.33,2.55,6.98,1.4,13.4,3.35,19.26,5.87,5.86,2.51,11.1,5.59,15.71,9.21,4.62,3.63,8.5,7.82,11.66,12.58,3.16,4.76,5.54,10.09,7.16,15.98,1.62,5.89,2.35,12.36,2.19,19.39ZM1000.9,1887.18c.32-9.16-.63-17.2-2.84-24.13-2.21-6.93-5.8-12.78-10.77-17.54-4.97-4.76-11.39-8.42-19.26-10.98-7.87-2.56-17.33-4.05-28.37-4.47-11.05-.42-20.59.35-28.63,2.31-8.04,1.96-14.72,5.12-20.03,9.49-5.32,4.37-9.33,9.92-12.05,16.67-2.72,6.74-4.28,14.69-4.68,23.84-.29,9.16.66,17.2,2.86,24.13,2.2,6.93,5.78,12.78,10.75,17.53,4.97,4.76,11.39,8.42,19.26,10.98,7.87,2.56,17.33,4.05,28.37,4.47,11.05.42,20.59-.35,28.63-2.31,8.04-1.96,14.72-5.12,20.03-9.49,5.32-4.37,9.34-9.92,12.07-16.67,2.73-6.74,4.29-14.69,4.66-23.85Z"/>
        <path class="e" d="M1073.21,1823.03c.41,3.77.87,7.73,1.38,11.88.51,4.14,1.07,8.41,1.69,12.81.61,4.4,1.27,8.88,1.97,13.45.7,4.57,1.43,9.19,2.19,13.85l9.25,54.57,42.82-7.27c7.75-1.31,14.84-2.71,21.27-4.21,6.43-1.5,12.16-3.12,17.2-4.86,5.04-1.74,9.37-3.62,12.98-5.65,3.61-2.03,6.48-4.24,8.6-6.63l-1.84,19.71c-6.36,1.07-12.37,2.09-18.03,3.04-5.66.96-11.12,1.88-16.37,2.76-5.26.89-10.37,1.74-15.35,2.57-4.98.83-9.96,1.66-14.95,2.5l-51.44,8.68c-.47-4.51-1.03-9.27-1.68-14.28-.64-5.01-1.35-10.18-2.12-15.51-.77-5.33-1.59-10.76-2.47-16.29-.88-5.53-1.79-11.05-2.75-16.57-.81-4.65-1.64-9.26-2.48-13.82-.84-4.56-1.69-9.02-2.56-13.38-.86-4.36-1.73-8.57-2.61-12.66-.88-4.08-1.74-7.97-2.59-11.67l17.9-3.02Z"/>
        <path class="e" d="M1227.69,1789.77c1.09,3.64,2.27,7.44,3.54,11.42,1.26,3.98,2.6,8.07,4.01,12.28,1.41,4.21,2.88,8.5,4.41,12.86,1.53,4.36,3.09,8.77,4.69,13.21l19.11,51.94,40.76-15.01c7.38-2.71,14.09-5.39,20.13-8.05,6.04-2.65,11.38-5.3,16.02-7.94,4.64-2.63,8.54-5.28,11.72-7.94,3.18-2.66,5.59-5.36,7.24-8.1l1.81,19.71c-6.05,2.22-11.77,4.32-17.16,6.3-5.39,1.98-10.58,3.89-15.59,5.72-5,1.84-9.88,3.62-14.62,5.34-4.74,1.73-9.49,3.46-14.24,5.2l-48.97,17.98c-1.29-4.34-2.72-8.92-4.27-13.73-1.55-4.81-3.2-9.76-4.94-14.86-1.74-5.1-3.54-10.29-5.42-15.56-1.88-5.28-3.79-10.54-5.75-15.78-1.65-4.42-3.31-8.8-4.98-13.13-1.66-4.33-3.32-8.55-4.97-12.68-1.65-4.12-3.28-8.11-4.89-11.96-1.61-3.85-3.17-7.52-4.69-11l17.04-6.25Z"/>
        <path class="e" d="M1459.94,1677.35l9.79,16.43c-4.06-.58-8.04-.57-11.93.02-3.89.59-7.7,1.56-11.43,2.91-3.72,1.35-7.38,2.97-10.97,4.88-3.59,1.91-7.09,3.88-10.52,5.92-1.34.8-2.65,1.59-3.94,2.37-1.29.79-2.58,1.56-3.87,2.33l-31.54,18.74-9.29,5.53,21.18,35.56,44.27-26.37c4.64-2.76,8.58-5.34,11.83-7.74,3.25-2.39,5.87-4.7,7.86-6.9,1.99-2.21,3.39-4.37,4.18-6.49.79-2.12,1.07-4.29.83-6.52l15.47,25.98c-1.69-1.13-3.65-1.84-5.88-2.13-2.23-.29-4.81-.1-7.74.56-2.93.66-6.25,1.82-9.95,3.48-3.7,1.66-7.87,3.87-12.51,6.64l-44.27,26.37,25.81,43.33,39.48-23.56c6.75-4.02,12.85-7.9,18.31-11.62,5.45-3.72,10.21-7.31,14.28-10.75,4.07-3.44,7.42-6.77,10.06-9.96,2.64-3.2,4.51-6.3,5.62-9.3l5.42,19.04c-5.54,3.3-10.77,6.42-15.71,9.35-4.93,2.94-9.69,5.77-14.27,8.5-4.58,2.73-9.04,5.38-13.38,7.95s-8.69,5.15-13.04,7.74l-47.01,28c-2.54-4.93-5.34-10.18-8.39-15.74-3.05-5.56-6.24-11.26-9.59-17.1-3.35-5.84-6.79-11.73-10.34-17.69-3.55-5.95-7.09-11.79-10.63-17.51-3.54-5.72-7.03-11.25-10.46-16.57-3.44-5.33-6.72-10.28-9.84-14.87l102.1-60.81Z"/>
        <path class="e" d="M1549.97,1595.76l.66-.6c4.5-4.04,9.19-7.69,14.06-10.94,4.87-3.25,9.75-5.97,14.64-8.16,4.89-2.19,9.7-3.8,14.44-4.84,4.73-1.04,9.23-1.36,13.49-.97l12.92,14.39c-3.81-1.1-7.7-1.76-11.7-1.98-3.99-.21-8-.06-12.01.47-4.01.53-8.01,1.41-12.01,2.66s-7.88,2.79-11.68,4.61c-3.79,1.83-7.46,3.93-11,6.32-3.54,2.38-6.89,4.99-10.05,7.83-4.19,3.76-7.9,7.79-11.15,12.09-3.24,4.3-5.91,8.78-8,13.43-2.09,4.65-3.55,9.42-4.37,14.3-.82,4.88-.9,9.77-.25,14.67.66,4.9,2.11,9.75,4.35,14.56,2.24,4.81,5.4,9.47,9.46,13.99,4.06,4.52,8.37,8.16,12.93,10.91,4.56,2.75,9.24,4.7,14.04,5.86,4.8,1.16,9.67,1.58,14.6,1.25,4.93-.33,9.82-1.29,14.65-2.89,4.83-1.6,9.56-3.8,14.18-6.58s9.03-6.06,13.22-9.82c3.13-2.82,6.08-5.86,8.82-9.12,2.75-3.27,5.23-6.69,7.46-10.26,2.22-3.57,4.16-7.27,5.81-11.09s2.95-7.69,3.9-11.62c.95-3.93,1.53-7.89,1.73-11.88.2-3.98-.03-7.92-.7-11.8l12.92,14.39c-.07,4.28-.87,8.72-2.41,13.31-1.54,4.59-3.66,9.21-6.37,13.85-2.71,4.64-5.95,9.21-9.7,13.7-3.76,4.49-7.89,8.77-12.42,12.83l-1.48,1.33c-3.8,3.3-7.81,6.4-12.03,9.3-4.22,2.9-8.57,5.5-13.03,7.8-4.47,2.3-9.02,4.26-13.66,5.86-4.64,1.6-9.29,2.78-13.94,3.52-4.66.74-9.27,1-13.86.79-4.58-.22-9.06-1.01-13.42-2.37-4.36-1.36-8.57-3.34-12.61-5.92-4.05-2.58-7.85-5.86-11.43-9.83-3.61-4.02-6.49-8.21-8.64-12.57-2.15-4.36-3.66-8.8-4.53-13.32-.87-4.52-1.15-9.1-.85-13.74.3-4.64,1.09-9.26,2.38-13.85,1.29-4.6,3-9.13,5.13-13.62,2.13-4.48,4.61-8.84,7.44-13.07,2.83-4.23,5.94-8.3,9.32-12.19,3.38-3.89,6.96-7.55,10.73-10.97Z"/>
        <path class="e" d="M1617.72,1538.58l87.39-118.84,15.41,11.33c-3.44,1.15-6.66,2.57-9.65,4.25-2.99,1.68-5.95,3.79-8.89,6.33-2.94,2.54-5.97,5.61-9.08,9.2-3.11,3.59-6.5,7.87-10.15,12.83l-10.38,14.11,37.3,27.38c4.38,3.26,8.79,6.46,13.22,9.62,4.44,3.16,8.82,6.2,13.15,9.14,4.33,2.94,8.56,5.74,12.69,8.41,4.13,2.67,8.07,5.14,11.84,7.42l-11.33,15.41c-2.95-2.62-6.23-5.43-9.85-8.4-3.62-2.98-7.49-6.07-11.61-9.27-4.12-3.2-8.46-6.52-13.01-9.94-4.56-3.42-9.25-6.88-14.09-10.37l-37.15-27.37-10.53,14.32c-2.43,3.3-4.6,6.4-6.52,9.29-1.92,2.89-3.6,5.63-5.06,8.2-1.46,2.58-2.7,5.05-3.72,7.42-1.02,2.37-1.86,4.69-2.52,6.97-.65,2.27-1.15,4.55-1.48,6.84-.33,2.29-.52,4.64-.58,7.05l-15.41-11.33Z"/>
        <path class="e" d="M1823.77,1439.47c-4.65-3.06-9.7-6.21-15.15-9.45-5.45-3.23-11.12-6.49-17-9.76-5.88-3.27-11.89-6.52-18.03-9.73-6.14-3.22-12.21-6.34-18.23-9.36-6.01-3.02-11.88-5.91-17.59-8.66-5.71-2.75-11.09-5.29-16.12-7.63l9.02-16.87c4.65,3.06,9.68,6.23,15.11,9.52,5.43,3.29,11.07,6.59,16.92,9.91,5.86,3.32,11.84,6.62,17.95,9.88,6.11,3.27,12.17,6.41,18.19,9.43,6.01,3.02,11.89,5.88,17.64,8.56,5.75,2.69,11.18,5.11,16.31,7.28l-9.02,16.87Z"/>
        <path class="e" d="M1859,1201.68c6.6,2.46,12.33,5.53,17.21,9.21,4.88,3.68,8.94,7.87,12.2,12.56,3.26,4.69,5.72,9.86,7.38,15.49,1.67,5.63,2.58,11.63,2.75,18.01.17,6.38-.39,13.06-1.67,20.06-1.28,7-3.25,14.23-5.89,21.69-2.65,7.46-5.68,14.32-9.09,20.56-3.41,6.24-7.19,11.79-11.34,16.63-4.15,4.85-8.64,8.93-13.48,12.25-4.84,3.32-10,5.79-15.49,7.38-5.49,1.6-11.28,2.29-17.38,2.07-6.1-.21-12.49-1.44-19.17-3.69-6.6-2.46-12.33-5.53-17.21-9.21-4.88-3.68-8.94-7.86-12.2-12.56-3.26-4.69-5.72-9.86-7.38-15.49-1.66-5.63-2.58-11.63-2.75-18.01-.17-6.38.39-13.06,1.67-20.06,1.28-7,3.24-14.23,5.89-21.69,2.65-7.46,5.68-14.31,9.09-20.56,3.41-6.24,7.19-11.79,11.34-16.63,4.15-4.84,8.64-8.93,13.48-12.25,4.84-3.32,10-5.78,15.49-7.38,5.49-1.59,11.28-2.29,17.38-2.07,6.1.21,12.49,1.44,19.17,3.69ZM1853.31,1218.25c-8.64-3.03-16.6-4.53-23.88-4.48-7.28.05-13.93,1.73-19.95,5.06-6.02,3.32-11.43,8.36-16.22,15.11-4.79,6.75-9.03,15.33-12.73,25.75-3.69,10.42-5.8,19.76-6.33,28.02-.53,8.26.5,15.58,3.09,21.95,2.58,6.38,6.69,11.87,12.32,16.47s12.75,8.46,21.36,11.58c8.65,3.01,16.62,4.5,23.89,4.46,7.27-.03,13.92-1.71,19.94-5.04,6.02-3.32,11.43-8.36,16.22-15.11,4.79-6.75,9.03-15.33,12.73-25.75s5.8-19.76,6.33-28.02c.53-8.26-.5-15.57-3.09-21.95-2.58-6.38-6.69-11.87-12.31-16.49-5.62-4.62-12.75-8.47-21.37-11.56Z"/>
        <path class="e" d="M1926.5,1163.7c-5.45-1.07-11.3-2.14-17.54-3.2-6.25-1.06-12.7-2.1-19.35-3.1-6.65-1-13.42-1.97-20.28-2.88-6.87-.92-13.64-1.77-20.33-2.55-6.68-.78-13.18-1.48-19.49-2.09-6.31-.62-12.23-1.12-17.77-1.52l-3.35-.23c10.24-9.13,20.2-18.25,29.89-27.37,9.69-9.12,18.98-18.07,27.86-26.87,8.88-8.8,17.31-17.35,25.28-25.67,7.97-8.32,15.39-16.24,22.24-23.77l-26.06-3.53c-5.38-.72-10.74-1.41-16.09-2.07-5.35-.66-10.59-1.27-15.74-1.83s-10.14-1.06-14.99-1.51c-4.85-.45-9.44-.84-13.79-1.16l1.87-14c5.45,1.07,11.3,2.14,17.54,3.2,6.25,1.06,12.7,2.1,19.35,3.1,6.65,1,13.42,1.97,20.28,2.88,6.87.92,13.64,1.77,20.33,2.55,6.69.78,13.18,1.48,19.49,2.09,6.31.62,12.23,1.12,17.77,1.52l3.48.21c-10.34,9.09-20.14,17.95-29.38,26.6-9.24,8.65-18.15,17.22-26.72,25.72-8.57,8.5-16.91,16.99-25.02,25.49-8.11,8.5-16.21,17.13-24.28,25.89l26.06,3.53c5.38.72,10.74,1.41,16.09,2.07,5.35.66,10.59,1.27,15.74,1.83,5.15.56,10.14,1.07,14.99,1.51,4.85.45,9.44.84,13.79,1.16l-1.87,14Z"/>
      </g>
    </g>
  </g>
</svg>