<?xml version="1.0" encoding="UTF-8"?>
<svg id="b" data-name="Layer 2" xmlns="http://www.w3.org/2000/svg" viewBox="0 0 400.44 1034.02">
  <defs>
    <style>
      .d {
        fill: #fff;
      }
    </style>
  </defs>
  <g id="c" data-name="Capa 1">
    <g>
      <polygon class="d" points="234.66 442.07 164.01 442.07 161.7 1034.02 234.66 1033.43 234.66 442.07"/>
      <polygon class="d" points="251 949.02 356.85 949.02 356.85 895.19 305.45 895.19 305.45 814.61 356.73 814.61 356.73 772.59 251 772.59 251 949.02"/>
      <path class="d" d="M200.22,354.83c-22.1,20.38-51.62,32.84-84.06,32.84-3.06,0-6.09-.12-9.1-.33v40.1l186.62-.12v-40c-3.1.23-6.24.35-9.41.35-32.44,0-61.96-12.46-84.06-32.84Z"/>
      <g>
        <path class="d" d="M170.32,278.15c4.17,21.55,14.71,41.79,29.9,57.63,15.29-15.94,25.87-36.32,29.98-58.03-18.53,8.34-41.23,8.49-59.88.4Z"/>
        <path class="d" d="M274.87,203.19c18.5-15.47,32.04-36.77,38.01-60.15-23-5.89-47.81-4.43-69.99,4.05,18.44,12.82,30.29,33.29,31.98,56.1Z"/>
        <path class="d" d="M326.86,151.55c-8.64,29.32-27.85,55.31-53.27,72.26-3.42,17.03-12.53,32.15-26.01,43.21-2.43,29.53-15.26,57.99-35.73,79.39,142.54,103.16,275.57-125.42,116.04-198.49-.33,1.21-.67,2.42-1.03,3.62Z"/>
        <path class="d" d="M186.29,343.91c-18.98-20.89-30.85-48.03-33.35-76.14-14.07-11.22-23.76-27.25-27.1-44.86-25.84-17.69-45.01-44.81-52.99-75.1-160,72.88-26.83,301.84,115.76,198.61-.78-.83-1.56-1.66-2.32-2.51Z"/>
        <path class="d" d="M156.99,146.88c-21.93-8.26-46.4-9.66-69.13-3.91,5.85,22.93,18.98,43.89,36.93,59.29,1.95-22.6,13.83-42.76,32.19-55.38Z"/>
        <path class="d" d="M90.11,126.31c28.6-5.81,59.05-1.73,85.13,11.36,15.84-5.52,33.81-5.46,49.6.18,27.82-14.09,60.64-17.8,90.91-10.34,13.85-170-244.54-170-230.77-.07,1.71-.39,3.41-.78,5.12-1.12Z"/>
      </g>
    </g>
  </g>
</svg>