<?xml version="1.0" encoding="UTF-8"?>
<svg id="b" data-name="Layer 2" xmlns="http://www.w3.org/2000/svg" viewBox="0 0 940.58 944.13">
  <defs>
    <style>
      .e {
        fill: #fff;
      }
    </style>
  </defs>
  <g id="c" data-name="Capa 1">
    <g>
      <polygon class="e" points="489.67 433.93 449.91 433.93 448.6 767.15 489.67 766.81 489.67 433.93"/>
      <polygon class="e" points="498.87 719.3 558.46 719.3 558.46 689 529.53 689 529.53 643.64 558.39 643.64 558.39 619.98 498.87 619.98 498.87 719.3"/>
      <path class="e" d="M470.29,384.83c-12.44,11.47-29.06,18.49-47.32,18.49-1.72,0-3.43-.07-5.12-.19v22.57l105.05-.07v-22.52c-1.75.13-3.51.2-5.29.2-18.26,0-34.88-7.01-47.32-18.49Z"/>
      <g>
        <path class="e" d="M453.46,341.66c2.35,12.13,8.28,23.52,16.83,32.44,8.61-8.97,14.56-20.45,16.88-32.66-10.43,4.7-23.21,4.78-33.71.23Z"/>
        <path class="e" d="M512.31,299.47c10.41-8.71,18.04-20.7,21.4-33.86-12.95-3.32-26.91-2.5-39.4,2.28,10.38,7.22,17.05,18.74,18,31.58Z"/>
        <path class="e" d="M541.58,270.4c-4.86,16.5-15.68,31.13-29.99,40.68-1.93,9.58-7.05,18.1-14.64,24.33-1.37,16.62-8.59,32.64-20.11,44.69,80.24,58.07,155.12-70.6,65.32-111.73-.19.68-.38,1.36-.58,2.04Z"/>
        <path class="e" d="M462.45,378.68c-10.68-11.76-17.37-27.04-18.77-42.86-7.92-6.31-13.37-15.34-15.26-25.25-14.55-9.96-25.34-25.22-29.83-42.27-90.06,41.02-15.1,169.91,65.16,111.8-.44-.47-.88-.94-1.3-1.41Z"/>
        <path class="e" d="M445.96,267.77c-12.35-4.65-26.12-5.44-38.91-2.2,3.29,12.91,10.69,24.71,20.79,33.38,1.1-12.72,7.78-24.07,18.12-31.18Z"/>
        <path class="e" d="M408.31,256.19c16.1-3.27,33.24-.97,47.92,6.39,8.92-3.11,19.03-3.07,27.92.1,15.66-7.93,34.13-10.02,51.17-5.82,7.79-95.69-137.65-95.69-129.9-.04.96-.22,1.92-.44,2.88-.63Z"/>
      </g>
    </g>
    <g id="d" data-name="Texto">
      <g>
        <path class="e" d="M17.01,332.88l10.06,2.32c-1.71,1.2-3.15,2.57-4.33,4.11-1.18,1.54-2.18,3.19-3,4.94-.82,1.75-1.5,3.58-2.04,5.47-.54,1.89-1.03,3.78-1.46,5.67-.17.72-.33,1.44-.49,2.16-.16.72-.32,1.43-.48,2.14l-4.01,17.33-1.18,5.11,21.74,5.01,5.61-24.35c.59-2.55,1-4.8,1.23-6.74.23-1.94.27-3.64.12-5.09-.15-1.45-.51-2.68-1.06-3.68-.56-1.01-1.32-1.85-2.28-2.54l15.91,3.66c-1.06.19-2.05.62-2.98,1.29-.93.67-1.79,1.62-2.59,2.85-.8,1.24-1.54,2.78-2.23,4.63-.69,1.85-1.32,4.05-1.91,6.6l-5.61,24.35,26.53,6.11,4.98-21.73c.84-3.72,1.51-7.16,2.02-10.32.5-3.16.81-6.04.92-8.63.11-2.59.01-4.89-.3-6.91-.31-2.01-.86-3.73-1.64-5.15l9.51,4.72c-.7,3.05-1.36,5.93-1.99,8.64-.62,2.71-1.23,5.33-1.81,7.85-.58,2.52-1.15,4.97-1.7,7.35-.56,2.38-1.11,4.77-1.66,7.16l-5.95,25.85c-2.88-.83-5.96-1.68-9.27-2.56-3.3-.87-6.72-1.74-10.25-2.61s-7.11-1.72-10.75-2.56c-3.64-.84-7.24-1.64-10.79-2.4-3.55-.76-7-1.47-10.36-2.13-3.35-.66-6.5-1.24-9.45-1.75l12.93-56.15Z"/>
        <path class="e" d="M38.63,291.36c1.63.86,3.34,1.75,5.15,2.67,1.8.92,3.67,1.85,5.61,2.8,1.93.95,3.91,1.9,5.94,2.86,2.03.96,4.08,1.92,6.16,2.88l24.44,11.08,8.69-19.18c1.58-3.47,2.93-6.7,4.07-9.69,1.14-2.99,2.04-5.73,2.71-8.23.67-2.5,1.08-4.75,1.25-6.75.16-2,.05-3.76-.33-5.26l7.42,6.08c-1.29,2.85-2.51,5.54-3.67,8.07-1.15,2.53-2.26,4.98-3.33,7.33-1.07,2.35-2.11,4.64-3.13,6.87-1.02,2.23-2.04,4.46-3.05,6.69l-10.46,23.03c-1.94-1.03-4.01-2.1-6.19-3.2-2.19-1.1-4.46-2.22-6.81-3.35-2.35-1.14-4.76-2.28-7.22-3.43-2.46-1.15-4.93-2.28-7.41-3.39-2.09-.93-4.17-1.85-6.23-2.75-2.06-.9-4.08-1.77-6.07-2.6-1.98-.83-3.92-1.63-5.79-2.38-1.88-.75-3.68-1.46-5.39-2.12l3.64-8.01Z"/>
        <path class="e" d="M110.35,169.73l7.51,5.45c-1.92.52-3.69,1.29-5.31,2.3-1.62,1.01-3.13,2.17-4.53,3.48-1.4,1.31-2.72,2.74-3.95,4.27-1.23,1.54-2.42,3.09-3.55,4.65-.44.61-.88,1.21-1.3,1.81-.43.6-.85,1.19-1.28,1.78l-10.46,14.39-3.08,4.24,16.25,11.79,14.67-20.22c1.54-2.12,2.8-4.02,3.79-5.71.99-1.69,1.71-3.22,2.18-4.58.47-1.36.67-2.59.62-3.69-.05-1.1-.34-2.12-.88-3.06l11.87,8.61c-.97-.18-1.98-.12-3.03.18-1.05.3-2.16.88-3.34,1.73-1.18.86-2.43,2.01-3.76,3.46-1.33,1.45-2.76,3.23-4.3,5.35l-14.67,20.22,19.79,14.36,13.07-18.06c2.24-3.08,4.21-5.98,5.93-8.68,1.72-2.7,3.15-5.21,4.3-7.52,1.15-2.31,2.01-4.44,2.57-6.37s.8-3.67.72-5.22l6.06,7.44c-1.84,2.53-3.57,4.92-5.2,7.17-1.63,2.25-3.21,4.42-4.73,6.52-1.52,2.09-3,4.13-4.44,6.1-1.44,1.98-2.88,3.96-4.33,5.94l-15.58,21.47c-2.08-1.71-4.33-3.51-6.75-5.41-2.42-1.89-4.94-3.82-7.54-5.78-2.61-1.96-5.27-3.93-7.99-5.9-2.72-1.97-5.41-3.89-8.09-5.77-2.67-1.87-5.28-3.66-7.83-5.38-2.55-1.71-4.96-3.29-7.23-4.74l33.84-46.64Z"/>
        <path class="e" d="M151.83,163.87c-1.76-1.97-3.16-4.02-4.19-6.15-1.03-2.13-1.76-4.3-2.17-6.51-.41-2.21-.54-4.45-.37-6.71.17-2.26.58-4.51,1.22-6.75.65-2.24,1.5-4.45,2.57-6.63,1.07-2.18,2.3-4.3,3.69-6.35,1.39-2.05,2.93-4.02,4.6-5.91,1.67-1.89,3.43-3.65,5.28-5.31,2.2-1.96,4.48-3.73,6.85-5.3,2.37-1.57,4.74-2.88,7.12-3.94,2.38-1.06,4.72-1.84,7.01-2.33,2.3-.5,4.48-.65,6.54-.45l6.24,7c-1.84-.54-3.73-.87-5.66-.99-1.93-.11-3.87-.05-5.82.2-1.95.25-3.89.67-5.82,1.26-1.93.59-3.82,1.33-5.66,2.21-1.84.88-3.62,1.9-5.34,3.05-1.72,1.15-3.34,2.4-4.87,3.76-1.94,1.73-3.7,3.62-5.26,5.64-1.56,2.03-2.87,4.16-3.92,6.39-1.05,2.23-1.8,4.53-2.26,6.9-.46,2.37-.55,4.75-.27,7.16.28,2.4.96,4.81,2.04,7.2,1.08,2.4,2.64,4.73,4.66,7,2.03,2.27,4.16,4.08,6.41,5.41,2.25,1.34,4.55,2.28,6.9,2.83,2.35.55,4.73.73,7.12.54,2.39-.19,4.76-.68,7.08-1.47,2.33-.79,4.59-1.85,6.79-3.17,2.2-1.33,4.26-2.85,6.2-4.58,1.63-1.45,3.15-3.02,4.56-4.71,1.41-1.69,2.68-3.46,3.8-5.32,1.12-1.85,2.08-3.77,2.88-5.76.8-1.99,1.4-4,1.81-6.04-2.64-2.84-5.22-5.57-7.74-8.18-2.52-2.61-4.89-5.03-7.12-7.24l6.92-6.17c2.02,2.74,4.27,5.63,6.75,8.68,2.48,3.05,5.1,6.16,7.85,9.32l-.33.4.12.14c-.03,2.07-.42,4.21-1.18,6.44-.76,2.23-1.8,4.47-3.12,6.71-1.32,2.25-2.9,4.46-4.74,6.64-1.84,2.18-3.86,4.25-6.06,6.22-1.85,1.65-3.81,3.2-5.86,4.64-2.06,1.44-4.18,2.74-6.38,3.9-2.19,1.16-4.43,2.14-6.72,2.95-2.29.81-4.58,1.41-6.87,1.79-2.29.38-4.57.53-6.83.45-2.26-.08-4.47-.46-6.61-1.11-2.15-.66-4.22-1.62-6.21-2.89-2-1.27-3.87-2.89-5.62-4.85Z"/>
        <path class="e" d="M243.3,96.06l3.25-41.74,30.35,17.94c2.68,1.51,5.37,3,8.09,4.49,2.72,1.48,5.41,2.92,8.08,4.32,2.67,1.4,5.28,2.73,7.83,4.02,2.55,1.28,5,2.48,7.34,3.6l-8.6,4.67c-2.23-1.46-4.75-3.04-7.57-4.74-2.82-1.7-5.89-3.51-9.2-5.4l-35.54,19.32c-.26,3.62-.49,7.1-.68,10.44-.19,3.34-.34,6.48-.44,9.42l-6.02,3.27c.28-2.16.55-4.43.82-6.8.27-2.37.54-4.81.8-7.31.26-2.5.52-5.05.77-7.65.25-2.6.49-5.21.72-7.83ZM279.04,81.01l-28.54-16.9-2.84,33.96,31.38-17.06Z"/>
        <path class="e" d="M329.37,80.98c-.57-2.63-1.21-5.44-1.93-8.43-.72-2.99-1.5-6.06-2.32-9.22-.83-3.16-1.69-6.35-2.6-9.59-.91-3.23-1.82-6.42-2.76-9.54-.93-3.13-1.87-6.15-2.8-9.08-.93-2.93-1.84-5.66-2.72-8.21l-.54-1.54c6.03,2.81,12,5.5,17.91,8.07,5.92,2.57,11.68,4.99,17.3,7.26,5.62,2.27,11.04,4.39,16.28,6.34,5.23,1.96,10.18,3.74,14.85,5.36l-3.42-12.28c-.71-2.53-1.43-5.06-2.16-7.56-.73-2.51-1.46-4.96-2.2-7.36s-1.47-4.72-2.2-6.97c-.73-2.24-1.44-4.37-2.12-6.37l6.59-1.85c.57,2.63,1.21,5.44,1.93,8.43.72,2.99,1.5,6.06,2.32,9.22.83,3.16,1.69,6.35,2.6,9.59.91,3.23,1.82,6.42,2.76,9.54.93,3.13,1.87,6.15,2.8,9.08.93,2.93,1.84,5.66,2.72,8.21l.57,1.59c-6.03-2.87-11.85-5.53-17.48-7.99-5.62-2.46-11.15-4.79-16.57-6.98-5.43-2.19-10.81-4.28-16.15-6.26-5.34-1.99-10.73-3.94-16.18-5.86l3.42,12.28c.71,2.53,1.43,5.06,2.16,7.56.73,2.51,1.46,4.96,2.2,7.36.74,2.4,1.47,4.72,2.2,6.97.73,2.25,1.44,4.37,2.12,6.37l-6.59,1.85Z"/>
        <path class="e" d="M408.31,3.94l71.41-3.94.51,9.26c-1.49-.93-3.02-1.7-4.57-2.3-1.55-.6-3.25-1.06-5.11-1.38-1.86-.32-3.94-.5-6.24-.56-2.3-.06-4.95,0-7.93.16l-8.48.47,1.26,22.4c.13,2.64.29,5.28.48,7.91.19,2.63.4,5.21.63,7.74.24,2.53.49,4.97.77,7.34.27,2.37.57,4.61.88,6.72l-9.26.51c.07-1.91.11-4,.11-6.28,0-2.27-.04-4.67-.11-7.2-.07-2.53-.17-5.17-.29-7.93-.13-2.76-.28-5.58-.47-8.47l-1.21-22.34-8.6.47c-1.98.11-3.81.25-5.49.43-1.67.17-3.22.39-4.63.64-1.41.25-2.72.55-3.93.9-1.2.35-2.33.75-3.38,1.21-1.05.46-2.06.98-3.01,1.56-.96.58-1.9,1.23-2.82,1.96l-.51-9.26Z"/>
        <path class="e" d="M559.08,2.41l8.95,2.42c-.64,1.79-1.29,3.67-1.95,5.64-.66,1.97-1.32,4.01-1.99,6.11-.67,2.1-1.33,4.25-1.98,6.46-.65,2.21-1.3,4.44-1.94,6.7l48.62,13.13c.58-2.27,1.15-4.52,1.7-6.76.55-2.24,1.07-4.43,1.57-6.57s.98-4.23,1.43-6.26c.45-2.03.88-3.97,1.28-5.82l8.95,2.42c-1.02,2.82-2.05,5.86-3.1,9.11-1.05,3.25-2.09,6.62-3.11,10.11-1.03,3.49-2.03,7.03-3,10.64-.97,3.61-1.89,7.18-2.76,10.7-.87,3.53-1.67,6.96-2.4,10.3-.73,3.34-1.37,6.48-1.91,9.43l-8.95-2.42c.78-2.16,1.57-4.46,2.35-6.9.79-2.44,1.57-4.96,2.34-7.56.77-2.6,1.54-5.27,2.31-7.99.76-2.73,1.5-5.47,2.22-8.23l-48.7-13.15c-.74,2.75-1.46,5.5-2.16,8.25-.7,2.74-1.35,5.44-1.97,8.08-.62,2.65-1.19,5.22-1.72,7.72-.53,2.5-1.01,4.89-1.42,7.15l-8.95-2.42c1.02-2.82,2.04-5.86,3.06-9.12,1.02-3.26,2.03-6.64,3.03-10.13,1-3.49,1.97-7.05,2.92-10.66.95-3.61,1.85-7.19,2.72-10.71.87-3.53,1.68-6.96,2.45-10.29.76-3.33,1.46-6.46,2.1-9.38Z"/>
        <path class="e" d="M710.9,99.89c-1.67,2.98-3.56,5.5-5.68,7.57-2.12,2.07-4.43,3.7-6.92,4.92-2.49,1.21-5.14,2.01-7.97,2.39-2.82.38-5.76.38-8.83,0-3.07-.39-6.23-1.15-9.49-2.28-3.26-1.13-6.58-2.6-9.96-4.42-3.38-1.82-6.44-3.78-9.18-5.87-2.74-2.1-5.12-4.32-7.13-6.66-2.02-2.34-3.64-4.8-4.88-7.36-1.24-2.56-2.03-5.22-2.39-7.97-.36-2.75-.26-5.57.29-8.48.55-2.91,1.61-5.88,3.18-8.91,1.66-2.98,3.56-5.5,5.68-7.57,2.12-2.07,4.43-3.7,6.92-4.92,2.49-1.21,5.14-2.01,7.97-2.39,2.82-.38,5.76-.38,8.83,0,3.07.39,6.23,1.15,9.49,2.28,3.26,1.13,6.58,2.6,9.96,4.42,3.38,1.82,6.44,3.78,9.18,5.87,2.74,2.1,5.12,4.32,7.13,6.66,2.02,2.34,3.64,4.8,4.88,7.36,1.24,2.56,2.03,5.22,2.39,7.97.36,2.75.26,5.57-.29,8.48-.55,2.91-1.61,5.88-3.18,8.91ZM703.38,95.94c2.09-3.92,3.39-7.62,3.91-11.11.51-3.49.2-6.8-.95-9.93-1.15-3.13-3.16-6.09-6.04-8.89-2.88-2.79-6.68-5.46-11.4-8-4.72-2.54-9.04-4.24-12.96-5.1-3.92-.86-7.5-.91-10.75-.14-3.25.77-6.18,2.33-8.8,4.69-2.62,2.36-5,5.49-7.12,9.38-2.08,3.93-3.38,7.63-3.9,11.12-.52,3.49-.21,6.8.94,9.93,1.15,3.13,3.16,6.09,6.04,8.89,2.88,2.79,6.68,5.46,11.4,8,4.72,2.54,9.04,4.24,12.96,5.1,3.92.86,7.5.91,10.75.14,3.25-.77,6.18-2.33,8.81-4.68,2.63-2.35,5-5.48,7.12-9.39Z"/>
        <path class="e" d="M750.79,94.62l53.49,47.48-6.16,6.94c-.4-1.71-.94-3.33-1.62-4.85-.68-1.52-1.57-3.04-2.66-4.58-1.1-1.53-2.44-3.13-4.04-4.79-1.59-1.66-3.51-3.49-5.74-5.47l-6.35-5.64-14.88,16.79c-1.77,1.97-3.51,3.95-5.23,5.96-1.72,2-3.39,3.98-5,5.94-1.61,1.96-3.15,3.88-4.63,5.75-1.47,1.87-2.84,3.67-4.11,5.39l-6.94-6.16c1.4-1.31,2.9-2.77,4.5-4.38,1.6-1.61,3.26-3.35,4.99-5.19,1.73-1.85,3.52-3.79,5.38-5.84,1.85-2.05,3.73-4.16,5.63-6.34l14.87-16.72-6.44-5.72c-1.49-1.32-2.89-2.51-4.2-3.56-1.31-1.05-2.56-1.99-3.74-2.81-1.18-.82-2.32-1.53-3.42-2.13-1.1-.6-2.18-1.11-3.25-1.53-1.07-.42-2.15-.76-3.24-1.02-1.09-.26-2.21-.46-3.38-.59l6.16-6.94Z"/>
        <path class="e" d="M860.61,214.27l-7.49,5.47c.09-1.99-.09-3.91-.55-5.76-.46-1.85-1.1-3.65-1.92-5.38-.82-1.74-1.77-3.43-2.85-5.07-1.08-1.65-2.19-3.25-3.33-4.81-.44-.61-.89-1.21-1.32-1.8-.44-.59-.87-1.18-1.3-1.76l-10.47-14.38-3.09-4.24-16.21,11.84,14.73,20.18c1.54,2.11,2.97,3.9,4.27,5.36,1.3,1.46,2.53,2.62,3.69,3.48,1.16.86,2.26,1.44,3.32,1.72,1.06.29,2.12.32,3.18.11l-11.84,8.65c.47-.87.72-1.85.76-2.94.04-1.09-.17-2.32-.62-3.71s-1.16-2.93-2.13-4.64c-.97-1.71-2.23-3.62-3.77-5.74l-14.73-20.18-19.75,14.42,13.16,17.99c2.25,3.08,4.39,5.85,6.44,8.31,2.04,2.46,3.99,4.6,5.84,6.41,1.85,1.81,3.6,3.28,5.27,4.41,1.66,1.13,3.24,1.89,4.74,2.29l-8.95,3.48c-1.84-2.52-3.59-4.91-5.23-7.16-1.64-2.25-3.22-4.42-4.75-6.5-1.52-2.09-3-4.12-4.44-6.1-1.44-1.98-2.88-3.96-4.33-5.94l-15.64-21.42c2.27-1.45,4.67-3.04,7.22-4.76,2.54-1.72,5.15-3.52,7.82-5.4,2.67-1.88,5.36-3.81,8.07-5.79,2.71-1.98,5.37-3.96,7.97-5.92,2.6-1.97,5.11-3.9,7.53-5.8,2.42-1.9,4.66-3.71,6.73-5.43l33.98,46.54Z"/>
        <path class="e" d="M882.96,254.1c-1.72.67-3.51,1.38-5.39,2.14-1.88.76-3.8,1.56-5.79,2.4-1.98.84-4,1.71-6.05,2.61-2.05.9-4.12,1.82-6.21,2.77l-24.39,11.2,8.79,19.14c1.59,3.46,3.14,6.61,4.65,9.43,1.51,2.82,2.99,5.3,4.44,7.44,1.45,2.14,2.88,3.93,4.28,5.37,1.41,1.44,2.8,2.5,4.19,3.19l-9.46,1.62c-1.3-2.84-2.53-5.53-3.69-8.06-1.16-2.53-2.28-4.97-3.35-7.32-1.08-2.35-2.12-4.64-3.13-6.87-1.01-2.23-2.03-4.46-3.05-6.69l-10.54-23c2.05-.79,4.21-1.65,6.47-2.58,2.26-.93,4.6-1.91,7-2.95,2.4-1.03,4.84-2.1,7.32-3.21,2.48-1.11,4.95-2.23,7.41-3.37,2.08-.97,4.13-1.93,6.16-2.9,2.03-.97,4.01-1.93,5.94-2.88,1.93-.95,3.8-1.89,5.6-2.81,1.8-.92,3.51-1.82,5.14-2.68l3.67,8Z"/>
        <path class="e" d="M899.15,333.84c1.28-.36,2.62-.46,4.01-.3s2.79.58,4.2,1.28c1.41.69,2.8,1.64,4.18,2.85,1.38,1.21,2.68,2.69,3.92,4.43,1.24,1.74,2.39,3.74,3.45,6,1.06,2.26,1.97,4.78,2.74,7.57.13.42.24.84.34,1.25s.2.83.3,1.26c.69,2.92,1.15,5.76,1.39,8.51.24,2.75.28,5.4.13,7.94-.15,2.54-.48,4.97-.99,7.28-.51,2.31-1.17,4.47-2,6.48l-9.3,2.14c1.91-2.62,3.48-5.22,4.71-7.81,1.24-2.59,2.15-5.2,2.74-7.82.59-2.62.86-5.28.8-7.96-.05-2.68-.41-5.42-1.06-8.21-.08-.33-.16-.66-.23-.99-.08-.33-.17-.66-.28-1-.82-2.89-1.82-5.44-3.01-7.64-1.19-2.2-2.45-4.01-3.79-5.41-1.34-1.41-2.72-2.4-4.12-2.97-1.4-.57-2.72-.69-3.95-.36-1.2.32-2.24.89-3.11,1.7-.87.81-1.58,1.79-2.14,2.95-.56,1.16-.97,2.47-1.24,3.93-.27,1.46-.41,3.02-.42,4.67-.01,1.65.09,3.37.31,5.14.22,1.78.54,3.56.96,5.35.05.23.11.45.16.66.05.21.11.43.17.66.08.28.15.55.22.83.06.27.13.55.19.83.53,2.24.93,4.51,1.22,6.79.29,2.28.42,4.51.38,6.68-.03,2.17-.25,4.24-.64,6.2-.39,1.96-1,3.75-1.84,5.36-.83,1.61-1.91,3-3.24,4.17-1.32,1.17-2.93,2.04-4.83,2.61-1.33.4-2.71.53-4.15.39-1.44-.13-2.89-.54-4.35-1.21-1.46-.67-2.9-1.61-4.32-2.81-1.42-1.2-2.77-2.67-4.04-4.41-1.27-1.74-2.45-3.74-3.53-6.01s-2.01-4.81-2.78-7.62c-.24-.84-.46-1.71-.67-2.59-.47-2.02-.86-4.06-1.16-6.13-.3-2.07-.52-4.12-.65-6.16-.13-2.04-.18-4.04-.15-6.02s.15-3.87.35-5.69c.21-1.82.49-3.55.87-5.18.37-1.63.83-3.11,1.37-4.45l9.3-2.14c-1.89,2.61-3.42,5.38-4.57,8.3-1.15,2.92-1.97,5.89-2.45,8.93-.48,3.03-.65,6.08-.51,9.13.14,3.05.55,6.02,1.22,8.9.08.35.16.69.24,1.03.08.34.17.68.28,1.02.82,2.89,1.84,5.43,3.05,7.62,1.22,2.19,2.52,3.97,3.92,5.36,1.4,1.39,2.83,2.36,4.29,2.92,1.46.56,2.85.66,4.16.29,1.34-.37,2.47-.98,3.41-1.82.93-.85,1.7-1.88,2.28-3.09.59-1.21,1.02-2.59,1.28-4.12.27-1.53.39-3.18.38-4.93-.02-1.75-.16-3.59-.42-5.52-.26-1.93-.63-3.89-1.09-5.88-.52-2.22-.95-4.5-1.28-6.85-.33-2.35-.52-4.66-.56-6.93-.04-2.27.1-4.46.41-6.56.32-2.1.86-4.01,1.63-5.74.77-1.72,1.8-3.2,3.1-4.43,1.29-1.23,2.9-2.12,4.81-2.67Z"/>
      </g>
      <g>
        <path class="e" d="M67.85,538.17c.44,2.9.65,5.77.62,8.61-.03,2.84-.29,5.55-.8,8.12-.5,2.57-1.25,4.97-2.23,7.18-.98,2.21-2.2,4.14-3.66,5.78l-10.35,1.57c1.65-1.28,3.13-2.7,4.44-4.28,1.31-1.58,2.45-3.26,3.44-5.06.98-1.79,1.8-3.67,2.45-5.62.65-1.96,1.14-3.95,1.47-5.98.33-2.03.5-4.09.51-6.17.01-2.08-.14-4.13-.44-6.15l-.07-.45c-.41-2.53-1.08-4.98-2-7.36-.92-2.38-2.09-4.59-3.49-6.63-1.4-2.04-3.06-3.87-4.96-5.49-1.9-1.62-4.04-2.94-6.41-3.97-2.37-1.03-4.99-1.71-7.85-2.05-2.86-.34-5.95-.26-9.27.24-3.32.5-6.3,1.35-8.92,2.53-2.63,1.18-4.92,2.61-6.89,4.3-1.96,1.68-3.61,3.58-4.93,5.7-1.32,2.11-2.35,4.36-3.09,6.73-.74,2.37-1.19,4.83-1.35,7.37-.16,2.54-.06,5.09.3,7.64l.06.39c.31,2.03.78,4.04,1.4,6.02.63,1.98,1.4,3.89,2.31,5.73.92,1.84,1.98,3.6,3.19,5.28,1.21,1.67,2.55,3.22,4.01,4.63,1.46,1.41,3.05,2.68,4.78,3.8,1.72,1.12,3.55,2.04,5.5,2.78l-10.37,1.57c-1.88-1.14-3.62-2.63-5.21-4.45-1.59-1.82-3.01-3.9-4.25-6.22-1.24-2.32-2.29-4.84-3.16-7.55-.87-2.71-1.52-5.52-1.97-8.44-.39-2.55-.6-5.11-.65-7.69-.04-2.58.09-5.12.41-7.61.31-2.5.82-4.93,1.51-7.3.69-2.37,1.59-4.63,2.68-6.76,1.09-2.13,2.39-4.12,3.89-5.97,1.5-1.84,3.22-3.49,5.16-4.93,1.94-1.44,4.1-2.66,6.49-3.66,2.39-.99,5-1.7,7.85-2.14,2.86-.43,5.57-.53,8.14-.29,2.57.24,4.99.77,7.28,1.58,2.29.81,4.42,1.87,6.41,3.19,1.99,1.31,3.82,2.83,5.51,4.55,1.68,1.72,3.21,3.61,4.57,5.67,1.37,2.06,2.57,4.24,3.62,6.54,1.05,2.3,1.94,4.69,2.66,7.18.72,2.48,1.28,5,1.66,7.55Z"/>
        <path class="e" d="M70.08,592.21c-1.77.52-3.61,1.08-5.55,1.69-1.93.6-3.92,1.24-5.97,1.92-2.04.67-4.13,1.38-6.25,2.11-2.12.73-4.26,1.48-6.42,2.24l-7.46,2.72c-2.06.69-3.85,1.59-5.37,2.72-1.52,1.13-2.8,2.41-3.83,3.83-1.03,1.43-1.82,2.98-2.37,4.65-.55,1.67-.89,3.4-1.02,5.18-.13,1.78-.06,3.59.21,5.41.27,1.83.71,3.61,1.32,5.34.63,1.75,1.43,3.43,2.39,5.02.96,1.59,2.06,3.04,3.3,4.35,1.25,1.31,2.62,2.43,4.12,3.39,1.5.95,3.11,1.66,4.82,2.11,1.71.46,3.52.64,5.42.53,1.9-.1,3.87-.56,5.92-1.35l7.47-2.68c2.15-.79,4.27-1.59,6.37-2.38s4.15-1.59,6.15-2.38c2-.79,3.94-1.57,5.81-2.34,1.87-.77,3.65-1.52,5.34-2.25l2.99,8.28c-1.77.52-3.61,1.08-5.54,1.69-1.93.6-3.92,1.24-5.97,1.92-2.04.67-4.13,1.38-6.26,2.11-2.13.73-4.27,1.48-6.42,2.25l-7.63,2.74c-2.45.89-4.83,1.34-7.13,1.36-2.3.02-4.5-.32-6.6-1-2.09-.69-4.07-1.68-5.92-2.98-1.85-1.3-3.56-2.82-5.11-4.57-1.55-1.75-2.94-3.68-4.15-5.79s-2.24-4.31-3.07-6.61c-.83-2.28-1.44-4.62-1.84-7.02-.4-2.4-.56-4.76-.49-7.08.08-2.32.41-4.58,1.01-6.75.6-2.18,1.48-4.19,2.66-6.05,1.17-1.85,2.65-3.51,4.43-4.96,1.78-1.45,3.89-2.62,6.32-3.5l7.61-2.78c2.15-.79,4.27-1.59,6.38-2.38,2.1-.8,4.15-1.59,6.16-2.38,2-.79,3.94-1.57,5.81-2.34,1.87-.77,3.65-1.52,5.34-2.25l2.99,8.28Z"/>
        <path class="e" d="M69.91,674.25c2.34-1.37,4.67-2.76,7-4.17,2.32-1.41,4.59-2.8,6.8-4.19,2.22-1.38,4.35-2.74,6.41-4.07,2.06-1.33,3.99-2.61,5.81-3.85l4.04,6.81,15.95,26.95c1.27,2.15,2.16,4.22,2.67,6.22.51,2,.72,3.89.62,5.67-.09,1.78-.46,3.41-1.09,4.91-.63,1.5-1.47,2.82-2.5,3.95-1.03,1.14-2.22,2.07-3.57,2.79-1.35.73-2.78,1.2-4.31,1.43-1.52.23-3.1.18-4.72-.14-1.62-.32-3.23-.96-4.82-1.92.35,2.07.35,4.02,0,5.85-.35,1.83-.97,3.48-1.85,4.96-.88,1.48-1.98,2.75-3.3,3.82-1.31,1.06-2.76,1.87-4.34,2.42-1.58.55-3.25.81-5,.79-1.75-.02-3.49-.39-5.23-1.11-1.74-.72-3.43-1.8-5.07-3.25-1.64-1.45-3.15-3.33-4.51-5.64l-17.42-29.36h.02s-3.87-6.54-3.87-6.54c1.64-.84,3.35-1.74,5.13-2.69,1.78-.95,3.62-1.95,5.5-3,1.88-1.04,3.8-2.13,5.76-3.25,1.96-1.12,3.92-2.25,5.88-3.4ZM74.77,679.88l-19.68,11.68,17.07,28.8c.75,1.27,1.62,2.31,2.59,3.12.97.8,2,1.4,3.08,1.79,1.09.39,2.2.6,3.34.61,1.14.02,2.26-.12,3.36-.42,1.1-.3,2.15-.75,3.15-1.34,1-.59,1.9-1.3,2.69-2.11.79-.81,1.46-1.72,2-2.72.54-1,.89-2.08,1.07-3.22.17-1.15.14-2.34-.1-3.58-.24-1.24-.74-2.51-1.51-3.79l-17.05-28.81ZM78.13,677.88l15.81,26.68c.94,1.59,2.04,2.83,3.28,3.71,1.24.88,2.53,1.46,3.88,1.74,1.34.28,2.69.29,4.04.04,1.35-.25,2.61-.72,3.77-1.41,1.16-.69,2.18-1.56,3.05-2.61.87-1.05,1.51-2.23,1.91-3.55.4-1.31.51-2.73.33-4.25-.18-1.52-.75-3.08-1.71-4.7l-15.77-26.65-18.59,10.99Z"/>
        <path class="e" d="M122.73,755.88l41.32-6.77-10.21,33.74c-.83,2.96-1.64,5.93-2.43,8.92-.79,2.99-1.55,5.95-2.27,8.87-.72,2.93-1.4,5.78-2.04,8.56-.64,2.78-1.22,5.44-1.75,7.98l-6.58-7.24c.89-2.51,1.82-5.34,2.81-8.48.98-3.15,2.01-6.55,3.06-10.22l-27.21-29.93c-3.58.61-7.02,1.21-10.31,1.82-3.29.61-6.38,1.21-9.26,1.82l-4.61-5.07c2.17-.25,4.43-.52,6.8-.82,2.37-.3,4.8-.62,7.29-.96,2.49-.34,5.03-.69,7.61-1.07,2.58-.38,5.18-.76,7.78-1.17ZM145.83,787.01l9.64-31.74-33.66,5.31,24.03,26.43Z"/>
        <path class="e" d="M167.26,835.71c1.7-2.09,3.49-4.34,5.37-6.77,1.88-2.43,3.8-4.95,5.74-7.57,1.95-2.62,3.9-5.29,5.86-8.02,1.96-2.73,3.87-5.43,5.73-8.11,1.86-2.68,3.64-5.3,5.34-7.86,1.7-2.56,3.27-4.98,4.7-7.25l.86-1.38c1.57,6.46,3.2,12.81,4.89,19.03,1.69,6.23,3.4,12.24,5.14,18.05,1.74,5.81,3.48,11.36,5.22,16.67,1.74,5.31,3.44,10.29,5.09,14.94l7.46-10.34c1.54-2.14,3.05-4.28,4.56-6.41,1.5-2.14,2.96-4.24,4.37-6.32,1.41-2.07,2.77-4.1,4.07-6.07,1.3-1.97,2.51-3.85,3.64-5.64l5.56,4c-1.7,2.09-3.49,4.34-5.37,6.77-1.88,2.43-3.8,4.95-5.74,7.57-1.95,2.62-3.9,5.29-5.86,8.02-1.96,2.73-3.87,5.43-5.73,8.11-1.86,2.68-3.64,5.3-5.34,7.86-1.7,2.56-3.27,4.98-4.71,7.25l-.88,1.44c-1.53-6.5-3.09-12.71-4.68-18.64s-3.23-11.69-4.91-17.3c-1.68-5.6-3.41-11.11-5.2-16.52-1.79-5.41-3.63-10.84-5.54-16.3l-7.45,10.34c-1.54,2.14-3.05,4.27-4.56,6.41-1.5,2.14-2.96,4.24-4.37,6.32-1.41,2.07-2.77,4.1-4.07,6.07-1.3,1.97-2.51,3.85-3.64,5.64l-5.56-4Z"/>
        <path class="e" d="M371.66,872.3l.42.11c2.84.73,5.57,1.63,8.2,2.72,2.62,1.09,5.03,2.32,7.23,3.71,2.2,1.38,4.15,2.89,5.84,4.52,1.69,1.63,3.03,3.35,4.02,5.18l-2.32,9.08c-.58-1.83-1.36-3.58-2.35-5.25-.99-1.67-2.13-3.24-3.42-4.72-1.29-1.48-2.73-2.85-4.3-4.13-1.58-1.27-3.25-2.43-5-3.47-1.76-1.04-3.59-1.95-5.51-2.74-1.91-.79-3.87-1.43-5.86-1.94-2.64-.68-5.27-1.09-7.88-1.24-2.61-.15-5.13-.02-7.57.39-2.44.41-4.75,1.1-6.94,2.09-2.19.98-4.18,2.27-5.98,3.85-1.8,1.58-3.37,3.48-4.7,5.68-1.33,2.2-2.37,4.73-3.1,7.58-.73,2.86-1.04,5.57-.92,8.15.12,2.58.59,4.99,1.42,7.24s1.97,4.32,3.43,6.23c1.46,1.9,3.16,3.61,5.11,5.13,1.95,1.52,4.1,2.83,6.47,3.95,2.37,1.12,4.87,2.01,7.52,2.69,1.98.51,4,.87,6.05,1.1,2.06.23,4.11.31,6.15.25,2.04-.07,4.05-.28,6.03-.64,1.98-.36,3.89-.88,5.74-1.56,1.84-.67,3.59-1.51,5.26-2.5,1.66-.99,3.18-2.14,4.57-3.46l-2.32,9.08c-1.75,1.12-3.75,1.99-6.02,2.61-2.27.62-4.7,1-7.3,1.16-2.6.16-5.31.08-8.14-.22-2.82-.3-5.66-.82-8.52-1.55l-.94-.24c-2.35-.64-4.68-1.43-6.99-2.35-2.3-.92-4.52-1.97-6.65-3.16-2.13-1.18-4.15-2.49-6.04-3.93-1.9-1.44-3.62-3-5.17-4.68-1.55-1.68-2.9-3.47-4.05-5.38-1.15-1.91-2.03-3.92-2.66-6.05-.62-2.13-.96-4.35-1.01-6.68-.05-2.33.25-4.74.89-7.25.65-2.54,1.56-4.83,2.74-6.87,1.18-2.04,2.56-3.84,4.15-5.41,1.59-1.57,3.36-2.92,5.31-4.04,1.95-1.13,4.03-2.05,6.23-2.77,2.2-.72,4.49-1.25,6.87-1.6,2.38-.35,4.81-.52,7.27-.52,2.47,0,4.94.16,7.42.48,2.48.32,4.92.77,7.31,1.37Z"/>
        <path class="e" d="M490.29,915.25c-.18,3.41-.78,6.51-1.77,9.3-1,2.79-2.35,5.28-4.05,7.46-1.7,2.19-3.74,4.07-6.1,5.65-2.36,1.58-5.01,2.88-7.94,3.88-2.93,1-6.1,1.71-9.53,2.13-3.43.42-7.06.56-10.89.41-3.84-.15-7.45-.56-10.83-1.23-3.38-.68-6.5-1.63-9.34-2.84-2.84-1.22-5.38-2.71-7.62-4.47-2.24-1.76-4.12-3.79-5.65-6.1-1.53-2.31-2.69-4.89-3.47-7.75-.78-2.86-1.14-5.99-1.06-9.4.18-3.41.78-6.51,1.77-9.3,1-2.79,2.35-5.27,4.05-7.46,1.7-2.19,3.74-4.07,6.1-5.65,2.37-1.58,5.01-2.88,7.94-3.88,2.93-1,6.1-1.71,9.53-2.13,3.42-.42,7.06-.56,10.89-.41,3.84.15,7.45.56,10.83,1.23,3.38.68,6.5,1.63,9.34,2.84,2.84,1.22,5.38,2.71,7.62,4.47,2.24,1.76,4.12,3.79,5.65,6.1,1.53,2.31,2.69,4.89,3.47,7.75.78,2.86,1.14,5.99,1.06,9.4ZM481.8,915.01c.15-4.44-.3-8.34-1.38-11.7-1.07-3.36-2.81-6.19-5.22-8.5-2.41-2.31-5.52-4.08-9.34-5.32-3.82-1.24-8.4-1.97-13.76-2.17-5.36-.2-9.98.17-13.88,1.12-3.9.95-7.14,2.48-9.71,4.6-2.58,2.12-4.53,4.81-5.84,8.08-1.32,3.27-2.07,7.12-2.27,11.56-.14,4.44.32,8.34,1.39,11.7,1.07,3.36,2.8,6.19,5.21,8.5,2.41,2.31,5.52,4.08,9.34,5.32,3.81,1.24,8.4,1.97,13.76,2.17,5.36.2,9.98-.17,13.88-1.12,3.9-.95,7.14-2.48,9.71-4.6,2.58-2.12,4.53-4.81,5.85-8.08,1.32-3.27,2.08-7.12,2.26-11.56Z"/>
        <path class="e" d="M516.87,883.91c.2,1.83.42,3.75.67,5.76.25,2.01.52,4.08.82,6.21.3,2.13.62,4.31.95,6.52.34,2.22.69,4.45,1.06,6.71l4.48,26.46,20.76-3.52c3.76-.63,7.2-1.31,10.31-2.04,3.12-.73,5.9-1.51,8.34-2.36,2.44-.84,4.54-1.76,6.29-2.74,1.75-.98,3.14-2.06,4.17-3.22l-.89,9.56c-3.08.52-6,1.01-8.74,1.47-2.74.46-5.39.91-7.94,1.34-2.55.43-5.03.85-7.44,1.25-2.41.4-4.83.8-7.25,1.21l-24.94,4.21c-.23-2.19-.5-4.49-.81-6.92-.31-2.43-.66-4.94-1.03-7.52-.37-2.59-.77-5.22-1.2-7.9-.42-2.68-.87-5.36-1.33-8.03-.39-2.26-.8-4.49-1.2-6.7-.41-2.21-.82-4.37-1.24-6.49-.42-2.11-.84-4.16-1.26-6.14-.42-1.98-.84-3.86-1.26-5.66l8.68-1.46Z"/>
        <path class="e" d="M591.77,867.78c.53,1.76,1.1,3.61,1.71,5.54.61,1.93,1.26,3.91,1.95,5.96.68,2.04,1.4,4.12,2.14,6.24.74,2.12,1.5,4.25,2.27,6.41l9.27,25.19,19.76-7.28c3.58-1.31,6.83-2.61,9.76-3.9,2.93-1.29,5.52-2.57,7.77-3.85,2.25-1.28,4.14-2.56,5.68-3.85,1.54-1.29,2.71-2.6,3.51-3.93l.88,9.56c-2.93,1.08-5.71,2.1-8.32,3.05-2.61.96-5.13,1.88-7.56,2.77-2.43.89-4.79,1.75-7.09,2.59-2.3.84-4.6,1.68-6.9,2.52l-23.74,8.72c-.63-2.11-1.32-4.32-2.07-6.65-.75-2.33-1.55-4.73-2.39-7.21-.84-2.47-1.72-4.99-2.63-7.55-.91-2.56-1.84-5.11-2.79-7.65-.8-2.14-1.61-4.27-2.41-6.37-.81-2.1-1.61-4.15-2.41-6.15-.8-2-1.59-3.93-2.37-5.8-.78-1.87-1.54-3.64-2.27-5.33l8.26-3.03Z"/>
        <path class="e" d="M704.37,813.28l4.75,7.97c-1.97-.28-3.9-.28-5.79.01-1.89.29-3.73.76-5.54,1.41-1.81.65-3.58,1.44-5.32,2.37-1.74.92-3.44,1.88-5.1,2.87-.65.39-1.29.77-1.91,1.15-.63.38-1.25.76-1.88,1.13l-15.29,9.08-4.51,2.68,10.27,17.24,21.47-12.79c2.25-1.34,4.16-2.59,5.74-3.75,1.57-1.16,2.84-2.28,3.81-3.35.97-1.07,1.64-2.12,2.03-3.15.39-1.03.52-2.08.4-3.16l7.5,12.6c-.82-.55-1.77-.89-2.85-1.03-1.08-.14-2.33-.05-3.75.27-1.42.32-3.03.88-4.82,1.69-1.79.81-3.82,1.88-6.07,3.22l-21.47,12.79,12.51,21.01,19.14-11.42c3.27-1.95,6.23-3.83,8.88-5.63,2.64-1.81,4.95-3.54,6.92-5.21,1.97-1.67,3.6-3.28,4.88-4.83,1.28-1.55,2.19-3.05,2.72-4.51l2.63,9.23c-2.69,1.6-5.22,3.11-7.61,4.54-2.39,1.42-4.7,2.8-6.92,4.12-2.22,1.32-4.38,2.61-6.49,3.85s-4.21,2.5-6.32,3.75l-22.79,13.57c-1.23-2.39-2.59-4.94-4.07-7.63-1.48-2.69-3.03-5.46-4.65-8.29-1.62-2.83-3.29-5.69-5.01-8.58-1.72-2.89-3.44-5.72-5.15-8.49-1.72-2.78-3.41-5.45-5.07-8.04-1.67-2.58-3.26-4.99-4.77-7.21l49.5-29.49Z"/>
        <path class="e" d="M748.03,773.72l.32-.29c2.18-1.96,4.45-3.73,6.82-5.31,2.36-1.58,4.73-2.9,7.1-3.96,2.37-1.06,4.71-1.84,7-2.35,2.29-.5,4.47-.66,6.54-.47l6.27,6.98c-1.85-.54-3.74-.86-5.67-.96-1.94-.1-3.88-.03-5.82.23-1.95.26-3.89.68-5.82,1.29s-3.82,1.35-5.66,2.24c-1.84.89-3.62,1.91-5.33,3.06-1.72,1.16-3.34,2.42-4.87,3.79-2.03,1.82-3.83,3.78-5.4,5.86-1.57,2.09-2.87,4.26-3.88,6.51-1.01,2.26-1.72,4.57-2.12,6.93-.4,2.37-.44,4.74-.12,7.11.32,2.38,1.02,4.73,2.11,7.06,1.09,2.33,2.62,4.59,4.59,6.78,1.97,2.19,4.06,3.96,6.27,5.29,2.21,1.33,4.48,2.28,6.81,2.84,2.33.56,4.69.76,7.08.61,2.39-.16,4.76-.63,7.1-1.4,2.34-.78,4.63-1.84,6.88-3.19s4.38-2.94,6.41-4.76c1.52-1.36,2.95-2.84,4.28-4.42,1.33-1.58,2.54-3.24,3.62-4.98,1.08-1.73,2.02-3.52,2.81-5.37s1.43-3.73,1.89-5.64c.46-1.91.74-3.83.84-5.76.1-1.93-.02-3.84-.34-5.72l6.27,6.98c-.03,2.08-.42,4.23-1.17,6.45-.75,2.23-1.78,4.47-3.09,6.71-1.32,2.25-2.88,4.46-4.7,6.64-1.82,2.18-3.83,4.25-6.02,6.22l-.72.65c-1.84,1.6-3.79,3.1-5.83,4.51-2.05,1.4-4.15,2.67-6.32,3.78-2.17,1.12-4.38,2.06-6.63,2.84-2.25.78-4.5,1.35-6.76,1.7-2.26.36-4.5.49-6.72.38-2.22-.1-4.39-.49-6.51-1.15-2.11-.66-4.15-1.62-6.11-2.87-1.96-1.25-3.81-2.84-5.54-4.77-1.75-1.95-3.15-3.98-4.19-6.09-1.04-2.11-1.77-4.27-2.19-6.46-.42-2.19-.56-4.41-.41-6.66.14-2.25.53-4.49,1.15-6.72.62-2.23,1.45-4.43,2.49-6.6,1.03-2.17,2.24-4.28,3.61-6.34,1.37-2.05,2.88-4.02,4.52-5.91,1.64-1.89,3.37-3.66,5.2-5.32Z"/>
        <path class="e" d="M780.88,745.99l42.37-57.62,7.47,5.49c-1.67.56-3.23,1.25-4.68,2.06-1.45.81-2.89,1.84-4.31,3.07-1.43,1.23-2.89,2.72-4.4,4.46-1.51,1.74-3.15,3.81-4.92,6.22l-5.03,6.84,18.09,13.28c2.12,1.58,4.26,3.13,6.41,4.66,2.15,1.53,4.28,3.01,6.38,4.43,2.1,1.43,4.15,2.78,6.15,4.08,2,1.29,3.91,2.49,5.74,3.6l-5.49,7.47c-1.43-1.27-3.02-2.63-4.78-4.07-1.75-1.44-3.63-2.94-5.63-4.5-2-1.55-4.1-3.16-6.31-4.82-2.21-1.66-4.49-3.33-6.83-5.03l-18.01-13.27-5.1,6.94c-1.18,1.6-2.23,3.1-3.16,4.5-.93,1.4-1.75,2.73-2.45,3.98-.71,1.25-1.31,2.45-1.8,3.6-.5,1.15-.9,2.28-1.22,3.38-.32,1.1-.56,2.21-.72,3.32-.16,1.11-.25,2.25-.28,3.42l-7.47-5.49Z"/>
        <path class="e" d="M880.78,697.94c-2.25-1.48-4.7-3.01-7.35-4.58-2.64-1.57-5.39-3.15-8.24-4.73-2.85-1.59-5.76-3.16-8.74-4.72-2.98-1.56-5.92-3.07-8.84-4.54-2.92-1.47-5.76-2.86-8.53-4.2-2.77-1.33-5.37-2.57-7.82-3.7l4.37-8.18c2.25,1.48,4.7,3.02,7.33,4.62,2.63,1.59,5.37,3.19,8.2,4.81,2.84,1.61,5.74,3.21,8.7,4.79,2.96,1.58,5.9,3.11,8.82,4.57,2.92,1.47,5.77,2.85,8.55,4.15,2.79,1.3,5.42,2.48,7.91,3.53l-4.37,8.18Z"/>
        <path class="e" d="M897.86,582.64c3.2,1.19,5.98,2.68,8.34,4.46,2.36,1.78,4.34,3.81,5.91,6.09,1.58,2.28,2.77,4.78,3.58,7.51.81,2.73,1.25,5.64,1.33,8.73.08,3.09-.19,6.33-.81,9.73-.62,3.39-1.57,6.9-2.86,10.52-1.28,3.62-2.75,6.94-4.41,9.97-1.66,3.03-3.49,5.72-5.5,8.06-2.01,2.35-4.19,4.33-6.54,5.94-2.35,1.61-4.85,2.8-7.51,3.58-2.66.77-5.47,1.11-8.43,1-2.96-.1-6.06-.7-9.29-1.79-3.2-1.19-5.98-2.68-8.34-4.46-2.36-1.78-4.34-3.81-5.91-6.09-1.58-2.28-2.77-4.78-3.58-7.51-.81-2.73-1.25-5.64-1.33-8.73-.08-3.09.19-6.33.81-9.73.62-3.39,1.57-6.9,2.86-10.52,1.28-3.62,2.75-6.94,4.41-9.97,1.66-3.03,3.49-5.72,5.5-8.07,2.01-2.35,4.19-4.33,6.54-5.94,2.35-1.61,4.85-2.8,7.51-3.58,2.66-.77,5.47-1.11,8.43-1,2.96.1,6.06.7,9.29,1.79ZM895.1,590.68c-4.19-1.47-8.05-2.2-11.58-2.17-3.53.02-6.75.84-9.67,2.45-2.92,1.61-5.54,4.05-7.87,7.32-2.32,3.27-4.38,7.43-6.17,12.48-1.79,5.05-2.81,9.58-3.07,13.58-.26,4,.24,7.55,1.5,10.64,1.25,3.09,3.24,5.75,5.97,7.99s6.18,4.1,10.36,5.61c4.2,1.46,8.06,2.18,11.58,2.16,3.53-.02,6.75-.83,9.67-2.44,2.92-1.61,5.54-4.05,7.87-7.32,2.32-3.27,4.38-7.43,6.17-12.48s2.81-9.58,3.07-13.58c.26-4-.24-7.55-1.5-10.64-1.25-3.09-3.24-5.76-5.97-8-2.73-2.24-6.18-4.11-10.36-5.6Z"/>
        <path class="e" d="M930.59,564.23c-2.64-.52-5.48-1.04-8.51-1.55-3.03-.52-6.16-1.02-9.38-1.5-3.23-.49-6.5-.95-9.83-1.4-3.33-.45-6.61-.86-9.86-1.24-3.24-.38-6.39-.72-9.45-1.02-3.06-.3-5.93-.54-8.62-.74l-1.62-.11c4.96-4.43,9.79-8.85,14.49-13.27,4.7-4.42,9.2-8.76,13.51-13.03,4.31-4.26,8.39-8.41,12.26-12.45,3.87-4.03,7.46-7.87,10.78-11.52l-12.63-1.71c-2.61-.35-5.21-.68-7.8-1-2.59-.32-5.14-.61-7.63-.89s-4.92-.52-7.27-.73c-2.35-.22-4.58-.4-6.69-.56l.91-6.79c2.64.52,5.48,1.04,8.51,1.55,3.03.52,6.16,1.02,9.38,1.5,3.23.49,6.5.95,9.83,1.4,3.33.45,6.61.86,9.86,1.24,3.24.38,6.39.72,9.45,1.02,3.06.3,5.93.54,8.62.74l1.69.1c-5.02,4.41-9.76,8.7-14.25,12.9-4.48,4.19-8.8,8.35-12.95,12.47-4.15,4.12-8.2,8.24-12.13,12.36-3.93,4.12-7.86,8.31-11.77,12.55l12.63,1.71c2.61.35,5.21.68,7.8,1,2.59.32,5.14.61,7.63.89,2.49.27,4.92.52,7.27.73,2.35.22,4.58.41,6.69.56l-.91,6.79Z"/>
      </g>
    </g>
  </g>
</svg>