<?xml version="1.0" encoding="UTF-8"?>
<svg id="b" data-name="Layer 2" xmlns="http://www.w3.org/2000/svg" viewBox="0 0 2744.34 2754.7">
  <defs>
    <style>
      .e {
        fill: #192841;
      }
    </style>
  </defs>
  <g id="c" data-name="Capa 1">
    <g>
      <polygon class="e" points="1428.72 1266.09 1312.7 1266.09 1308.9 2238.3 1428.72 2237.34 1428.72 1266.09"/>
      <polygon class="e" points="1455.57 2098.7 1629.41 2098.7 1629.41 2010.29 1545 2010.29 1545 1877.95 1629.21 1877.95 1629.21 1808.93 1455.57 1808.93 1455.57 2098.7"/>
      <path class="e" d="M1372.17,1122.81c-36.3,33.48-84.79,53.93-138.06,53.93-5.03,0-10.01-.19-14.94-.55v65.87l306.51-.2v-65.69c-5.1.38-10.25.58-15.45.58-53.27,0-101.76-20.46-138.06-53.93Z"/>
      <g>
        <path class="e" d="M1323.07,996.87c6.85,35.4,24.16,68.63,49.11,94.64,25.11-26.17,42.48-59.65,49.24-95.3-30.43,13.71-67.71,13.95-98.35.66Z"/>
        <path class="e" d="M1494.76,873.76c30.39-25.4,52.63-60.4,62.43-98.79-37.78-9.68-78.52-7.28-114.95,6.64,30.28,21.06,49.74,54.68,52.52,92.14Z"/>
        <path class="e" d="M1580.16,788.95c-14.19,48.15-45.74,90.84-87.49,118.68-5.62,27.96-20.57,52.81-42.72,70.97-3.99,48.49-25.06,95.24-58.69,130.4,234.11,169.42,452.6-205.98,190.58-326-.55,1.99-1.1,3.97-1.68,5.95Z"/>
        <path class="e" d="M1349.29,1104.88c-31.18-34.31-50.67-78.88-54.77-125.06-23.11-18.42-39.02-44.75-44.52-73.67-42.44-29.05-73.92-73.6-87.03-123.34-262.78,119.7-44.07,495.74,190.13,326.19-1.28-1.37-2.56-2.73-3.81-4.12Z"/>
        <path class="e" d="M1301.17,781.27c-36.02-13.57-76.21-15.87-113.53-6.42,9.61,37.66,31.18,72.09,60.66,97.38,3.2-37.11,22.71-70.23,52.87-90.96Z"/>
        <path class="e" d="M1191.33,747.5c46.97-9.55,96.98-2.84,139.82,18.65,26.01-9.06,55.52-8.96,81.47.29,45.69-23.14,99.59-29.24,149.31-16.98,22.74-279.21-401.63-279.2-379.01-.12,2.8-.64,5.6-1.28,8.42-1.84Z"/>
      </g>
    </g>
    <g id="d" data-name="Texto">
      <g>
        <path class="e" d="M49.62,971.24l29.35,6.76c-4.99,3.49-9.2,7.49-12.64,11.99-3.44,4.5-6.35,9.31-8.74,14.43-2.39,5.11-4.37,10.44-5.95,15.96-1.58,5.53-3,11.04-4.27,16.53-.48,2.11-.96,4.2-1.42,6.29-.46,2.09-.93,4.17-1.4,6.23l-11.7,50.56-3.43,14.91,63.44,14.61,16.36-71.04c1.71-7.45,2.91-14,3.58-19.68.67-5.67.78-10.62.34-14.85-.44-4.23-1.47-7.81-3.1-10.75-1.62-2.94-3.84-5.41-6.67-7.41l46.43,10.69c-3.08.56-5.98,1.81-8.68,3.76-2.7,1.94-5.22,4.72-7.55,8.33-2.33,3.61-4.49,8.11-6.49,13.5-2,5.39-3.86,11.81-5.57,19.25l-16.36,71.04,77.42,17.82,14.53-63.4c2.46-10.85,4.42-20.88,5.88-30.11,1.47-9.23,2.36-17.62,2.69-25.18.32-7.56.03-14.28-.87-20.15-.9-5.87-2.5-10.88-4.79-15.02l27.74,13.77c-2.05,8.89-3.98,17.29-5.8,25.2-1.82,7.91-3.58,15.54-5.27,22.89-1.69,7.35-3.35,14.5-4.97,21.45-1.62,6.95-3.24,13.92-4.84,20.9l-17.36,75.43c-8.39-2.42-17.4-4.91-27.04-7.46-9.63-2.55-19.6-5.09-29.89-7.62s-20.75-5.02-31.37-7.47c-10.62-2.45-21.12-4.78-31.48-7-10.37-2.22-20.44-4.29-30.22-6.22-9.78-1.92-18.97-3.63-27.58-5.12l37.72-163.84Z"/>
        <path class="e" d="M112.7,850.09c4.75,2.51,9.75,5.1,15.02,7.78,5.26,2.68,10.72,5.4,16.36,8.16,5.64,2.76,11.42,5.54,17.33,8.34,5.91,2.8,11.9,5.59,17.97,8.39l71.31,32.33,25.36-55.96c4.6-10.12,8.56-19.55,11.89-28.27,3.33-8.73,5.96-16.73,7.91-24.02,1.95-7.29,3.16-13.85,3.64-19.7.48-5.84.16-10.96-.97-15.34l21.66,17.75c-3.77,8.3-7.34,16.15-10.7,23.54-3.36,7.39-6.6,14.52-9.72,21.39-3.12,6.87-6.16,13.54-9.13,20.04-2.97,6.49-5.94,13-8.9,19.52l-30.52,67.19c-5.66-3.01-11.69-6.12-18.07-9.33-6.39-3.21-13.01-6.47-19.87-9.79-6.86-3.32-13.88-6.65-21.06-10-7.18-3.35-14.38-6.64-21.61-9.88-6.1-2.73-12.15-5.4-18.17-8.02-6.01-2.62-11.92-5.15-17.71-7.58-5.79-2.43-11.43-4.75-16.91-6.96-5.48-2.2-10.73-4.27-15.74-6.19l10.62-23.38Z"/>
        <path class="e" d="M321.98,495.22l21.9,15.89c-5.6,1.52-10.77,3.75-15.5,6.7-4.73,2.94-9.14,6.33-13.23,10.16-4.09,3.83-7.93,7.99-11.53,12.47-3.6,4.48-7.05,9-10.36,13.57-1.29,1.78-2.56,3.54-3.8,5.29-1.24,1.74-2.48,3.47-3.73,5.19l-30.53,41.97-8.99,12.38,47.4,34.39,42.81-59.01c4.49-6.18,8.17-11.74,11.05-16.67,2.88-4.93,5-9.38,6.36-13.36,1.36-3.98,1.96-7.57,1.81-10.77-.15-3.2-1-6.18-2.56-8.94l34.63,25.12c-2.83-.52-5.78-.35-8.83.52-3.05.87-6.3,2.56-9.74,5.05-3.44,2.5-7.1,5.86-10.98,10.08-3.88,4.23-8.07,9.43-12.55,15.62l-42.81,59.01,57.74,41.9,38.15-52.68c6.53-9,12.3-17.44,17.3-25.33,5-7.88,9.19-15.2,12.55-21.95,3.37-6.75,5.87-12.94,7.51-18.57s2.34-10.7,2.11-15.22l17.67,21.72c-5.36,7.38-10.42,14.36-15.19,20.93-4.77,6.57-9.37,12.91-13.79,19.01-4.43,6.1-8.75,12.04-12.96,17.81-4.21,5.77-8.42,11.55-12.62,17.34l-45.45,62.65c-6.06-4.99-12.63-10.25-19.69-15.77-7.06-5.52-14.4-11.14-22.01-16.86-7.61-5.72-15.38-11.46-23.32-17.21-7.93-5.75-15.8-11.36-23.6-16.82-7.8-5.46-15.42-10.69-22.86-15.7-7.44-5-14.47-9.61-21.1-13.83l98.73-136.08Z"/>
        <path class="e" d="M443,478.12c-5.14-5.76-9.22-11.74-12.24-17.95-3.02-6.21-5.13-12.54-6.33-19-1.2-6.46-1.56-12.99-1.07-19.59.49-6.6,1.68-13.17,3.57-19.71,1.89-6.54,4.39-12.99,7.5-19.35,3.11-6.37,6.7-12.54,10.77-18.53,4.07-5.99,8.54-11.73,13.41-17.23,4.87-5.5,10.01-10.66,15.42-15.48,6.42-5.73,13.08-10.88,19.98-15.46,6.9-4.58,13.83-8.41,20.78-11.5,6.95-3.09,13.77-5.36,20.47-6.8,6.7-1.45,13.06-1.88,19.09-1.31l18.21,20.42c-5.38-1.58-10.88-2.54-16.52-2.87-5.63-.33-11.29-.14-16.97.58-5.68.73-11.34,1.95-16.97,3.69-5.64,1.73-11.14,3.88-16.52,6.45-5.37,2.57-10.57,5.53-15.59,8.89-5.02,3.35-9.76,7.02-14.2,10.98-5.67,5.06-10.79,10.55-15.34,16.46-4.56,5.92-8.37,12.13-11.43,18.64-3.06,6.51-5.26,13.22-6.61,20.13-1.34,6.91-1.6,13.87-.79,20.88.82,7.02,2.81,14.02,5.96,21.01,3.16,6.99,7.69,13.8,13.6,20.43,5.91,6.63,12.15,11.89,18.71,15.79,6.56,3.9,13.28,6.65,20.14,8.24,6.86,1.6,13.79,2.12,20.78,1.57,6.99-.55,13.87-1.98,20.66-4.28,6.79-2.3,13.39-5.39,19.8-9.26,6.41-3.87,12.44-8.32,18.08-13.35,4.75-4.23,9.18-8.82,13.3-13.75,4.12-4.94,7.81-10.11,11.08-15.52,3.27-5.41,6.07-11.01,8.39-16.82,2.33-5.8,4.09-11.67,5.27-17.61-7.72-8.29-15.24-16.24-22.59-23.87-7.34-7.63-14.27-14.67-20.79-21.14l20.19-18.02c5.89,7.99,12.46,16.43,19.7,25.32,7.24,8.9,14.88,17.97,22.91,27.21l-.96,1.18.36.4c-.09,6.03-1.24,12.3-3.45,18.8-2.21,6.5-5.25,13.03-9.1,19.58-3.86,6.55-8.47,13.01-13.83,19.38-5.36,6.37-11.25,12.41-17.67,18.14-5.4,4.82-11.11,9.33-17.11,13.54-6.01,4.21-12.21,8-18.6,11.37-6.4,3.37-12.93,6.25-19.61,8.61-6.68,2.37-13.37,4.11-20.06,5.23-6.69,1.12-13.34,1.56-19.94,1.31-6.6-.25-13.03-1.33-19.3-3.25-6.27-1.91-12.31-4.72-18.13-8.43-5.82-3.7-11.29-8.42-16.4-14.15Z"/>
        <path class="e" d="M709.89,280.26l9.47-121.79,88.54,52.33c7.81,4.4,15.68,8.77,23.6,13.09,7.92,4.32,15.78,8.52,23.57,12.59,7.79,4.07,15.41,7.98,22.86,11.72,7.45,3.74,14.58,7.23,21.41,10.49l-25.09,13.64c-6.5-4.25-13.87-8.86-22.1-13.84-8.23-4.97-17.18-10.23-26.84-15.77l-103.69,56.36c-.77,10.57-1.43,20.73-1.98,30.47-.55,9.75-.98,18.91-1.27,27.5l-17.55,9.54c.8-6.31,1.6-12.92,2.4-19.84.79-6.92,1.57-14.02,2.34-21.32.77-7.29,1.52-14.73,2.24-22.32.73-7.59,1.42-15.2,2.09-22.85ZM814.14,236.37l-83.28-49.32-8.29,99.09,91.57-49.77Z"/>
        <path class="e" d="M961.01,236.29c-1.65-7.68-3.53-15.88-5.64-24.59-2.11-8.71-4.37-17.68-6.78-26.89-2.41-9.21-4.94-18.53-7.58-27.97-2.64-9.44-5.32-18.72-8.04-27.84-2.72-9.12-5.44-17.96-8.17-26.5-2.72-8.54-5.37-16.52-7.95-23.94l-1.57-4.48c17.58,8.2,35.01,16.06,52.27,23.56,17.26,7.5,34.09,14.57,50.48,21.19,16.39,6.63,32.22,12.8,47.49,18.51,15.27,5.72,29.71,10.93,43.32,15.63l-9.97-35.84c-2.07-7.4-4.17-14.75-6.3-22.07-2.13-7.32-4.27-14.47-6.42-21.48s-4.28-13.77-6.41-20.33c-2.13-6.55-4.19-12.74-6.2-18.58l19.24-5.39c1.65,7.68,3.53,15.88,5.64,24.59,2.11,8.72,4.37,17.68,6.78,26.89,2.41,9.21,4.94,18.53,7.58,27.97,2.64,9.44,5.32,18.72,8.05,27.84,2.72,9.13,5.44,17.96,8.17,26.5,2.72,8.54,5.37,16.52,7.95,23.94l1.67,4.64c-17.59-8.37-34.58-16.14-50.99-23.33-16.4-7.18-32.52-13.97-48.35-20.36-15.83-6.39-31.53-12.48-47.11-18.27-15.58-5.79-31.32-11.49-47.22-17.09l9.97,35.84c2.07,7.4,4.17,14.75,6.3,22.07,2.13,7.32,4.27,14.48,6.42,21.48,2.15,7,4.28,13.78,6.41,20.33,2.12,6.55,4.19,12.74,6.2,18.58l-19.24,5.39Z"/>
        <path class="e" d="M1191.34,11.5L1399.7,0l1.49,27.02c-4.36-2.72-8.8-4.96-13.32-6.72-4.52-1.75-9.5-3.09-14.91-4.01-5.42-.92-11.49-1.47-18.21-1.64-6.72-.17-14.43-.01-23.14.47l-24.74,1.37,3.67,65.36c.38,7.71.85,15.41,1.39,23.09.54,7.68,1.16,15.21,1.85,22.58.69,7.37,1.43,14.51,2.23,21.42s1.65,13.44,2.55,19.6l-27.02,1.49c.21-5.58.32-11.68.31-18.31,0-6.63-.11-13.63-.32-21.02-.21-7.38-.49-15.09-.86-23.15-.36-8.05-.82-16.29-1.36-24.71l-3.54-65.19-25.1,1.39c-5.79.32-11.13.73-16.01,1.24-4.88.51-9.38,1.13-13.51,1.86-4.13.73-7.94,1.6-11.45,2.61-3.51,1.02-6.8,2.19-9.87,3.52-3.07,1.33-6,2.85-8.79,4.54-2.79,1.7-5.53,3.6-8.22,5.71l-1.49-27.02Z"/>
        <path class="e" d="M1631.23,7.02l26.12,7.05c-1.86,5.21-3.76,10.7-5.69,16.46-1.93,5.76-3.86,11.7-5.81,17.82-1.94,6.12-3.87,12.41-5.77,18.86-1.91,6.45-3.79,12.96-5.65,19.54l141.86,38.29c1.7-6.62,3.36-13.2,4.95-19.73,1.6-6.53,3.12-12.92,4.59-19.18s2.86-12.34,4.18-18.26c1.33-5.92,2.58-11.58,3.74-16.98l26.13,7.05c-2.97,8.23-5.98,17.09-9.04,26.58-3.06,9.49-6.09,19.32-9.08,29.49-2.99,10.17-5.91,20.52-8.75,31.04-2.84,10.52-5.53,20.93-8.06,31.23-2.53,10.3-4.86,20.32-7,30.06-2.13,9.74-3.99,18.92-5.56,27.52l-26.12-7.05c2.28-6.3,4.57-13.01,6.86-20.12s4.57-14.46,6.82-22.05c2.26-7.59,4.5-15.37,6.73-23.32,2.23-7.95,4.39-15.96,6.48-24.01l-142.09-38.36c-2.17,8.03-4.27,16.05-6.31,24.06-2.04,8.01-3.95,15.87-5.75,23.59-1.79,7.72-3.47,15.23-5.03,22.54-1.56,7.31-2.94,14.26-4.14,20.85l-26.13-7.05c2.97-8.23,5.94-17.1,8.92-26.61,2.98-9.51,5.93-19.36,8.85-29.56,2.92-10.19,5.76-20.56,8.52-31.1,2.76-10.54,5.41-20.96,7.94-31.26,2.53-10.3,4.91-20.3,7.14-30.02,2.23-9.72,4.27-18.84,6.12-27.37Z"/>
        <path class="e" d="M2074.19,291.45c-4.86,8.7-10.38,16.06-16.58,22.08-6.19,6.03-12.92,10.81-20.19,14.35-7.26,3.54-15.01,5.87-23.24,6.99-8.23,1.12-16.82,1.11-25.77-.03-8.95-1.13-18.18-3.35-27.69-6.65-9.51-3.3-19.2-7.6-29.06-12.9-9.86-5.3-18.79-11.02-26.79-17.13-8-6.12-14.94-12.6-20.82-19.44-5.88-6.84-10.63-14-14.23-21.48-3.61-7.48-5.94-15.23-6.99-23.24-1.05-8.01-.77-16.26.84-24.75,1.61-8.49,4.71-17.16,9.28-26.01,4.86-8.7,10.38-16.06,16.58-22.08,6.19-6.03,12.92-10.81,20.19-14.35,7.26-3.54,15.01-5.87,23.24-6.99,8.23-1.12,16.82-1.11,25.77.03,8.95,1.13,18.18,3.35,27.69,6.65,9.51,3.3,19.2,7.6,29.06,12.91,9.86,5.3,18.79,11.02,26.79,17.13,8,6.12,14.93,12.6,20.82,19.44,5.88,6.84,10.63,14,14.23,21.48,3.61,7.48,5.94,15.23,6.99,23.24,1.05,8.01.77,16.26-.84,24.75-1.61,8.49-4.71,17.16-9.28,26ZM2052.25,279.92c6.1-11.43,9.91-22.24,11.41-32.42s.58-19.84-2.77-28.98c-3.35-9.14-9.23-17.78-17.63-25.93-8.4-8.15-19.49-15.93-33.26-23.34s-26.38-12.37-37.81-14.88c-11.43-2.51-21.89-2.65-31.36-.41-9.47,2.24-18.03,6.8-25.68,13.68-7.65,6.88-14.58,16-20.79,27.38-6.07,11.45-9.86,22.27-11.38,32.44-1.52,10.17-.6,19.83,2.75,28.97,3.35,9.14,9.23,17.78,17.63,25.93,8.4,8.15,19.49,15.93,33.26,23.34,13.77,7.41,26.38,12.37,37.81,14.88,11.43,2.51,21.88,2.65,31.36.41s18.04-6.8,25.71-13.66c7.67-6.87,14.59-16,20.76-27.4Z"/>
        <path class="e" d="M2190.58,276.08l156.06,138.54-17.96,20.24c-1.18-5-2.75-9.72-4.73-14.15-1.98-4.43-4.57-8.88-7.77-13.35-3.2-4.47-7.12-9.13-11.78-13.98-4.65-4.85-10.24-10.17-16.76-15.96l-18.53-16.45-43.41,48.99c-5.16,5.75-10.24,11.54-15.27,17.38-5.02,5.84-9.89,11.62-14.59,17.34-4.71,5.72-9.2,11.31-13.5,16.78-4.29,5.47-8.29,10.71-11.99,15.72l-20.24-17.97c4.08-3.81,8.45-8.07,13.12-12.79,4.66-4.71,9.52-9.76,14.57-15.15,5.05-5.39,10.28-11.07,15.69-17.04,5.41-5.98,10.89-12.15,16.43-18.51l43.38-48.78-18.8-16.69c-4.34-3.85-8.42-7.31-12.24-10.39-3.82-3.07-7.46-5.8-10.9-8.19-3.44-2.39-6.77-4.46-9.97-6.21-3.21-1.75-6.37-3.23-9.49-4.45-3.12-1.22-6.27-2.21-9.44-2.97-3.18-.76-6.46-1.34-9.86-1.73l17.97-20.24Z"/>
        <path class="e" d="M2511.01,625.18l-21.85,15.96c.27-5.8-.26-11.4-1.61-16.8-1.35-5.41-3.21-10.64-5.6-15.71-2.39-5.07-5.16-10-8.32-14.8-3.16-4.8-6.4-9.48-9.73-14.03-1.3-1.78-2.59-3.52-3.86-5.24-1.28-1.72-2.54-3.43-3.79-5.14l-30.56-41.95-9.02-12.36-47.3,34.53,42.99,58.88c4.5,6.17,8.66,11.38,12.46,15.64,3.8,4.26,7.39,7.64,10.76,10.16,3.37,2.52,6.6,4.19,9.69,5.03,3.09.84,6.19.94,9.29.31l-34.55,25.23c1.37-2.53,2.11-5.39,2.22-8.56.11-3.17-.5-6.78-1.81-10.82s-3.39-8.56-6.22-13.55c-2.83-4.99-6.5-10.57-11-16.74l-42.99-58.88-57.62,42.07,38.4,52.49c6.56,8.98,12.82,17.06,18.78,24.25,5.96,7.19,11.64,13.42,17.03,18.69,5.39,5.28,10.51,9.56,15.36,12.85,4.85,3.29,9.47,5.52,13.84,6.69l-26.1,10.14c-5.38-7.37-10.46-14.33-15.25-20.89-4.79-6.56-9.41-12.88-13.85-18.97-4.45-6.09-8.77-12.02-12.96-17.8-4.2-5.78-8.4-11.56-12.62-17.34l-45.64-62.51c6.61-4.24,13.63-8.87,21.06-13.89,7.42-5.03,15.03-10.28,22.81-15.77,7.78-5.49,15.63-11.12,23.55-16.9,7.92-5.78,15.67-11.54,23.26-17.28,7.59-5.74,14.91-11.39,21.96-16.93,7.05-5.54,13.6-10.82,19.64-15.83l99.14,135.78Z"/>
        <path class="e" d="M2576.22,741.39c-5.01,1.94-10.25,4.02-15.72,6.25-5.47,2.22-11.1,4.56-16.88,7.01-5.79,2.45-11.67,4.99-17.66,7.63-5.99,2.63-12.03,5.32-18.11,8.07l-71.16,32.67,25.65,55.83c4.63,10.11,9.15,19.28,13.56,27.51,4.41,8.23,8.73,15.47,12.95,21.72,4.23,6.25,8.39,11.47,12.49,15.66,4.1,4.19,8.17,7.3,12.22,9.32l-27.6,4.73c-3.8-8.29-7.39-16.13-10.77-23.51-3.38-7.38-6.64-14.5-9.78-21.36-3.14-6.85-6.19-13.53-9.15-20.03-2.96-6.5-5.93-13-8.91-19.51l-30.74-67.09c5.98-2.3,12.28-4.81,18.89-7.53,6.61-2.72,13.41-5.58,20.42-8.59,7-3.01,14.12-6.13,21.35-9.36,7.23-3.23,14.44-6.51,21.63-9.84,6.06-2.82,12.04-5.64,17.97-8.46,5.92-2.82,11.7-5.63,17.33-8.4,5.63-2.78,11.08-5.52,16.33-8.21,5.26-2.69,10.25-5.3,14.99-7.83l10.7,23.35Z"/>
        <path class="e" d="M2623.45,974.05c3.74-1.04,7.64-1.33,11.69-.86s8.13,1.71,12.24,3.72c4.11,2.02,8.17,4.79,12.18,8.33,4.01,3.54,7.83,7.85,11.45,12.94,3.62,5.09,6.97,10.93,10.06,17.52,3.09,6.59,5.75,13.96,7.99,22.1.37,1.23.7,2.45.98,3.65s.57,2.43.86,3.68c2,8.53,3.35,16.81,4.04,24.84.69,8.03.82,15.76.38,23.17-.44,7.42-1.4,14.49-2.88,21.23-1.48,6.74-3.42,13.04-5.83,18.9l-27.13,6.24c5.56-7.63,10.15-15.23,13.76-22.8,3.61-7.56,6.27-15.17,7.99-22.83,1.72-7.65,2.5-15.4,2.35-23.23-.15-7.83-1.18-15.82-3.09-23.96-.23-.97-.45-1.94-.68-2.89-.22-.95-.49-1.93-.81-2.92-2.39-8.44-5.31-15.87-8.77-22.29-3.46-6.42-7.15-11.69-11.07-15.8-3.92-4.11-7.93-7-12.02-8.67-4.09-1.67-7.93-2.02-11.53-1.06-3.52.95-6.54,2.6-9.07,4.96-2.53,2.36-4.61,5.23-6.24,8.61-1.63,3.38-2.84,7.21-3.62,11.48-.78,4.27-1.2,8.82-1.24,13.63-.04,4.82.26,9.82.9,15.01.64,5.19,1.58,10.39,2.8,15.61.16.66.31,1.3.45,1.93.15.62.32,1.26.51,1.91.23.81.44,1.61.63,2.41.19.8.38,1.61.57,2.42,1.54,6.54,2.72,13.15,3.57,19.81.84,6.66,1.22,13.16,1.12,19.49-.1,6.33-.72,12.36-1.86,18.09-1.14,5.73-2.93,10.95-5.36,15.65-2.43,4.7-5.58,8.75-9.44,12.17-3.86,3.41-8.56,5.95-14.08,7.62-3.88,1.16-7.92,1.54-12.12,1.15-4.2-.39-8.43-1.57-12.69-3.52-4.26-1.96-8.47-4.69-12.62-8.2-4.15-3.5-8.08-7.79-11.8-12.85-3.71-5.07-7.15-10.92-10.31-17.55s-5.86-14.04-8.11-22.22c-.7-2.47-1.35-4.98-1.96-7.55-1.38-5.88-2.51-11.84-3.39-17.88-.88-6.04-1.52-12.03-1.91-17.98-.39-5.95-.54-11.8-.45-17.55s.43-11.29,1.04-16.61c.6-5.32,1.44-10.35,2.53-15.11,1.08-4.75,2.42-9.08,4.01-12.99l27.13-6.24c-5.53,7.62-9.97,15.69-13.33,24.21-3.36,8.51-5.74,17.2-7.14,26.05-1.4,8.85-1.89,17.73-1.49,26.63.4,8.9,1.59,17.56,3.57,25.97.24,1.01.47,2.02.71,3.01.23.99.51,1.99.82,2.98,2.39,8.44,5.36,15.84,8.91,22.22,3.55,6.38,7.36,11.59,11.44,15.65,4.07,4.06,8.24,6.9,12.51,8.53,4.26,1.63,8.31,1.91,12.12.85,3.9-1.08,7.21-2.85,9.94-5.32,2.73-2.47,4.95-5.47,6.67-9.02,1.71-3.54,2.96-7.56,3.74-12.03.78-4.48,1.14-9.27,1.1-14.37-.05-5.1-.45-10.47-1.22-16.11-.77-5.63-1.83-11.35-3.19-17.15-1.52-6.46-2.76-13.13-3.73-19.99-.97-6.86-1.52-13.6-1.63-20.23-.12-6.63.29-13.01,1.21-19.14.92-6.13,2.51-11.71,4.76-16.74,2.25-5.03,5.27-9.34,9.04-12.94,3.78-3.6,8.46-6.2,14.04-7.79Z"/>
      </g>
      <g>
        <path class="e" d="M197.95,1570.23c1.28,8.46,1.88,16.84,1.81,25.12-.08,8.28-.85,16.18-2.33,23.69-1.47,7.51-3.64,14.49-6.5,20.95-2.86,6.46-6.42,12.08-10.68,16.85l-30.19,4.58c4.82-3.72,9.13-7.89,12.94-12.49,3.81-4.6,7.15-9.52,10.02-14.75,2.87-5.23,5.26-10.7,7.16-16.41,1.9-5.71,3.34-11.53,4.3-17.46.96-5.93,1.46-11.93,1.49-18.01.03-6.07-.4-12.06-1.29-17.95l-.2-1.3c-1.2-7.38-3.15-14.54-5.83-21.48-2.69-6.94-6.08-13.38-10.18-19.33-4.1-5.95-8.92-11.29-14.47-16.01-5.55-4.72-11.79-8.58-18.72-11.58-6.93-3-14.56-4.99-22.91-5.99-8.34-1-17.36-.77-27.05.7-9.69,1.47-18.37,3.93-26.04,7.38-7.67,3.45-14.37,7.63-20.1,12.54-5.73,4.91-10.52,10.46-14.38,16.62-3.86,6.17-6.86,12.71-9.01,19.63-2.15,6.92-3.46,14.09-3.93,21.5-.47,7.42-.19,14.85.86,22.29l.17,1.13c.9,5.93,2.26,11.78,4.09,17.56,1.82,5.77,4.08,11.35,6.75,16.73,2.68,5.38,5.78,10.51,9.31,15.4,3.53,4.89,7.43,9.39,11.7,13.52,4.27,4.13,8.91,7.82,13.94,11.09,5.03,3.26,10.37,5.96,16.04,8.1l-30.25,4.59c-5.48-3.34-10.55-7.67-15.2-12.99-4.65-5.32-8.78-11.37-12.4-18.15-3.62-6.77-6.69-14.12-9.23-22.03-2.53-7.91-4.44-16.12-5.73-24.62-1.13-7.44-1.75-14.92-1.88-22.44-.13-7.53.27-14.93,1.19-22.21.92-7.28,2.39-14.38,4.42-21.3,2.02-6.92,4.63-13.5,7.81-19.72,3.18-6.23,6.97-12.03,11.35-17.41,4.38-5.38,9.4-10.17,15.05-14.39,5.65-4.21,11.96-7.77,18.93-10.67,6.96-2.9,14.6-4.97,22.9-6.23,8.34-1.27,16.26-1.55,23.75-.84,7.49.71,14.57,2.24,21.24,4.61,6.67,2.37,12.91,5.47,18.71,9.3,5.8,3.83,11.15,8.26,16.06,13.28,4.91,5.02,9.35,10.54,13.34,16.55,3.99,6.01,7.51,12.37,10.57,19.09,3.06,6.72,5.65,13.7,7.76,20.94,2.11,7.25,3.73,14.59,4.86,22.02Z"/>
        <path class="e" d="M204.46,1727.89c-5.15,1.52-10.54,3.17-16.18,4.93-5.64,1.76-11.44,3.63-17.4,5.6-5.97,1.97-12.04,4.02-18.23,6.15-6.18,2.13-12.42,4.31-18.72,6.55l-21.76,7.94c-6,2-11.22,4.64-15.67,7.93-4.45,3.29-8.17,7.02-11.17,11.19-3,4.17-5.31,8.69-6.92,13.58-1.62,4.88-2.61,9.92-2.98,15.12-.37,5.2-.17,10.46.61,15.79.78,5.33,2.06,10.52,3.85,15.58,1.85,5.11,4.17,10,6.96,14.65,2.79,4.65,6,8.88,9.63,12.69,3.63,3.81,7.64,7.1,12.03,9.88,4.38,2.77,9.07,4.83,14.07,6.17,4.99,1.34,10.26,1.86,15.81,1.55,5.55-.31,11.3-1.62,17.27-3.95l21.8-7.82c6.27-2.31,12.46-4.63,18.58-6.94s12.1-4.63,17.94-6.94c5.84-2.31,11.5-4.59,16.96-6.84,5.46-2.25,10.65-4.44,15.59-6.56l8.74,24.15c-5.15,1.52-10.54,3.17-16.18,4.93-5.64,1.76-11.44,3.63-17.4,5.6-5.97,1.97-12.05,4.02-18.25,6.16-6.2,2.14-12.45,4.32-18.75,6.56l-22.25,7.99c-7.15,2.59-14.08,3.9-20.81,3.96-6.73.05-13.14-.92-19.24-2.93-6.11-2-11.86-4.9-17.27-8.68-5.41-3.78-10.38-8.23-14.91-13.33-4.53-5.1-8.56-10.74-12.11-16.9s-6.53-12.59-8.96-19.28c-2.41-6.66-4.2-13.49-5.37-20.49-1.17-7-1.64-13.89-1.42-20.67.23-6.78,1.21-13.35,2.95-19.7,1.74-6.35,4.33-12.23,7.75-17.64,3.42-5.41,7.73-10.23,12.92-14.47,5.19-4.24,11.34-7.64,18.44-10.22l22.21-8.1c6.27-2.31,12.47-4.63,18.6-6.96,6.13-2.33,12.12-4.64,17.97-6.95,5.84-2.31,11.5-4.59,16.96-6.84,5.46-2.25,10.65-4.44,15.59-6.57l8.74,24.15Z"/>
        <path class="e" d="M203.96,1967.26c6.83-4,13.64-8.06,20.41-12.16,6.77-4.11,13.39-8.18,19.85-12.22,6.46-4.04,12.7-8,18.7-11.88,6-3.88,11.65-7.62,16.95-11.23l11.78,19.87,46.53,78.65c3.71,6.26,6.31,12.31,7.79,18.15,1.48,5.84,2.09,11.35,1.81,16.54-.28,5.18-1.34,9.96-3.19,14.34-1.85,4.37-4.28,8.22-7.29,11.54-3.01,3.32-6.48,6.04-10.41,8.15-3.93,2.12-8.12,3.51-12.56,4.17-4.45.66-9.04.52-13.78-.42-4.74-.94-9.42-2.8-14.05-5.59,1.02,6.04,1.02,11.73,0,17.06-1.03,5.33-2.83,10.15-5.41,14.47-2.58,4.32-5.78,8.03-9.62,11.14-3.83,3.11-8.05,5.46-12.66,7.05-4.61,1.59-9.47,2.36-14.58,2.29-5.11-.07-10.2-1.14-15.27-3.23-5.07-2.09-10-5.25-14.79-9.48-4.79-4.23-9.18-9.72-13.17-16.46l-50.82-85.66.05-.03-11.29-19.05c4.77-2.46,9.77-5.08,14.97-7.86,5.21-2.78,10.56-5.7,16.05-8.75,5.49-3.05,11.1-6.2,16.81-9.47,5.71-3.27,11.43-6.58,17.17-9.93ZM218.16,1983.68l-57.42,34.09,49.79,84.04c2.2,3.72,4.72,6.75,7.55,9.09,2.83,2.34,5.83,4.09,9,5.24,3.17,1.15,6.41,1.74,9.74,1.79,3.33.05,6.6-.36,9.8-1.24,3.2-.88,6.26-2.18,9.19-3.91,2.92-1.73,5.54-3.79,7.86-6.16,2.31-2.37,4.25-5.02,5.82-7.95,1.57-2.93,2.6-6.06,3.11-9.41.5-3.34.4-6.83-.3-10.46-.71-3.63-2.17-7.31-4.4-11.06l-49.74-84.07ZM227.96,1977.87l46.12,77.84c2.75,4.65,5.94,8.26,9.56,10.83,3.62,2.57,7.39,4.27,11.31,5.08,3.92.81,7.85.86,11.79.13,3.94-.73,7.6-2.1,10.99-4.11,3.39-2.01,6.36-4.55,8.91-7.62,2.55-3.07,4.41-6.52,5.58-10.35,1.17-3.83,1.49-7.96.96-12.39-.53-4.43-2.19-9-4.99-13.71l-46.01-77.77-54.23,32.06Z"/>
        <path class="e" d="M358.09,2205.43l120.55-19.74-29.79,98.44c-2.42,8.63-4.79,17.31-7.1,26.04-2.31,8.72-4.52,17.35-6.63,25.89-2.11,8.54-4.09,16.87-5.95,24.99-1.86,8.12-3.56,15.89-5.1,23.29l-19.21-21.13c2.59-7.32,5.31-15.58,8.19-24.76,2.87-9.18,5.85-19.12,8.94-29.82l-79.39-87.33c-10.45,1.77-20.47,3.54-30.07,5.32-9.6,1.78-18.6,3.54-27.01,5.3l-13.44-14.78c6.32-.72,12.93-1.51,19.84-2.39,6.91-.88,14-1.8,21.26-2.79,7.27-.98,14.67-2.03,22.21-3.13,7.54-1.1,15.11-2.23,22.69-3.4ZM425.5,2296.27l28.11-92.61-98.22,15.5,70.1,77.12Z"/>
        <path class="e" d="M488.01,2438.34c4.96-6.09,10.19-12.68,15.68-19.77,5.49-7.09,11.07-14.46,16.76-22.09,5.68-7.64,11.38-15.44,17.1-23.4,5.72-7.96,11.29-15.85,16.71-23.68,5.42-7.82,10.62-15.47,15.59-22.93,4.97-7.46,9.54-14.52,13.73-21.17l2.52-4.02c4.58,18.85,9.33,37.36,14.26,55.53,4.93,18.17,9.92,35.72,14.99,52.66,5.07,16.94,10.14,33.15,15.22,48.65,5.08,15.49,10.03,30.02,14.86,43.59l21.75-30.18c4.48-6.24,8.91-12.47,13.29-18.71,4.38-6.24,8.63-12.38,12.76-18.43,4.12-6.05,8.08-11.95,11.87-17.7,3.79-5.75,7.33-11.23,10.63-16.45l16.23,11.66c-4.96,6.09-10.19,12.68-15.68,19.77-5.49,7.09-11.07,14.45-16.76,22.09-5.68,7.64-11.39,15.44-17.1,23.4-5.72,7.96-11.29,15.85-16.71,23.68-5.43,7.83-10.62,15.47-15.59,22.93-4.97,7.46-9.54,14.52-13.73,21.17l-2.58,4.21c-4.46-18.96-9-37.09-13.64-54.38s-9.41-34.12-14.31-50.47c-4.9-16.35-9.96-32.42-15.17-48.2-5.21-15.78-10.6-31.63-16.16-47.55l-21.75,30.18c-4.48,6.24-8.91,12.47-13.29,18.71-4.38,6.24-8.63,12.38-12.76,18.43-4.12,6.05-8.08,11.95-11.87,17.7-3.79,5.75-7.33,11.23-10.63,16.45l-16.23-11.66Z"/>
        <path class="e" d="M1084.41,2545.1l1.22.31c8.29,2.12,16.27,4.77,23.92,7.94,7.65,3.18,14.69,6.78,21.11,10.82,6.42,4.04,12.1,8.43,17.03,13.18,4.94,4.75,8.85,9.79,11.74,15.11l-6.78,26.51c-1.69-5.34-3.97-10.45-6.86-15.32-2.88-4.87-6.21-9.45-9.98-13.76-3.77-4.31-7.96-8.32-12.56-12.04-4.6-3.72-9.47-7.09-14.6-10.11-5.13-3.02-10.49-5.69-16.07-7.98-5.59-2.3-11.28-4.19-17.1-5.67-7.71-1.97-15.37-3.18-22.98-3.62-7.61-.44-14.97-.06-22.09,1.13-7.12,1.19-13.87,3.22-20.26,6.09-6.39,2.87-12.21,6.61-17.46,11.23-5.25,4.62-9.82,10.14-13.71,16.56-3.89,6.42-6.9,13.79-9.03,22.12-2.13,8.33-3.02,16.26-2.68,23.78.35,7.52,1.73,14.56,4.13,21.12s5.74,12.62,10,18.16c4.26,5.55,9.23,10.54,14.91,14.96,5.68,4.42,11.98,8.26,18.88,11.52,6.91,3.25,14.22,5.87,21.93,7.84,5.77,1.48,11.66,2.55,17.66,3.22,6,.67,11.98.91,17.93.72,5.95-.19,11.82-.82,17.6-1.88,5.78-1.06,11.36-2.58,16.74-4.54,5.37-1.97,10.49-4.4,15.33-7.29,4.85-2.89,9.29-6.25,13.33-10.09l-6.78,26.51c-5.09,3.28-10.94,5.82-17.56,7.62-6.61,1.8-13.71,2.92-21.3,3.38-7.59.45-15.5.23-23.74-.65-8.24-.89-16.52-2.4-24.85-4.53l-2.73-.7c-6.87-1.88-13.66-4.17-20.39-6.86-6.72-2.69-13.19-5.76-19.41-9.21-6.22-3.45-12.1-7.27-17.62-11.48-5.53-4.2-10.56-8.75-15.09-13.64-4.53-4.89-8.47-10.12-11.81-15.69-3.35-5.56-5.93-11.45-7.75-17.65-1.82-6.2-2.8-12.7-2.94-19.49-.14-6.79.72-13.84,2.6-21.17,1.89-7.4,4.56-14.08,8-20.03,3.44-5.95,7.48-11.22,12.12-15.79,4.64-4.57,9.8-8.51,15.5-11.8,5.69-3.29,11.75-5.98,18.17-8.08,6.42-2.09,13.1-3.65,20.05-4.66,6.95-1.01,14.02-1.51,21.23-1.51,7.2,0,14.42.47,21.66,1.39,7.24.92,14.35,2.26,21.33,4Z"/>
        <path class="e" d="M1430.53,2670.44c-.54,9.95-2.26,18.99-5.17,27.12-2.91,8.14-6.85,15.39-11.81,21.77-4.97,6.38-10.9,11.88-17.8,16.5-6.9,4.62-14.62,8.39-23.16,11.31-8.54,2.92-17.8,4.99-27.8,6.21-9.99,1.22-20.59,1.62-31.78,1.19-11.19-.42-21.72-1.63-31.6-3.6-9.87-1.98-18.95-4.74-27.24-8.3-8.29-3.56-15.7-7.9-22.23-13.03-6.53-5.13-12.03-11.06-16.5-17.8-4.47-6.73-7.84-14.27-10.13-22.6-2.29-8.33-3.32-17.48-3.1-27.44.54-9.95,2.26-18.99,5.17-27.12,2.91-8.13,6.85-15.39,11.81-21.77,4.96-6.38,10.9-11.87,17.8-16.5,6.9-4.62,14.62-8.39,23.16-11.31,8.54-2.92,17.8-4.99,27.79-6.21,9.99-1.22,20.59-1.62,31.78-1.19,11.19.43,21.72,1.63,31.6,3.6,9.87,1.98,18.95,4.74,27.24,8.3,8.29,3.56,15.7,7.9,22.23,13.03,6.53,5.13,12.03,11.06,16.5,17.8,4.47,6.73,7.84,14.27,10.13,22.6,2.29,8.33,3.32,17.48,3.1,27.44ZM1405.76,2669.74c.45-12.95-.89-24.33-4.02-34.14-3.13-9.81-8.21-18.07-15.24-24.81-7.03-6.73-16.11-11.91-27.24-15.53-11.13-3.62-24.51-5.73-40.14-6.33-15.63-.59-29.13.5-40.5,3.26-11.37,2.77-20.82,7.25-28.34,13.42-7.52,6.18-13.2,14.04-17.05,23.58-3.84,9.54-6.05,20.79-6.63,33.73-.41,12.95.94,24.33,4.05,34.14,3.11,9.81,8.18,18.07,15.21,24.81,7.03,6.73,16.11,11.91,27.24,15.54,11.13,3.63,24.51,5.73,40.14,6.33,15.63.59,29.13-.49,40.5-3.27,11.37-2.77,20.82-7.24,28.34-13.42,7.52-6.18,13.21-14.04,17.08-23.58,3.86-9.54,6.06-20.78,6.6-33.73Z"/>
        <path class="e" d="M1508.06,2578.98c.58,5.34,1.23,10.94,1.95,16.8.72,5.86,1.52,11.9,2.39,18.13.87,6.22,1.79,12.57,2.78,19.03.99,6.47,2.02,13,3.09,19.59l13.08,77.2,60.57-10.28c10.96-1.85,20.99-3.84,30.09-5.96,9.09-2.12,17.21-4.41,24.33-6.87,7.13-2.46,13.25-5.13,18.37-8,5.11-2.87,9.17-6,12.17-9.38l-2.6,27.88c-8.99,1.52-17.49,2.95-25.5,4.3-8.01,1.35-15.73,2.65-23.16,3.91-7.44,1.25-14.67,2.47-21.72,3.63-7.04,1.17-14.1,2.35-21.16,3.54l-72.77,12.28c-.67-6.38-1.46-13.11-2.37-20.2-.91-7.09-1.91-14.4-3-21.95-1.09-7.54-2.25-15.23-3.49-23.05-1.24-7.82-2.54-15.64-3.89-23.44-1.15-6.58-2.32-13.1-3.51-19.55-1.19-6.45-2.4-12.76-3.62-18.92-1.22-6.16-2.45-12.13-3.69-17.91-1.24-5.77-2.46-11.28-3.67-16.51l25.32-4.27Z"/>
        <path class="e" d="M1726.6,2531.93c1.55,5.14,3.21,10.53,5,16.15,1.79,5.63,3.68,11.42,5.68,17.38,2,5.96,4.07,12.02,6.23,18.2,2.16,6.17,4.37,12.4,6.64,18.69l27.04,73.48,57.66-21.23c10.44-3.83,19.93-7.63,28.48-11.38,8.55-3.76,16.1-7.5,22.66-11.23,6.56-3.73,12.09-7.47,16.59-11.23,4.5-3.76,7.91-7.58,10.24-11.46l2.57,27.88c-8.56,3.14-16.65,6.11-24.28,8.91-7.62,2.8-14.97,5.5-22.05,8.09-7.08,2.6-13.97,5.12-20.68,7.56-6.71,2.44-13.43,4.9-20.15,7.36l-69.28,25.43c-1.83-6.15-3.84-12.62-6.04-19.42-2.2-6.8-4.52-13.81-6.98-21.02-2.46-7.22-5.01-14.55-7.67-22.02-2.65-7.46-5.36-14.9-8.13-22.33-2.34-6.26-4.69-12.45-7.04-18.57-2.35-6.12-4.7-12.1-7.03-17.94-2.33-5.83-4.64-11.47-6.92-16.92-2.28-5.45-4.49-10.63-6.64-15.56l24.11-8.85Z"/>
        <path class="e" d="M2055.15,2372.9l13.85,23.25c-5.75-.81-11.37-.8-16.88.03-5.51.84-10.9,2.21-16.16,4.11-5.27,1.9-10.44,4.2-15.51,6.9-5.08,2.7-10.04,5.49-14.88,8.37-1.89,1.13-3.75,2.25-5.58,3.36-1.83,1.11-3.65,2.21-5.47,3.3l-44.62,26.51-13.15,7.83,29.97,50.31,62.63-37.3c6.56-3.91,12.14-7.56,16.74-10.95,4.59-3.39,8.3-6.64,11.12-9.76,2.82-3.12,4.79-6.18,5.92-9.18,1.12-3,1.52-6.07,1.18-9.22l21.89,36.75c-2.4-1.6-5.17-2.6-8.32-3.01-3.15-.4-6.8-.14-10.95.79-4.15.93-8.84,2.57-14.07,4.92-5.24,2.35-11.14,5.48-17.7,9.39l-62.63,37.3,36.51,61.29,55.85-33.33c9.55-5.69,18.19-11.17,25.9-16.44,7.71-5.27,14.45-10.34,20.2-15.21,5.76-4.87,10.5-9.57,14.23-14.1,3.73-4.53,6.38-8.91,7.95-13.15l7.66,26.93c-7.84,4.67-15.24,9.08-22.22,13.23-6.98,4.16-13.7,8.16-20.18,12.02-6.48,3.86-12.79,7.61-18.93,11.24s-12.29,7.29-18.44,10.95l-66.5,39.61c-3.6-6.98-7.55-14.4-11.86-22.26-4.31-7.86-8.83-15.92-13.57-24.18-4.73-8.26-9.61-16.6-14.62-25.02-5.02-8.42-10.03-16.68-15.04-24.78-5.01-8.1-9.94-15.91-14.8-23.45-4.86-7.53-9.5-14.55-13.93-21.04l144.44-86.03Z"/>
        <path class="e" d="M2182.52,2257.48l.94-.84c6.37-5.72,13-10.88,19.89-15.48,6.89-4.6,13.79-8.45,20.72-11.55,6.92-3.1,13.73-5.38,20.42-6.85,6.69-1.47,13.06-1.93,19.09-1.38l18.28,20.36c-5.38-1.56-10.9-2.5-16.55-2.8-5.65-.3-11.31-.08-16.99.66-5.68.74-11.34,2-16.98,3.76s-11.15,3.94-16.52,6.53c-5.36,2.59-10.55,5.57-15.56,8.94-5.01,3.37-9.75,7.06-14.21,11.07-5.92,5.32-11.18,11.02-15.77,17.1-4.59,6.08-8.36,12.42-11.32,19-2.96,6.58-5.02,13.33-6.18,20.23-1.16,6.91-1.28,13.83-.35,20.76.93,6.93,2.98,13.8,6.16,20.6,3.17,6.8,7.64,13.4,13.38,19.79,5.75,6.4,11.84,11.54,18.29,15.43,6.45,3.89,13.07,6.65,19.86,8.29,6.79,1.64,13.68,2.23,20.66,1.77,6.98-.46,13.89-1.83,20.72-4.09,6.83-2.27,13.52-5.37,20.06-9.31s12.77-8.57,18.7-13.89c4.43-3.98,8.59-8.28,12.48-12.9,3.89-4.62,7.4-9.46,10.55-14.52,3.15-5.06,5.88-10.28,8.21-15.68s4.17-10.88,5.51-16.44c1.35-5.56,2.16-11.16,2.45-16.8.29-5.63-.04-11.2-1-16.69l18.28,20.36c-.1,6.06-1.24,12.33-3.41,18.83-2.18,6.5-5.18,13.03-9.02,19.59-3.84,6.56-8.41,13.02-13.72,19.38-5.31,6.36-11.17,12.41-17.57,18.16l-2.1,1.88c-5.38,4.67-11.05,9.05-17.02,13.15-5.97,4.1-12.12,7.78-18.44,11.04-6.32,3.26-12.77,6.02-19.33,8.29-6.57,2.27-13.14,3.93-19.73,4.97-6.59,1.05-13.12,1.42-19.6,1.11-6.48-.31-12.81-1.42-18.98-3.35-6.17-1.93-12.12-4.72-17.84-8.37-5.72-3.65-11.11-8.29-16.16-13.91-5.1-5.68-9.18-11.61-12.22-17.78-3.04-6.17-5.17-12.45-6.4-18.85-1.23-6.4-1.63-12.88-1.21-19.44.42-6.56,1.55-13.09,3.37-19.6,1.82-6.5,4.24-12.92,7.26-19.26,3.02-6.34,6.53-12.5,10.53-18.49,4-5.99,8.4-11.74,13.18-17.24,4.78-5.51,9.84-10.68,15.17-15.52Z"/>
        <path class="e" d="M2278.36,2176.59l123.63-168.11,21.8,16.03c-4.87,1.63-9.42,3.63-13.65,6.01-4.23,2.38-8.42,5.36-12.58,8.96-4.16,3.6-8.44,7.93-12.85,13.01-4.4,5.08-9.19,11.13-14.36,18.15l-14.68,19.96,52.77,38.73c6.2,4.61,12.43,9.14,18.71,13.61,6.27,4.47,12.47,8.78,18.6,12.94,6.13,4.16,12.11,8.12,17.95,11.9,5.84,3.77,11.42,7.27,16.75,10.49l-16.03,21.8c-4.17-3.71-8.82-7.68-13.94-11.89-5.12-4.21-10.59-8.58-16.42-13.12-5.83-4.53-11.96-9.22-18.41-14.06-6.45-4.84-13.09-9.73-19.94-14.66l-52.55-38.72-14.89,20.25c-3.44,4.67-6.51,9.05-9.22,13.14-2.71,4.09-5.1,7.96-7.16,11.6-2.06,3.65-3.82,7.15-5.27,10.5-1.45,3.35-2.64,6.64-3.56,9.86-.93,3.22-1.62,6.44-2.09,9.67-.47,3.23-.74,6.56-.82,9.97l-21.8-16.03Z"/>
        <path class="e" d="M2569.86,2036.38c-6.57-4.33-13.72-8.79-21.43-13.36-7.71-4.58-15.73-9.18-24.05-13.81-8.32-4.63-16.82-9.22-25.5-13.77-8.68-4.55-17.27-8.96-25.78-13.24-8.51-4.28-16.8-8.36-24.88-12.25-8.08-3.89-15.68-7.49-22.8-10.8l12.76-23.86c6.57,4.33,13.7,8.82,21.38,13.47,7.68,4.65,15.66,9.32,23.94,14.02,8.28,4.7,16.75,9.36,25.39,13.98,8.64,4.62,17.22,9.07,25.73,13.34,8.51,4.28,16.83,8.31,24.96,12.12,8.13,3.8,15.82,7.23,23.07,10.29l-12.76,23.86Z"/>
        <path class="e" d="M2619.69,1699.98c9.33,3.48,17.45,7.82,24.35,13.02,6.9,5.2,12.65,11.13,17.26,17.77,4.61,6.64,8.09,13.94,10.44,21.91,2.36,7.96,3.65,16.46,3.89,25.47.24,9.02-.55,18.48-2.36,28.38-1.81,9.9-4.59,20.13-8.33,30.69-3.74,10.56-8.03,20.25-12.86,29.09-4.83,8.83-10.18,16.68-16.04,23.53-5.87,6.85-12.22,12.63-19.07,17.34-6.84,4.7-14.15,8.18-21.91,10.44-7.76,2.26-15.96,3.23-24.59,2.93-8.64-.3-17.67-2.04-27.12-5.22-9.33-3.48-17.45-7.82-24.35-13.02-6.9-5.2-12.65-11.12-17.26-17.77-4.61-6.64-8.09-13.94-10.44-21.91-2.35-7.96-3.65-16.46-3.89-25.47-.24-9.02.55-18.48,2.36-28.38,1.81-9.9,4.59-20.13,8.33-30.69,3.74-10.56,8.03-20.25,12.86-29.09,4.83-8.83,10.18-16.68,16.04-23.53,5.87-6.85,12.22-12.63,19.07-17.34,6.85-4.7,14.15-8.18,21.91-10.44,7.76-2.26,15.96-3.23,24.59-2.93,8.64.3,17.67,2.04,27.11,5.22ZM2611.64,1723.42c-12.23-4.29-23.49-6.41-33.78-6.34-10.29.06-19.7,2.45-28.22,7.15-8.52,4.7-16.17,11.83-22.95,21.37-6.78,9.54-12.78,21.69-18.01,36.43-5.23,14.74-8.21,27.95-8.96,39.63-.75,11.68.71,22.03,4.37,31.05,3.66,9.02,9.46,16.79,17.43,23.3s18.04,11.97,30.22,16.38c12.24,4.26,23.51,6.36,33.79,6.31,10.29-.05,19.69-2.42,28.21-7.12,8.52-4.7,16.17-11.83,22.95-21.37,6.78-9.54,12.78-21.69,18.01-36.43s8.21-27.95,8.96-39.63c.75-11.68-.71-22.03-4.37-31.05-3.66-9.02-9.46-16.79-17.42-23.33-7.95-6.53-18.03-11.98-30.23-16.35Z"/>
        <path class="e" d="M2715.18,1646.25c-7.71-1.52-15.98-3.03-24.82-4.53-8.84-1.5-17.96-2.97-27.38-4.39-9.41-1.42-18.98-2.78-28.69-4.08-9.71-1.3-19.3-2.5-28.76-3.6-9.46-1.1-18.65-2.09-27.57-2.96-8.92-.87-17.3-1.59-25.14-2.15l-4.74-.33c14.48-12.91,28.58-25.82,42.29-38.71,13.71-12.9,26.85-25.56,39.41-38.01,12.56-12.44,24.48-24.55,35.76-36.32,11.28-11.77,21.77-22.98,31.47-33.62l-36.86-4.99c-7.61-1.02-15.2-1.99-22.76-2.92-7.56-.93-14.98-1.79-22.26-2.59s-14.35-1.51-21.2-2.14c-6.86-.63-13.36-1.18-19.51-1.64l2.65-19.8c7.71,1.52,15.98,3.03,24.82,4.53,8.84,1.51,17.96,2.97,27.38,4.39,9.41,1.42,18.98,2.78,28.69,4.08,9.71,1.3,19.3,2.5,28.76,3.61,9.46,1.1,18.65,2.09,27.57,2.96,8.92.87,17.3,1.59,25.14,2.15l4.92.3c-14.63,12.85-28.49,25.4-41.57,37.63-13.08,12.23-25.68,24.36-37.8,36.38-12.12,12.02-23.92,24.04-35.4,36.06-11.48,12.02-22.93,24.23-34.35,36.63l36.86,4.99c7.61,1.02,15.2,1.99,22.76,2.92,7.56.93,14.98,1.79,22.26,2.58,7.28.79,14.35,1.51,21.2,2.14,6.86.64,13.36,1.18,19.51,1.64l-2.65,19.8Z"/>
      </g>
    </g>
  </g>
</svg>