<?xml version="1.0" encoding="UTF-8"?>
<svg id="b" data-name="Layer 2" xmlns="http://www.w3.org/2000/svg" viewBox="0 0 763.09 969.64">
  <defs>
    <style>
      .e {
        fill: #fff;
      }
    </style>
  </defs>
  <g id="c" data-name="Capa 1">
    <g>
      <g>
        <path class="e" d="M83.25,830.7h6.71v44.24h-6.71v-44.24Z"/>
        <path class="e" d="M129.38,857.73v17.21h-6.41v-17.03c0-5.43-3.3-8.12-7.26-8.12-3.54,0-8.42,2.14-8.42,8.48v16.66h-6.53v-30.82h6.53v5.49c1.4-4.33,6.1-6.1,10.25-6.1,7.2,0,11.84,5.31,11.84,14.22Z"/>
        <path class="e" d="M169.96,829.17v45.77h-6.47v-6.22c-2.01,4.03-5.61,6.84-10.98,6.84-8.24,0-15.56-6.47-15.56-15.99s7.14-16.05,15.68-16.05c5.25,0,8.85,2.5,10.86,6.35v-20.69h6.47ZM163.49,859.75v-.24c-.06-5.55-4.52-9.89-10.01-9.89s-10.07,4.39-10.07,9.95,4.52,9.95,10.07,9.95,9.95-4.03,10.01-9.76Z"/>
        <path class="e" d="M178.56,834.12c0-2.32,1.34-3.72,3.84-3.72s3.84,1.4,3.84,3.72-1.4,3.72-3.84,3.72-3.84-1.34-3.84-3.72ZM179.17,844.12h6.47v30.82h-6.47v-30.82Z"/>
        <path class="e" d="M223.35,844.12l-13.06,30.82h-6.04l-13-30.82h6.9l9.09,23.07,9.15-23.07h6.96Z"/>
        <path class="e" d="M228.29,834.12c0-2.32,1.34-3.72,3.84-3.72s3.84,1.4,3.84,3.72-1.4,3.72-3.84,3.72-3.84-1.34-3.84-3.72ZM228.9,844.12h6.47v30.82h-6.47v-30.82Z"/>
        <path class="e" d="M275.83,829.17v45.77h-6.47v-6.22c-2.01,4.03-5.61,6.84-10.98,6.84-8.24,0-15.56-6.47-15.56-15.99s7.14-16.05,15.68-16.05c5.25,0,8.85,2.5,10.86,6.35v-20.69h6.47ZM269.36,859.75v-.24c-.06-5.55-4.52-9.89-10.01-9.89s-10.07,4.39-10.07,9.95,4.52,9.95,10.07,9.95,9.95-4.03,10.01-9.76Z"/>
        <path class="e" d="M313.6,844.12v30.82h-6.47v-5.55c-1.28,4.45-5.86,6.16-10.01,6.16-7.26,0-11.9-5.31-11.9-14.22v-17.21h6.47v17.03c0,5.43,3.36,8.12,7.32,8.12,3.42,0,7.99-2.01,8.12-8.36v-16.78h6.47Z"/>
        <path class="e" d="M354.36,844.12v30.82h-6.47v-5.92c-2.07,3.84-5.68,6.53-10.98,6.53-8.18,0-15.5-6.47-15.5-15.99s7.2-16.05,15.5-16.05c5.25,0,8.91,2.69,10.98,6.59v-5.98h6.47ZM347.89,859.62v-.24c-.06-5.55-4.58-9.82-10.01-9.82s-9.95,4.33-9.95,10.01,4.52,10.01,10.01,10.01,9.95-4.27,9.95-9.95Z"/>
        <path class="e" d="M364.12,829.17h6.53v45.77h-6.53v-45.77Z"/>
        <path class="e" d="M380.29,829.17h6.53v45.77h-6.53v-45.77Z"/>
        <path class="e" d="M425.51,844.12l-15.81,37.22c-2.56,6.29-4.52,9.46-11.05,9.46h-4.76v-6.16h4.58c2.2,0,3.48-.98,4.52-3.3l2.62-6.16-12.14-31.06h6.96l8.67,22.76,9.58-22.76h6.83Z"/>
        <path class="e" d="M444.91,859.44c0-9.83,7.81-15.93,16.29-15.93,5.61,0,10.86,2.81,13.49,7.93l-5.49,2.62c-1.59-2.87-4.88-4.52-8.18-4.52-5.06,0-9.76,3.91-9.76,9.89s4.7,10.13,9.76,10.13c3.23,0,6.47-1.71,8.06-4.39l5.68,2.44c-2.69,5.19-7.93,7.93-13.61,7.93-8.79,0-16.23-6.47-16.23-16.11Z"/>
        <path class="e" d="M501.05,843.51v6.16h-3.54c-8.06,0-8.6,8.91-8.6,8.91v16.35h-6.53v-30.82h6.53v6.53s1.65-7.14,8.6-7.14h3.54Z"/>
        <path class="e" d="M537.05,844.12v30.82h-6.47v-5.92c-2.07,3.84-5.68,6.53-10.98,6.53-8.18,0-15.5-6.47-15.5-15.99s7.2-16.05,15.5-16.05c5.25,0,8.91,2.69,10.98,6.59v-5.98h6.47ZM530.59,859.62v-.24c-.06-5.55-4.58-9.82-10.01-9.82s-9.95,4.33-9.95,10.01,4.52,10.01,10.01,10.01,9.95-4.27,9.95-9.95Z"/>
        <path class="e" d="M555.85,837.41v6.71h7.44v4.94h-7.44v25.87h-6.16v-25.87h-5.74v-4.94h5.74v-6.71c0-5.92,2.99-8.85,8.85-8.85h6.59v6.16h-6.59c-1.83,0-2.69.85-2.69,2.69Z"/>
        <path class="e" d="M579.1,849.07v17.03c0,2.26,1.04,3.3,3.3,3.3h5.13v6.16h-5.13c-6.53,0-9.76-3.17-9.76-9.46v-17.03h-5.43v-4.94h5.43v-10.68h6.47v10.68h8.42v4.94h-8.42Z"/>
        <path class="e" d="M623.21,861.64h-24.96c.73,5.55,4.64,8.48,9.76,8.48,3.48,0,6.59-1.4,8.67-4.39l4.82,2.93c-2.75,4.45-8.12,6.9-13.61,6.9-8.91,0-16.05-6.41-16.05-16.11s7.14-15.93,15.87-15.93,15.56,6.22,15.56,15.87l-.06,2.26ZM617.05,857.49c0-5.31-4.33-8.42-9.21-8.42-4.58,0-8.73,2.75-9.52,8.42h18.73Z"/>
        <path class="e" d="M662.02,829.17v45.77h-6.47v-6.22c-2.01,4.03-5.61,6.84-10.98,6.84-8.24,0-15.56-6.47-15.56-15.99s7.14-16.05,15.68-16.05c5.25,0,8.85,2.5,10.86,6.35v-20.69h6.47ZM655.55,859.75v-.24c-.06-5.55-4.52-9.89-10.01-9.89s-10.07,4.39-10.07,9.95,4.52,9.95,10.07,9.95,9.95-4.03,10.01-9.76Z"/>
        <path class="e" d="M669.41,881.65c2.5-3.48,4.27-7.2,4.39-14.04h6.04c-.06,7.99-3.97,12.94-6.83,15.68l-3.6-1.65Z"/>
      </g>
      <g>
        <path class="e" d="M0,908.26h6.85v45.18H0v-45.18Z"/>
        <path class="e" d="M47.11,935.87v17.57h-6.54v-17.39c0-5.55-3.36-8.29-7.42-8.29-3.61,0-8.6,2.18-8.6,8.66v17.01h-6.67v-31.47h6.67v5.61c1.43-4.42,6.23-6.23,10.47-6.23,7.35,0,12.09,5.42,12.09,14.52Z"/>
        <path class="e" d="M65.18,927.02v17.39c0,2.31,1.06,3.36,3.36,3.36h5.23v6.29h-5.23c-6.67,0-9.97-3.24-9.97-9.66v-17.39h-5.55v-5.05h5.55v-10.91h6.61v10.91h8.6v5.05h-8.6Z"/>
        <path class="e" d="M110.23,939.86h-25.49c.75,5.67,4.74,8.66,9.97,8.66,3.55,0,6.73-1.43,8.85-4.49l4.92,2.99c-2.8,4.55-8.29,7.04-13.9,7.04-9.1,0-16.39-6.54-16.39-16.45s7.29-16.26,16.2-16.26,15.89,6.36,15.89,16.2l-.06,2.31ZM103.94,935.62c0-5.42-4.42-8.6-9.41-8.6-4.67,0-8.91,2.8-9.72,8.6h19.13Z"/>
        <path class="e" d="M136.96,921.35v6.29h-3.61c-8.23,0-8.79,9.1-8.79,9.1v16.7h-6.67v-31.47h6.67v6.67s1.68-7.29,8.79-7.29h3.61Z"/>
        <path class="e" d="M172.23,935.87v17.57h-6.54v-17.39c0-5.55-3.36-8.29-7.42-8.29-3.61,0-8.6,2.18-8.6,8.66v17.01h-6.67v-31.47h6.67v5.61c1.43-4.42,6.23-6.23,10.47-6.23,7.35,0,12.09,5.42,12.09,14.52Z"/>
        <path class="e" d="M213.55,921.97v31.47h-6.61v-6.04c-2.12,3.93-5.8,6.67-11.22,6.67-8.35,0-15.83-6.61-15.83-16.33s7.35-16.39,15.83-16.39c5.36,0,9.1,2.74,11.22,6.73v-6.11h6.61ZM206.94,937.8v-.25c-.06-5.67-4.67-10.03-10.22-10.03s-10.16,4.42-10.16,10.22,4.61,10.22,10.22,10.22,10.16-4.36,10.16-10.16Z"/>
        <path class="e" d="M232.3,927.02v17.39c0,2.31,1.06,3.36,3.36,3.36h5.23v6.29h-5.23c-6.67,0-9.97-3.24-9.97-9.66v-17.39h-5.55v-5.05h5.55v-10.91h6.61v10.91h8.6v5.05h-8.6Z"/>
        <path class="e" d="M246.57,911.75c0-2.37,1.37-3.8,3.93-3.8s3.93,1.43,3.93,3.8-1.43,3.8-3.93,3.8-3.93-1.37-3.93-3.8ZM247.2,921.97h6.61v31.47h-6.61v-31.47Z"/>
        <path class="e" d="M261.34,937.68c0-9.91,7.66-16.33,16.64-16.33s16.58,6.48,16.58,16.33-7.66,16.39-16.58,16.39-16.64-6.48-16.64-16.39ZM288.2,937.68c0-5.98-4.67-10.16-10.28-10.16s-10.28,4.17-10.28,10.16,4.67,10.28,10.28,10.28,10.28-4.3,10.28-10.28Z"/>
        <path class="e" d="M331.82,935.87v17.57h-6.54v-17.39c0-5.55-3.36-8.29-7.42-8.29-3.61,0-8.6,2.18-8.6,8.66v17.01h-6.67v-31.47h6.67v5.61c1.43-4.42,6.23-6.23,10.47-6.23,7.35,0,12.09,5.42,12.09,14.52Z"/>
        <path class="e" d="M373.13,921.97v31.47h-6.61v-6.04c-2.12,3.93-5.8,6.67-11.22,6.67-8.35,0-15.83-6.61-15.83-16.33s7.35-16.39,15.83-16.39c5.36,0,9.1,2.74,11.22,6.73v-6.11h6.61ZM366.53,937.8v-.25c-.06-5.67-4.67-10.03-10.22-10.03s-10.16,4.42-10.16,10.22,4.61,10.22,10.22,10.22,10.16-4.36,10.16-10.16Z"/>
        <path class="e" d="M383.04,906.71h6.67v46.74h-6.67v-46.74Z"/>
        <path class="e" d="M399.61,906.71h6.67v46.74h-6.67v-46.74Z"/>
        <path class="e" d="M445.79,921.97l-16.14,38.01c-2.62,6.42-4.61,9.66-11.28,9.66h-4.86v-6.29h4.67c2.24,0,3.55-1,4.61-3.36l2.68-6.29-12.4-31.72h7.1l8.85,23.24,9.78-23.24h6.98Z"/>
        <path class="e" d="M466.29,911.75c0-2.37,1.37-3.8,3.93-3.8s3.93,1.43,3.93,3.8-1.43,3.8-3.93,3.8-3.93-1.37-3.93-3.8ZM466.91,921.97h6.61v31.47h-6.61v-31.47Z"/>
        <path class="e" d="M512.15,935.87v17.57h-6.54v-17.39c0-5.55-3.36-8.29-7.42-8.29-3.61,0-8.6,2.18-8.6,8.66v17.01h-6.67v-31.47h6.67v5.61c1.43-4.42,6.23-6.23,10.47-6.23,7.35,0,12.09,5.42,12.09,14.52Z"/>
        <path class="e" d="M519.69,945.65l5.8-1.62c.81,1.99,2.93,4.8,7.48,4.8,3.68,0,5.8-1.74,5.8-3.99,0-2.06-1.68-3.49-4.92-4.3-4.05-1.12-13.21-2.49-13.21-9.97,0-5.8,5.55-9.22,11.78-9.22,5.11,0,10.59,2.43,12.09,7.1l-5.67,2.12c-1.06-2.55-3.43-3.93-6.17-3.93s-5.36,1.25-5.36,3.68c0,3.43,5.23,4.17,8.85,5.17,8.47,2.43,9.35,6.42,9.35,8.91,0,6.42-5.86,9.66-12.34,9.66s-11.9-3.43-13.46-8.41Z"/>
        <path class="e" d="M587.18,937.68c0,9.53-7.29,16.39-16.01,16.39-5.42,0-8.91-2.62-10.97-6.36v21.31h-6.67v-47.05h6.67v6.17c2.06-3.99,5.73-6.79,11.15-6.79,8.41,0,15.83,6.67,15.83,16.33ZM580.51,937.68c0-6.17-5.05-10.09-10.22-10.16-5.61,0-10.03,4.61-10.09,10.09v.25c.06,5.42,4.49,10.03,10.22,10.03s10.09-4.42,10.09-10.22Z"/>
        <path class="e" d="M625.5,939.86h-25.49c.75,5.67,4.74,8.66,9.97,8.66,3.55,0,6.73-1.43,8.85-4.49l4.92,2.99c-2.8,4.55-8.29,7.04-13.9,7.04-9.1,0-16.39-6.54-16.39-16.45s7.29-16.26,16.2-16.26,15.89,6.36,15.89,16.2l-.06,2.31ZM619.21,935.62c0-5.42-4.42-8.6-9.41-8.6-4.67,0-8.91,2.8-9.72,8.6h19.13Z"/>
        <path class="e" d="M631.29,937.61c0-10.03,7.98-16.26,16.64-16.26,5.73,0,11.09,2.87,13.77,8.1l-5.61,2.68c-1.62-2.93-4.99-4.61-8.35-4.61-5.17,0-9.97,3.99-9.97,10.09s4.8,10.34,9.97,10.34c3.3,0,6.61-1.74,8.23-4.49l5.8,2.49c-2.74,5.3-8.1,8.1-13.9,8.1-8.97,0-16.58-6.61-16.58-16.45Z"/>
        <path class="e" d="M678.4,927.02v17.39c0,2.31,1.06,3.36,3.37,3.36h5.23v6.29h-5.23c-6.67,0-9.97-3.24-9.97-9.66v-17.39h-5.55v-5.05h5.55v-10.91h6.61v10.91h8.6v5.05h-8.6Z"/>
        <path class="e" d="M723.45,939.86h-25.49c.75,5.67,4.74,8.66,9.97,8.66,3.55,0,6.73-1.43,8.85-4.49l4.92,2.99c-2.8,4.55-8.29,7.04-13.9,7.04-9.1,0-16.39-6.54-16.39-16.45s7.29-16.26,16.2-16.26,15.89,6.36,15.89,16.2l-.06,2.31ZM717.16,935.62c0-5.42-4.42-8.6-9.41-8.6-4.67,0-8.91,2.8-9.72,8.6h19.13Z"/>
        <path class="e" d="M763.09,906.71v46.74h-6.61v-6.36c-2.06,4.11-5.73,6.98-11.22,6.98-8.41,0-15.89-6.61-15.89-16.33s7.29-16.39,16.01-16.39c5.36,0,9.04,2.55,11.09,6.48v-21.12h6.61ZM756.48,937.92v-.25c-.06-5.67-4.61-10.09-10.22-10.09s-10.28,4.49-10.28,10.16,4.61,10.16,10.28,10.16,10.16-4.11,10.22-9.97Z"/>
      </g>
    </g>
    <g>
      <polygon class="e" points="401.45 342.88 370.02 342.88 368.99 606.18 401.45 605.92 401.45 342.88"/>
      <polygon class="e" points="408.72 568.37 455.8 568.37 455.8 544.43 432.94 544.43 432.94 508.59 455.74 508.59 455.74 489.9 408.72 489.9 408.72 568.37"/>
      <path class="e" d="M386.13,304.08c-9.83,9.07-22.96,14.61-37.39,14.61-1.36,0-2.71-.05-4.05-.15v17.84l83.01-.06v-17.79c-1.38.1-2.78.16-4.18.16-14.43,0-27.56-5.54-37.39-14.61Z"/>
      <g>
        <path class="e" d="M372.83,269.97c1.86,9.59,6.54,18.59,13.3,25.63,6.8-7.09,11.51-16.16,13.34-25.81-8.24,3.71-18.34,3.78-26.64.18Z"/>
        <path class="e" d="M419.33,236.63c8.23-6.88,14.25-16.36,16.91-26.75-10.23-2.62-21.27-1.97-31.13,1.8,8.2,5.7,13.47,14.81,14.22,24.95Z"/>
        <path class="e" d="M442.46,213.66c-3.84,13.04-12.39,24.6-23.69,32.14-1.52,7.57-5.57,14.3-11.57,19.22-1.08,13.13-6.79,25.79-15.89,35.31,63.4,45.88,122.57-55.78,51.61-88.29-.15.54-.3,1.08-.46,1.61Z"/>
        <path class="e" d="M379.93,299.22c-8.44-9.29-13.72-21.36-14.83-33.87-6.26-4.99-10.57-12.12-12.06-19.95-11.49-7.87-20.02-19.93-23.57-33.4-71.17,32.42-11.93,134.26,51.49,88.34-.35-.37-.69-.74-1.03-1.12Z"/>
        <path class="e" d="M366.9,211.59c-9.76-3.68-20.64-4.3-30.75-1.74,2.6,10.2,8.44,19.52,16.43,26.37.87-10.05,6.15-19.02,14.32-24.63Z"/>
        <path class="e" d="M337.15,202.44c12.72-2.59,26.26-.77,37.87,5.05,7.04-2.45,15.04-2.43,22.06.08,12.37-6.27,26.97-7.92,40.44-4.6,6.16-75.61-108.77-75.61-102.64-.03.76-.17,1.52-.35,2.28-.5Z"/>
      </g>
    </g>
    <g id="d" data-name="Texto">
      <g>
        <path class="e" d="M27.95,263.03l7.95,1.83c-1.35.95-2.49,2.03-3.42,3.25-.93,1.22-1.72,2.52-2.37,3.91-.65,1.39-1.18,2.83-1.61,4.32-.43,1.5-.81,2.99-1.16,4.48-.13.57-.26,1.14-.38,1.7-.12.57-.25,1.13-.38,1.69l-3.17,13.69-.93,4.04,17.18,3.96,4.43-19.24c.46-2.02.79-3.79.97-5.33.18-1.54.21-2.88.09-4.02-.12-1.14-.4-2.12-.84-2.91-.44-.8-1.04-1.47-1.81-2.01l12.57,2.89c-.84.15-1.62.49-2.35,1.02-.73.53-1.41,1.28-2.05,2.26-.63.98-1.22,2.2-1.76,3.66-.54,1.46-1.04,3.2-1.51,5.21l-4.43,19.24,20.97,4.83,3.94-17.17c.67-2.94,1.2-5.65,1.59-8.15.4-2.5.64-4.77.73-6.82.09-2.05,0-3.87-.24-5.46-.25-1.59-.68-2.95-1.3-4.07l7.51,3.73c-.55,2.41-1.08,4.68-1.57,6.83-.49,2.14-.97,4.21-1.43,6.2-.46,1.99-.91,3.93-1.35,5.81-.44,1.88-.88,3.77-1.31,5.66l-4.7,20.43c-2.27-.66-4.71-1.33-7.32-2.02-2.61-.69-5.31-1.38-8.1-2.06s-5.62-1.36-8.5-2.02c-2.88-.66-5.72-1.29-8.53-1.9-2.81-.6-5.53-1.16-8.18-1.68-2.65-.52-5.14-.98-7.47-1.39l10.22-44.37Z"/>
        <path class="e" d="M45.04,230.22c1.29.68,2.64,1.38,4.07,2.11,1.43.73,2.9,1.46,4.43,2.21,1.53.75,3.09,1.5,4.69,2.26,1.6.76,3.22,1.52,4.87,2.27l19.31,8.76,6.87-15.16c1.25-2.74,2.32-5.29,3.22-7.66.9-2.36,1.62-4.53,2.14-6.5.53-1.97.86-3.75.99-5.33.13-1.58.04-2.97-.26-4.15l5.87,4.81c-1.02,2.25-1.99,4.37-2.9,6.38-.91,2-1.79,3.93-2.63,5.79-.84,1.86-1.67,3.67-2.47,5.43-.8,1.76-1.61,3.52-2.41,5.29l-8.27,18.2c-1.53-.82-3.16-1.66-4.89-2.53-1.73-.87-3.52-1.75-5.38-2.65-1.86-.9-3.76-1.8-5.7-2.71-1.94-.91-3.89-1.8-5.85-2.68-1.65-.74-3.29-1.46-4.92-2.17-1.63-.71-3.23-1.39-4.8-2.05-1.57-.66-3.09-1.29-4.58-1.88-1.48-.6-2.9-1.16-4.26-1.68l2.88-6.33Z"/>
        <path class="e" d="M101.72,134.12l5.93,4.3c-1.52.41-2.92,1.02-4.2,1.81-1.28.8-2.47,1.71-3.58,2.75-1.11,1.04-2.15,2.16-3.12,3.38-.97,1.21-1.91,2.44-2.81,3.67-.35.48-.69.96-1.03,1.43-.34.47-.67.94-1.01,1.41l-8.27,11.37-2.43,3.35,12.84,9.31,11.59-15.98c1.21-1.67,2.21-3.18,2.99-4.51.78-1.33,1.35-2.54,1.72-3.62.37-1.08.53-2.05.49-2.92-.04-.87-.27-1.67-.69-2.42l9.38,6.8c-.77-.14-1.56-.09-2.39.14-.83.24-1.71.69-2.64,1.37-.93.68-1.92,1.59-2.97,2.73-1.05,1.14-2.18,2.55-3.4,4.23l-11.59,15.98,15.64,11.35,10.33-14.27c1.77-2.44,3.33-4.72,4.69-6.86,1.36-2.13,2.49-4.12,3.4-5.94.91-1.83,1.59-3.5,2.03-5.03s.63-2.9.57-4.12l4.79,5.88c-1.45,2-2.82,3.89-4.11,5.67-1.29,1.78-2.54,3.5-3.74,5.15-1.2,1.65-2.37,3.26-3.51,4.82-1.14,1.56-2.28,3.13-3.42,4.7l-12.31,16.97c-1.64-1.35-3.42-2.78-5.33-4.27-1.91-1.5-3.9-3.02-5.96-4.57-2.06-1.55-4.17-3.1-6.31-4.66-2.15-1.56-4.28-3.08-6.39-4.56-2.11-1.48-4.18-2.9-6.19-4.25-2.02-1.35-3.92-2.6-5.71-3.74l26.74-36.85Z"/>
        <path class="e" d="M134.49,129.48c-1.39-1.56-2.5-3.18-3.31-4.86-.82-1.68-1.39-3.4-1.72-5.14-.33-1.75-.42-3.52-.29-5.3.13-1.79.45-3.57.97-5.34.51-1.77,1.19-3.52,2.03-5.24.84-1.72,1.81-3.4,2.92-5.02,1.1-1.62,2.31-3.18,3.63-4.67,1.32-1.49,2.71-2.89,4.17-4.19,1.74-1.55,3.54-2.95,5.41-4.19,1.87-1.24,3.75-2.28,5.63-3.11,1.88-.84,3.73-1.45,5.54-1.84,1.81-.39,3.54-.51,5.17-.36l4.93,5.53c-1.46-.43-2.95-.69-4.47-.78-1.53-.09-3.06-.04-4.6.16-1.54.2-3.07.53-4.6,1-1.53.47-3.02,1.05-4.47,1.75-1.46.7-2.86,1.5-4.22,2.41-1.36.91-2.64,1.9-3.85,2.97-1.54,1.37-2.92,2.86-4.16,4.46-1.23,1.6-2.27,3.29-3.1,5.05-.83,1.76-1.43,3.58-1.79,5.45-.36,1.87-.43,3.76-.21,5.66.22,1.9.76,3.8,1.62,5.69.85,1.89,2.08,3.74,3.68,5.53,1.6,1.79,3.29,3.22,5.07,4.28,1.78,1.06,3.6,1.8,5.45,2.23,1.86.43,3.73.57,5.63.42,1.89-.15,3.76-.54,5.6-1.16,1.84-.62,3.63-1.46,5.36-2.51,1.74-1.05,3.37-2.25,4.9-3.62,1.29-1.15,2.49-2.39,3.6-3.73,1.12-1.34,2.12-2.74,3-4.2.89-1.46,1.64-2.98,2.27-4.55.63-1.57,1.11-3.16,1.43-4.77-2.09-2.24-4.13-4.4-6.12-6.47-1.99-2.07-3.87-3.97-5.63-5.72l5.47-4.88c1.6,2.16,3.37,4.45,5.34,6.86,1.96,2.41,4.03,4.87,6.2,7.37l-.26.32.1.11c-.02,1.63-.34,3.33-.93,5.09-.6,1.76-1.42,3.53-2.47,5.3-1.04,1.77-2.29,3.52-3.75,5.25-1.45,1.72-3.05,3.36-4.79,4.91-1.46,1.31-3.01,2.53-4.63,3.67-1.63,1.14-3.31,2.17-5.04,3.08-1.73.91-3.5,1.69-5.31,2.33-1.81.64-3.62,1.11-5.43,1.42-1.81.3-3.61.42-5.4.35-1.79-.07-3.53-.36-5.23-.88-1.7-.52-3.33-1.28-4.91-2.28-1.58-1-3.06-2.28-4.44-3.83Z"/>
        <path class="e" d="M206.77,75.9l2.56-32.98,23.98,14.17c2.12,1.19,4.25,2.37,6.39,3.54,2.15,1.17,4.27,2.31,6.38,3.41,2.11,1.1,4.17,2.16,6.19,3.17,2.02,1.01,3.95,1.96,5.8,2.84l-6.8,3.69c-1.76-1.15-3.76-2.4-5.99-3.75-2.23-1.35-4.65-2.77-7.27-4.27l-28.08,15.26c-.21,2.86-.39,5.61-.54,8.25-.15,2.64-.26,5.12-.35,7.45l-4.75,2.58c.22-1.71.43-3.5.65-5.37.21-1.87.43-3.8.64-5.77.21-1.97.41-3.99.61-6.05.2-2.05.39-4.12.57-6.19ZM235,64.01l-22.55-13.36-2.24,26.83,24.8-13.48Z"/>
        <path class="e" d="M274.78,63.99c-.45-2.08-.96-4.3-1.53-6.66-.57-2.36-1.18-4.79-1.84-7.28-.65-2.49-1.34-5.02-2.05-7.58-.72-2.56-1.44-5.07-2.18-7.54-.74-2.47-1.47-4.86-2.21-7.18-.74-2.31-1.46-4.47-2.15-6.48l-.42-1.21c4.76,2.22,9.48,4.35,14.16,6.38,4.68,2.03,9.23,3.95,13.67,5.74,4.44,1.79,8.73,3.47,12.86,5.01,4.13,1.55,8.04,2.96,11.73,4.23l-2.7-9.71c-.56-2-1.13-3.99-1.71-5.98-.58-1.98-1.16-3.92-1.74-5.82s-1.16-3.73-1.74-5.5c-.58-1.77-1.13-3.45-1.68-5.03l5.21-1.46c.45,2.08.96,4.3,1.53,6.66.57,2.36,1.18,4.79,1.84,7.28.65,2.49,1.34,5.02,2.05,7.58.72,2.56,1.44,5.07,2.18,7.54.74,2.47,1.47,4.86,2.21,7.18.74,2.31,1.46,4.47,2.15,6.48l.45,1.26c-4.76-2.27-9.37-4.37-13.81-6.32-4.44-1.95-8.81-3.78-13.09-5.51-4.29-1.73-8.54-3.38-12.76-4.95-4.22-1.57-8.48-3.11-12.79-4.63l2.7,9.71c.56,2,1.13,4,1.71,5.98.58,1.98,1.16,3.92,1.74,5.82.58,1.9,1.16,3.73,1.74,5.5.58,1.77,1.13,3.45,1.68,5.03l-5.21,1.46Z"/>
        <path class="e" d="M337.16,3.11l56.43-3.11.4,7.32c-1.18-.74-2.38-1.34-3.61-1.82-1.23-.47-2.57-.84-4.04-1.09-1.47-.25-3.11-.4-4.93-.44-1.82-.05-3.91,0-6.27.13l-6.7.37.99,17.7c.1,2.09.23,4.17.38,6.25.15,2.08.31,4.12.5,6.12.19,2,.39,3.93.6,5.8s.45,3.64.69,5.31l-7.32.4c.06-1.51.09-3.16.08-4.96,0-1.8-.03-3.69-.09-5.69-.06-2-.13-4.09-.23-6.27-.1-2.18-.22-4.41-.37-6.69l-.96-17.65-6.8.38c-1.57.09-3.01.2-4.33.34-1.32.14-2.54.31-3.66.5-1.12.2-2.15.43-3.1.71-.95.28-1.84.59-2.67.95-.83.36-1.63.77-2.38,1.23-.76.46-1.5.98-2.23,1.55l-.4-7.32Z"/>
        <path class="e" d="M456.29,1.9l7.08,1.91c-.5,1.41-1.02,2.9-1.54,4.46-.52,1.56-1.05,3.17-1.57,4.83-.53,1.66-1.05,3.36-1.56,5.11-.52,1.75-1.03,3.51-1.53,5.29l38.42,10.37c.46-1.79.91-3.58,1.34-5.34.43-1.77.85-3.5,1.24-5.19s.77-3.34,1.13-4.95c.36-1.6.7-3.14,1.01-4.6l7.08,1.91c-.8,2.23-1.62,4.63-2.45,7.2-.83,2.57-1.65,5.23-2.46,7.99-.81,2.75-1.6,5.56-2.37,8.41-.77,2.85-1.5,5.67-2.18,8.46-.69,2.79-1.32,5.5-1.89,8.14-.58,2.64-1.08,5.12-1.51,7.45l-7.08-1.91c.62-1.71,1.24-3.52,1.86-5.45s1.24-3.92,1.85-5.97c.61-2.06,1.22-4.16,1.82-6.32.6-2.15,1.19-4.32,1.76-6.5l-38.48-10.39c-.59,2.18-1.16,4.35-1.71,6.52-.55,2.17-1.07,4.3-1.56,6.39-.49,2.09-.94,4.13-1.36,6.1-.42,1.98-.8,3.86-1.12,5.65l-7.08-1.91c.8-2.23,1.61-4.63,2.42-7.21.81-2.58,1.61-5.24,2.4-8,.79-2.76,1.56-5.57,2.31-8.42.75-2.86,1.47-5.68,2.15-8.47.69-2.79,1.33-5.5,1.93-8.13.6-2.63,1.16-5.1,1.66-7.41Z"/>
        <path class="e" d="M576.25,78.93c-1.32,2.36-2.81,4.35-4.49,5.98-1.68,1.63-3.5,2.93-5.47,3.89-1.97.96-4.07,1.59-6.29,1.89-2.23.3-4.56.3-6.98,0-2.42-.31-4.92-.91-7.5-1.8-2.58-.89-5.2-2.06-7.87-3.49-2.67-1.44-5.09-2.98-7.26-4.64-2.17-1.66-4.05-3.41-5.64-5.26-1.59-1.85-2.88-3.79-3.85-5.82-.98-2.03-1.61-4.12-1.89-6.29-.28-2.17-.21-4.4.23-6.7.44-2.3,1.27-4.65,2.51-7.04,1.32-2.36,2.81-4.35,4.49-5.98,1.68-1.63,3.5-2.93,5.47-3.89,1.97-.96,4.07-1.59,6.29-1.89,2.23-.3,4.56-.3,6.98,0,2.42.31,4.92.91,7.5,1.8,2.58.89,5.2,2.06,7.87,3.5,2.67,1.44,5.09,2.98,7.26,4.64,2.17,1.66,4.04,3.41,5.64,5.26,1.59,1.85,2.88,3.79,3.85,5.82.98,2.03,1.61,4.12,1.89,6.29.28,2.17.21,4.4-.23,6.7-.44,2.3-1.27,4.65-2.51,7.04ZM570.31,75.81c1.65-3.1,2.68-6.02,3.09-8.78s.16-5.37-.75-7.85c-.91-2.47-2.5-4.82-4.77-7.02-2.28-2.21-5.28-4.31-9.01-6.32-3.73-2.01-7.14-3.35-10.24-4.03-3.1-.68-5.93-.72-8.49-.11-2.57.61-4.88,1.84-6.96,3.7-2.07,1.86-3.95,4.33-5.63,7.42-1.64,3.1-2.67,6.03-3.08,8.79-.41,2.76-.16,5.37.74,7.84.91,2.47,2.5,4.82,4.77,7.02,2.28,2.21,5.28,4.31,9.01,6.32,3.73,2.01,7.14,3.35,10.24,4.03,3.1.68,5.93.72,8.49.11s4.89-1.84,6.96-3.7c2.08-1.86,3.95-4.33,5.62-7.42Z"/>
        <path class="e" d="M607.77,74.77l42.26,37.52-4.87,5.48c-.32-1.35-.75-2.63-1.28-3.83-.54-1.2-1.24-2.41-2.1-3.62-.87-1.21-1.93-2.47-3.19-3.79-1.26-1.31-2.77-2.76-4.54-4.32l-5.02-4.46-11.76,13.27c-1.4,1.56-2.77,3.13-4.13,4.71-1.36,1.58-2.68,3.15-3.95,4.7-1.27,1.55-2.49,3.06-3.66,4.55-1.16,1.48-2.24,2.9-3.25,4.26l-5.48-4.87c1.1-1.03,2.29-2.19,3.55-3.46,1.26-1.28,2.58-2.64,3.95-4.1,1.37-1.46,2.78-3,4.25-4.61,1.47-1.62,2.95-3.29,4.45-5.01l11.75-13.21-5.09-4.52c-1.17-1.04-2.28-1.98-3.32-2.81-1.04-.83-2.02-1.57-2.95-2.22-.93-.65-1.83-1.21-2.7-1.68-.87-.47-1.73-.88-2.57-1.21-.84-.33-1.7-.6-2.56-.8-.86-.21-1.75-.36-2.67-.47l4.87-5.48Z"/>
        <path class="e" d="M694.55,169.31l-5.92,4.32c.07-1.57-.07-3.09-.44-4.55-.36-1.46-.87-2.88-1.52-4.25-.65-1.37-1.4-2.71-2.25-4.01-.86-1.3-1.73-2.57-2.63-3.8-.35-.48-.7-.95-1.05-1.42-.35-.46-.69-.93-1.03-1.39l-8.28-11.36-2.44-3.35-12.81,9.35,11.64,15.94c1.22,1.67,2.34,3.08,3.37,4.24,1.03,1.15,2,2.07,2.91,2.75.91.68,1.79,1.14,2.62,1.36.84.23,1.68.26,2.52.08l-9.36,6.83c.37-.69.57-1.46.6-2.32.03-.86-.13-1.84-.49-2.93s-.92-2.32-1.68-3.67c-.77-1.35-1.76-2.86-2.98-4.53l-11.64-15.94-15.6,11.39,10.4,14.22c1.78,2.43,3.47,4.62,5.09,6.57,1.62,1.95,3.15,3.63,4.61,5.06,1.46,1.43,2.85,2.59,4.16,3.48,1.31.89,2.56,1.49,3.75,1.81l-7.07,2.75c-1.46-1.99-2.83-3.88-4.13-5.66-1.3-1.78-2.55-3.49-3.75-5.14-1.2-1.65-2.37-3.26-3.51-4.82-1.14-1.56-2.28-3.13-3.42-4.7l-12.36-16.93c1.79-1.15,3.69-2.4,5.7-3.76,2.01-1.36,4.07-2.78,6.18-4.27,2.11-1.49,4.23-3.01,6.38-4.58,2.14-1.57,4.24-3.13,6.3-4.68,2.06-1.56,4.04-3.08,5.95-4.58,1.91-1.5,3.68-2.93,5.32-4.29l26.85,36.77Z"/>
        <path class="e" d="M712.21,200.79c-1.36.53-2.77,1.09-4.26,1.69-1.48.6-3.01,1.23-4.57,1.9-1.57.66-3.16,1.35-4.78,2.07-1.62.71-3.26,1.44-4.91,2.19l-19.27,8.85,6.95,15.12c1.25,2.74,2.48,5.22,3.67,7.45,1.19,2.23,2.36,4.19,3.51,5.88,1.14,1.69,2.27,3.11,3.38,4.24,1.11,1.14,2.21,1.98,3.31,2.52l-7.47,1.28c-1.03-2.25-2-4.37-2.92-6.37-.92-2-1.8-3.93-2.65-5.78-.85-1.86-1.68-3.66-2.48-5.42-.8-1.76-1.6-3.52-2.41-5.28l-8.33-18.17c1.62-.62,3.33-1.3,5.12-2.04,1.79-.74,3.63-1.51,5.53-2.33,1.9-.82,3.82-1.66,5.78-2.53,1.96-.87,3.91-1.76,5.86-2.67,1.64-.76,3.26-1.53,4.87-2.29,1.6-.76,3.17-1.52,4.69-2.28,1.53-.75,3-1.49,4.42-2.22,1.42-.73,2.78-1.44,4.06-2.12l2.9,6.32Z"/>
        <path class="e" d="M725,263.79c1.01-.28,2.07-.36,3.17-.23s2.2.46,3.32,1.01c1.11.55,2.21,1.3,3.3,2.26,1.09.96,2.12,2.13,3.1,3.5.98,1.38,1.89,2.96,2.72,4.74.84,1.78,1.56,3.78,2.16,5.99.1.33.19.66.27.99s.15.66.23,1c.54,2.31.91,4.55,1.09,6.73.19,2.18.22,4.27.1,6.28-.12,2.01-.38,3.92-.78,5.75-.4,1.82-.93,3.53-1.58,5.12l-7.35,1.69c1.51-2.07,2.75-4.12,3.73-6.17.98-2.05,1.7-4.11,2.16-6.18.47-2.07.68-4.17.64-6.29-.04-2.12-.32-4.28-.84-6.49-.06-.26-.12-.52-.18-.78-.06-.26-.13-.52-.22-.79-.65-2.29-1.44-4.3-2.38-6.04-.94-1.74-1.94-3.16-3-4.28-1.06-1.11-2.15-1.9-3.26-2.35-1.11-.45-2.15-.55-3.12-.29-.95.26-1.77.7-2.46,1.34-.68.64-1.25,1.42-1.69,2.33-.44.92-.77,1.95-.98,3.11-.21,1.16-.32,2.39-.34,3.69-.01,1.3.07,2.66.24,4.07.17,1.41.43,2.82.76,4.23.04.18.08.35.12.52.04.17.09.34.14.52.06.22.12.44.17.65.05.22.1.44.15.66.42,1.77.74,3.56.97,5.36.23,1.8.33,3.56.3,5.28-.03,1.71-.19,3.35-.5,4.9-.31,1.55-.79,2.96-1.45,4.24-.66,1.27-1.51,2.37-2.56,3.3-1.05.92-2.32,1.61-3.81,2.06-1.05.31-2.14.42-3.28.31-1.14-.11-2.28-.42-3.44-.95-1.15-.53-2.29-1.27-3.42-2.22-1.12-.95-2.19-2.11-3.2-3.48-1.01-1.37-1.94-2.96-2.79-4.75s-1.59-3.8-2.2-6.02c-.19-.67-.37-1.35-.53-2.05-.37-1.59-.68-3.21-.92-4.84-.24-1.64-.41-3.26-.52-4.87-.1-1.61-.15-3.2-.12-4.75s.12-3.06.28-4.5c.16-1.44.39-2.8.68-4.09.29-1.29.66-2.46,1.09-3.52l7.35-1.69c-1.5,2.06-2.7,4.25-3.61,6.56-.91,2.31-1.56,4.66-1.93,7.05-.38,2.4-.51,4.8-.4,7.21.11,2.41.43,4.76.97,7.03.06.27.13.55.19.81.06.27.14.54.22.81.65,2.29,1.45,4.29,2.41,6.02.96,1.73,1.99,3.14,3.1,4.24,1.1,1.1,2.23,1.87,3.39,2.31,1.15.44,2.25.52,3.28.23,1.06-.29,1.95-.77,2.69-1.44.74-.67,1.34-1.48,1.81-2.44.46-.96.8-2.05,1.01-3.26.21-1.21.31-2.51.3-3.89-.01-1.38-.12-2.84-.33-4.36-.21-1.53-.5-3.07-.86-4.65-.41-1.75-.75-3.56-1.01-5.41-.26-1.86-.41-3.68-.44-5.48-.03-1.79.08-3.52.33-5.18.25-1.66.68-3.17,1.29-4.53.61-1.36,1.43-2.53,2.45-3.5,1.02-.97,2.29-1.68,3.8-2.11Z"/>
      </g>
      <g>
        <path class="e" d="M68.13,425.25c.35,2.29.51,4.56.49,6.8-.02,2.24-.23,4.38-.63,6.41-.4,2.03-.99,3.92-1.76,5.67-.78,1.75-1.74,3.27-2.89,4.56l-8.18,1.24c1.3-1.01,2.47-2.14,3.51-3.38,1.03-1.25,1.94-2.58,2.71-3.99.78-1.42,1.42-2.9,1.94-4.44.52-1.55.9-3.12,1.16-4.73.26-1.61.39-3.23.4-4.88,0-1.64-.11-3.27-.35-4.86l-.05-.35c-.33-2-.85-3.94-1.58-5.82-.73-1.88-1.65-3.62-2.76-5.24-1.11-1.61-2.42-3.06-3.92-4.34-1.5-1.28-3.19-2.32-5.07-3.13-1.88-.81-3.94-1.35-6.2-1.62-2.26-.27-4.7-.21-7.33.19-2.62.4-4.97,1.06-7.05,2-2.08.93-3.89,2.07-5.44,3.4-1.55,1.33-2.85,2.83-3.89,4.5-1.05,1.67-1.86,3.44-2.44,5.32-.58,1.87-.94,3.82-1.06,5.82-.13,2.01-.05,4.02.23,6.04l.05.31c.24,1.61.61,3.19,1.11,4.75.49,1.56,1.1,3.07,1.83,4.53.72,1.46,1.57,2.85,2.52,4.17.96,1.32,2.01,2.54,3.17,3.66,1.16,1.12,2.41,2.12,3.77,3,1.36.88,2.81,1.61,4.34,2.19l-8.19,1.24c-1.48-.9-2.86-2.08-4.12-3.52-1.26-1.44-2.38-3.08-3.36-4.91-.98-1.83-1.81-3.82-2.5-5.96-.69-2.14-1.2-4.36-1.55-6.67-.31-2.01-.48-4.04-.51-6.08-.04-2.04.07-4.04.32-6.01.25-1.97.65-3.89,1.2-5.77.55-1.87,1.25-3.66,2.12-5.34.86-1.69,1.89-3.26,3.07-4.71,1.19-1.46,2.55-2.76,4.08-3.9,1.53-1.14,3.24-2.1,5.13-2.89,1.89-.78,3.95-1.35,6.2-1.69,2.26-.34,4.4-.42,6.43-.23,2.03.19,3.95.61,5.75,1.25,1.81.64,3.5,1.48,5.07,2.52,1.57,1.04,3.02,2.24,4.35,3.6,1.33,1.36,2.53,2.85,3.61,4.48,1.08,1.63,2.03,3.35,2.86,5.17.83,1.82,1.53,3.71,2.1,5.67.57,1.96,1.01,3.95,1.31,5.96Z"/>
        <path class="e" d="M69.89,467.95c-1.39.41-2.86.86-4.38,1.33-1.53.48-3.1.98-4.71,1.52-1.62.53-3.26,1.09-4.94,1.66-1.67.58-3.36,1.17-5.07,1.77l-5.89,2.15c-1.62.54-3.04,1.26-4.24,2.15-1.2.89-2.21,1.9-3.02,3.03-.81,1.13-1.44,2.35-1.88,3.68-.44,1.32-.71,2.69-.81,4.09-.1,1.41-.05,2.83.17,4.28.21,1.44.56,2.85,1.04,4.22.5,1.39,1.13,2.71,1.88,3.97.75,1.26,1.62,2.4,2.61,3.44.98,1.03,2.07,1.92,3.26,2.67,1.19.75,2.46,1.31,3.81,1.67,1.35.36,2.78.5,4.28.42,1.5-.08,3.06-.44,4.68-1.07l5.9-2.12c1.7-.63,3.37-1.25,5.03-1.88s3.28-1.25,4.86-1.88c1.58-.62,3.11-1.24,4.59-1.85,1.48-.61,2.89-1.2,4.22-1.78l2.37,6.54c-1.39.41-2.85.86-4.38,1.33-1.53.48-3.1.98-4.71,1.52-1.62.53-3.26,1.09-4.94,1.67-1.68.58-3.37,1.17-5.08,1.78l-6.03,2.16c-1.94.7-3.81,1.06-5.63,1.07-1.82.01-3.56-.25-5.21-.79-1.65-.54-3.21-1.33-4.68-2.35-1.47-1.02-2.81-2.23-4.04-3.61-1.23-1.38-2.32-2.91-3.28-4.58s-1.77-3.41-2.43-5.22c-.65-1.8-1.14-3.65-1.45-5.55-.32-1.9-.45-3.76-.38-5.6.06-1.84.33-3.62.8-5.34.47-1.72,1.17-3.31,2.1-4.78.93-1.46,2.09-2.77,3.5-3.92,1.4-1.15,3.07-2.07,5-2.77l6.01-2.19c1.7-.63,3.38-1.25,5.04-1.88,1.66-.63,3.28-1.26,4.87-1.88,1.58-.62,3.11-1.24,4.59-1.85,1.48-.61,2.89-1.2,4.22-1.78l2.37,6.54Z"/>
        <path class="e" d="M69.75,532.77c1.85-1.08,3.69-2.18,5.53-3.29,1.83-1.11,3.63-2.21,5.38-3.31,1.75-1.09,3.44-2.17,5.06-3.22,1.62-1.05,3.16-2.07,4.59-3.04l3.19,5.38,12.6,21.3c1,1.7,1.71,3.33,2.11,4.92.4,1.58.57,3.07.49,4.48-.07,1.4-.36,2.7-.86,3.88-.5,1.18-1.16,2.23-1.97,3.12-.82.9-1.75,1.63-2.82,2.21-1.06.57-2.2.95-3.4,1.13-1.2.18-2.45.14-3.73-.11-1.28-.25-2.55-.76-3.81-1.51.28,1.64.28,3.18,0,4.62-.28,1.44-.77,2.75-1.47,3.92-.7,1.17-1.57,2.18-2.6,3.02-1.04.84-2.18,1.48-3.43,1.91-1.25.43-2.57.64-3.95.62-1.38-.02-2.76-.31-4.13-.87-1.37-.57-2.71-1.42-4-2.57-1.3-1.15-2.49-2.63-3.57-4.46l-13.76-23.2h.01s-3.06-5.17-3.06-5.17c1.29-.67,2.64-1.37,4.06-2.13,1.41-.75,2.86-1.54,4.35-2.37,1.49-.83,3.01-1.68,4.55-2.57,1.55-.89,3.1-1.78,4.65-2.69ZM73.6,537.22l-15.55,9.23,13.48,22.76c.6,1.01,1.28,1.83,2.04,2.46.77.63,1.58,1.11,2.44,1.42.86.31,1.74.47,2.64.49.9.01,1.79-.1,2.65-.34.87-.24,1.7-.59,2.49-1.06.79-.47,1.5-1.03,2.13-1.67.63-.64,1.15-1.36,1.58-2.15.42-.79.7-1.64.84-2.55.14-.91.11-1.85-.08-2.83-.19-.98-.59-1.98-1.19-3l-13.47-22.77ZM76.25,535.65l12.49,21.08c.75,1.26,1.61,2.24,2.59,2.93.98.7,2,1.16,3.06,1.38,1.06.22,2.13.23,3.19.03,1.07-.2,2.06-.57,2.98-1.11.92-.54,1.72-1.23,2.41-2.06.69-.83,1.19-1.77,1.51-2.8.32-1.04.4-2.16.26-3.36-.14-1.2-.59-2.44-1.35-3.71l-12.46-21.06-14.69,8.68Z"/>
        <path class="e" d="M111.49,597.28l32.65-5.35-8.07,26.66c-.66,2.34-1.3,4.69-1.92,7.05-.63,2.36-1.22,4.7-1.79,7.01-.57,2.31-1.11,4.57-1.61,6.77-.5,2.2-.96,4.3-1.38,6.31l-5.2-5.72c.7-1.98,1.44-4.22,2.22-6.7.78-2.49,1.58-5.18,2.42-8.07l-21.5-23.65c-2.83.48-5.54.96-8.14,1.44-2.6.48-5.04.96-7.32,1.43l-3.64-4c1.71-.19,3.5-.41,5.37-.65,1.87-.24,3.79-.49,5.76-.76,1.97-.27,3.97-.55,6.02-.85,2.04-.3,4.09-.6,6.15-.92ZM129.75,621.88l7.61-25.08-26.6,4.2,18.99,20.89Z"/>
        <path class="e" d="M146.68,660.35c1.34-1.65,2.76-3.43,4.25-5.35,1.49-1.92,3-3.91,4.54-5.98,1.54-2.07,3.08-4.18,4.63-6.34,1.55-2.16,3.06-4.29,4.53-6.41,1.47-2.12,2.88-4.19,4.22-6.21,1.35-2.02,2.58-3.93,3.72-5.73l.68-1.09c1.24,5.11,2.53,10.12,3.86,15.04,1.33,4.92,2.69,9.67,4.06,14.26,1.37,4.59,2.75,8.98,4.12,13.17,1.37,4.2,2.72,8.13,4.02,11.8l5.89-8.17c1.21-1.69,2.41-3.38,3.6-5.07,1.19-1.69,2.34-3.35,3.46-4.99,1.12-1.64,2.19-3.24,3.21-4.79,1.03-1.56,1.99-3.04,2.88-4.45l4.39,3.16c-1.34,1.65-2.76,3.43-4.25,5.35-1.49,1.92-3,3.91-4.54,5.98-1.54,2.07-3.08,4.18-4.63,6.34-1.55,2.16-3.06,4.29-4.53,6.41-1.47,2.12-2.88,4.19-4.22,6.21-1.35,2.02-2.58,3.93-3.72,5.73l-.7,1.14c-1.21-5.13-2.44-10.04-3.69-14.73s-2.55-9.24-3.88-13.67c-1.33-4.43-2.7-8.78-4.11-13.05-1.41-4.27-2.87-8.57-4.38-12.88l-5.89,8.17c-1.21,1.69-2.41,3.38-3.6,5.07-1.19,1.69-2.34,3.35-3.46,4.99-1.12,1.64-2.19,3.24-3.21,4.79-1.03,1.56-1.99,3.04-2.88,4.45l-4.39-3.16Z"/>
        <path class="e" d="M308.2,689.27l.33.08c2.25.57,4.4,1.29,6.48,2.15,2.07.86,3.98,1.84,5.72,2.93,1.74,1.09,3.28,2.28,4.61,3.57,1.34,1.29,2.4,2.65,3.18,4.09l-1.84,7.18c-.46-1.45-1.08-2.83-1.86-4.15-.78-1.32-1.68-2.56-2.7-3.73-1.02-1.17-2.15-2.25-3.4-3.26-1.25-1.01-2.56-1.92-3.95-2.74-1.39-.82-2.84-1.54-4.35-2.16-1.51-.62-3.06-1.13-4.63-1.54-2.09-.53-4.16-.86-6.22-.98-2.06-.12-4.05-.02-5.98.31-1.93.32-3.76.87-5.49,1.65-1.73.78-3.31,1.79-4.73,3.04-1.42,1.25-2.66,2.75-3.71,4.48-1.05,1.74-1.87,3.73-2.45,5.99-.58,2.26-.82,4.4-.72,6.44.09,2.04.47,3.94,1.12,5.72s1.56,3.42,2.71,4.92c1.15,1.5,2.5,2.85,4.04,4.05,1.54,1.2,3.24,2.24,5.11,3.12,1.87.88,3.85,1.59,5.94,2.12,1.56.4,3.16.69,4.78.87,1.63.18,3.24.25,4.86.19,1.61-.05,3.2-.22,4.77-.51,1.57-.29,3.08-.7,4.53-1.23,1.46-.53,2.84-1.19,4.15-1.97,1.31-.78,2.52-1.69,3.61-2.73l-1.84,7.18c-1.38.89-2.96,1.58-4.75,2.06-1.79.49-3.71.79-5.77.91-2.06.12-4.2.06-6.43-.18-2.23-.24-4.47-.65-6.73-1.23l-.74-.19c-1.86-.51-3.7-1.13-5.52-1.86-1.82-.73-3.57-1.56-5.26-2.49-1.68-.93-3.28-1.97-4.77-3.11-1.5-1.14-2.86-2.37-4.09-3.7-1.23-1.33-2.29-2.74-3.2-4.25-.91-1.51-1.61-3.1-2.1-4.78-.49-1.68-.76-3.44-.8-5.28-.04-1.84.2-3.75.7-5.73.51-2,1.24-3.81,2.17-5.42.93-1.61,2.03-3.04,3.28-4.28,1.26-1.24,2.65-2.3,4.2-3.2,1.54-.89,3.18-1.62,4.92-2.19,1.74-.57,3.55-.99,5.43-1.26,1.88-.27,3.8-.41,5.75-.41,1.95,0,3.91.13,5.87.38,1.96.25,3.89.61,5.78,1.08Z"/>
        <path class="e" d="M401.93,723.21c-.15,2.69-.61,5.14-1.4,7.35-.79,2.2-1.86,4.17-3.2,5.89-1.34,1.73-2.95,3.22-4.82,4.47-1.87,1.25-3.96,2.27-6.27,3.06-2.31.79-4.82,1.35-7.53,1.68-2.71.33-5.58.44-8.61.32-3.03-.12-5.88-.44-8.56-.98-2.67-.54-5.13-1.28-7.38-2.25-2.25-.96-4.25-2.14-6.02-3.53-1.77-1.39-3.26-3-4.47-4.82-1.21-1.82-2.12-3.86-2.74-6.12-.62-2.26-.9-4.73-.84-7.43.15-2.69.61-5.14,1.4-7.35.79-2.2,1.85-4.17,3.2-5.89,1.34-1.73,2.95-3.22,4.82-4.47,1.87-1.25,3.96-2.27,6.27-3.06,2.31-.79,4.82-1.35,7.53-1.68,2.71-.33,5.58-.44,8.61-.32,3.03.12,5.88.44,8.56.98,2.67.54,5.13,1.28,7.38,2.25,2.25.96,4.25,2.14,6.02,3.53,1.77,1.39,3.26,3,4.47,4.82,1.21,1.82,2.12,3.86,2.74,6.12.62,2.26.9,4.73.84,7.43ZM395.23,723.02c.12-3.51-.24-6.59-1.09-9.25-.85-2.66-2.22-4.89-4.13-6.72-1.9-1.82-4.36-3.23-7.38-4.21-3.01-.98-6.64-1.55-10.87-1.71-4.23-.16-7.89.13-10.97.88-3.08.75-5.64,1.96-7.68,3.64-2.04,1.67-3.58,3.8-4.62,6.39-1.04,2.58-1.64,5.63-1.79,9.14-.11,3.51.25,6.59,1.1,9.25.84,2.66,2.22,4.89,4.12,6.72,1.9,1.82,4.36,3.23,7.38,4.21,3.01.98,6.64,1.55,10.87,1.71,4.23.16,7.89-.13,10.97-.88,3.08-.75,5.64-1.96,7.67-3.64,2.04-1.67,3.58-3.8,4.62-6.39,1.05-2.58,1.64-5.63,1.79-9.14Z"/>
        <path class="e" d="M422.93,698.44c.16,1.45.33,2.96.53,4.55.2,1.59.41,3.22.65,4.91.23,1.69.49,3.4.75,5.15.27,1.75.55,3.52.84,5.31l3.54,20.91,16.4-2.78c2.97-.5,5.69-1.04,8.15-1.61,2.46-.57,4.66-1.2,6.59-1.86,1.93-.67,3.59-1.39,4.97-2.17,1.38-.78,2.48-1.62,3.3-2.54l-.7,7.55c-2.44.41-4.74.8-6.91,1.17-2.17.37-4.26.72-6.27,1.06-2.01.34-3.97.67-5.88.98-1.91.32-3.82.64-5.73.96l-19.71,3.32c-.18-1.73-.4-3.55-.64-5.47-.25-1.92-.52-3.9-.81-5.94-.3-2.04-.61-4.12-.95-6.24-.34-2.12-.69-4.23-1.05-6.35-.31-1.78-.63-3.55-.95-5.29-.32-1.75-.65-3.46-.98-5.12-.33-1.67-.66-3.29-1-4.85-.34-1.56-.67-3.05-.99-4.47l6.86-1.16Z"/>
        <path class="e" d="M482.12,685.7c.42,1.39.87,2.85,1.36,4.38.48,1.52,1,3.09,1.54,4.71.54,1.61,1.1,3.26,1.69,4.93.58,1.67,1.18,3.36,1.8,5.06l7.32,19.9,15.61-5.75c2.83-1.04,5.4-2.07,7.71-3.08,2.32-1.02,4.36-2.03,6.14-3.04,1.78-1.01,3.27-2.02,4.49-3.04,1.22-1.02,2.14-2.05,2.77-3.1l.69,7.55c-2.32.85-4.51,1.66-6.57,2.41-2.06.76-4.06,1.49-5.97,2.19-1.92.7-3.78,1.39-5.6,2.05-1.82.66-3.64,1.33-5.46,1.99l-18.76,6.89c-.5-1.66-1.04-3.42-1.64-5.26-.6-1.84-1.23-3.74-1.89-5.69-.67-1.95-1.36-3.94-2.08-5.96-.72-2.02-1.45-4.04-2.2-6.05-.63-1.69-1.27-3.37-1.91-5.03-.64-1.66-1.27-3.28-1.9-4.86-.63-1.58-1.26-3.11-1.87-4.58-.62-1.48-1.22-2.88-1.8-4.21l6.53-2.4Z"/>
        <path class="e" d="M571.1,642.63l3.75,6.3c-1.56-.22-3.08-.22-4.57,0-1.49.23-2.95.6-4.38,1.11-1.43.52-2.83,1.14-4.2,1.87-1.37.73-2.72,1.49-4.03,2.27-.51.3-1.02.61-1.51.91-.5.3-.99.6-1.48.89l-12.08,7.18-3.56,2.12,8.12,13.63,16.96-10.1c1.78-1.06,3.29-2.05,4.53-2.96,1.24-.92,2.25-1.8,3.01-2.64.76-.85,1.3-1.67,1.6-2.49.3-.81.41-1.64.32-2.5l5.93,9.95c-.65-.43-1.4-.7-2.25-.81-.85-.11-1.84-.04-2.96.21-1.12.25-2.39.7-3.81,1.33-1.42.64-3.02,1.48-4.79,2.54l-16.96,10.1,9.89,16.6,15.12-9.03c2.59-1.54,4.93-3.02,7.01-4.45,2.09-1.43,3.91-2.8,5.47-4.12,1.56-1.32,2.84-2.59,3.85-3.82,1.01-1.23,1.73-2.41,2.15-3.56l2.07,7.29c-2.12,1.26-4.13,2.46-6.02,3.58-1.89,1.13-3.71,2.21-5.47,3.26-1.75,1.04-3.46,2.06-5.13,3.04s-3.33,1.97-5,2.97l-18.01,10.73c-.97-1.89-2.05-3.9-3.21-6.03-1.17-2.13-2.39-4.31-3.67-6.55-1.28-2.24-2.6-4.5-3.96-6.78-1.36-2.28-2.72-4.52-4.07-6.71-1.36-2.19-2.69-4.31-4.01-6.35-1.32-2.04-2.57-3.94-3.77-5.7l39.12-23.3Z"/>
        <path class="e" d="M605.59,611.37l.25-.23c1.72-1.55,3.52-2.95,5.39-4.19,1.87-1.25,3.74-2.29,5.61-3.13,1.87-.84,3.72-1.46,5.53-1.85,1.81-.4,3.54-.52,5.17-.37l4.95,5.51c-1.46-.42-2.95-.68-4.48-.76-1.53-.08-3.06-.02-4.6.18-1.54.2-3.07.54-4.6,1.02s-3.02,1.07-4.47,1.77c-1.45.7-2.86,1.51-4.21,2.42-1.36.91-2.64,1.91-3.85,3-1.6,1.44-3.03,2.98-4.27,4.63-1.24,1.65-2.27,3.36-3.07,5.15-.8,1.78-1.36,3.61-1.67,5.48-.32,1.87-.35,3.74-.09,5.62.25,1.88.81,3.74,1.67,5.58.86,1.84,2.07,3.63,3.62,5.36,1.56,1.73,3.21,3.13,4.95,4.18,1.75,1.05,3.54,1.8,5.38,2.24,1.84.44,3.71.6,5.6.48,1.89-.12,3.76-.49,5.61-1.11,1.85-.61,3.66-1.45,5.43-2.52s3.46-2.32,5.06-3.76c1.2-1.08,2.33-2.24,3.38-3.49,1.05-1.25,2.01-2.56,2.86-3.93.85-1.37,1.59-2.79,2.22-4.25s1.13-2.95,1.49-4.45c.36-1.51.59-3.02.66-4.55.08-1.53-.01-3.03-.27-4.52l4.95,5.51c-.03,1.64-.33,3.34-.92,5.1-.59,1.76-1.4,3.53-2.44,5.31-1.04,1.78-2.28,3.53-3.72,5.25-1.44,1.72-3.02,3.36-4.76,4.92l-.57.51c-1.46,1.26-2.99,2.45-4.61,3.56-1.62,1.11-3.28,2.11-4.99,2.99-1.71.88-3.46,1.63-5.23,2.24-1.78.61-3.56,1.06-5.34,1.35-1.78.28-3.55.38-5.31.3-1.76-.08-3.47-.39-5.14-.91-1.67-.52-3.28-1.28-4.83-2.27-1.55-.99-3.01-2.24-4.38-3.77-1.38-1.54-2.49-3.14-3.31-4.81-.82-1.67-1.4-3.37-1.73-5.1-.33-1.73-.44-3.49-.33-5.26.11-1.78.42-3.55.91-5.31.49-1.76,1.15-3.5,1.97-5.22.82-1.72,1.77-3.39,2.85-5.01,1.08-1.62,2.27-3.18,3.57-4.67,1.3-1.49,2.67-2.89,4.11-4.2Z"/>
        <path class="e" d="M631.55,589.47l33.48-45.53,5.9,4.34c-1.32.44-2.55.98-3.7,1.63-1.15.64-2.28,1.45-3.41,2.43-1.13.97-2.29,2.15-3.48,3.52-1.19,1.38-2.49,3.01-3.89,4.92l-3.98,5.41,14.29,10.49c1.68,1.25,3.37,2.48,5.07,3.68,1.7,1.21,3.38,2.38,5.04,3.5,1.66,1.13,3.28,2.2,4.86,3.22,1.58,1.02,3.09,1.97,4.54,2.84l-4.34,5.9c-1.13-1.01-2.39-2.08-3.77-3.22-1.39-1.14-2.87-2.32-4.45-3.55-1.58-1.23-3.24-2.5-4.99-3.81-1.75-1.31-3.55-2.63-5.4-3.97l-14.23-10.49-4.03,5.48c-.93,1.27-1.76,2.45-2.5,3.56-.73,1.11-1.38,2.16-1.94,3.14-.56.99-1.03,1.94-1.43,2.84-.39.91-.71,1.8-.96,2.67-.25.87-.44,1.74-.57,2.62-.13.88-.2,1.78-.22,2.7l-5.9-4.34Z"/>
        <path class="e" d="M710.49,551.49c-1.78-1.17-3.72-2.38-5.8-3.62-2.09-1.24-4.26-2.49-6.51-3.74-2.25-1.25-4.56-2.5-6.91-3.73-2.35-1.23-4.68-2.43-6.98-3.59-2.3-1.16-4.55-2.26-6.74-3.32-2.19-1.05-4.25-2.03-6.18-2.92l3.45-6.46c1.78,1.17,3.71,2.39,5.79,3.65,2.08,1.26,4.24,2.52,6.48,3.8,2.24,1.27,4.54,2.53,6.88,3.79,2.34,1.25,4.66,2.46,6.97,3.61,2.3,1.16,4.56,2.25,6.76,3.28,2.2,1.03,4.28,1.96,6.25,2.79l-3.45,6.46Z"/>
        <path class="e" d="M723.98,460.39c2.53.94,4.73,2.12,6.59,3.53,1.87,1.41,3.43,3.01,4.67,4.81,1.25,1.8,2.19,3.78,2.83,5.93.64,2.16.99,4.46,1.05,6.9.07,2.44-.15,5-.64,7.69-.49,2.68-1.24,5.45-2.26,8.31-1.01,2.86-2.17,5.48-3.48,7.88-1.31,2.39-2.76,4.52-4.35,6.37-1.59,1.86-3.31,3.42-5.16,4.69-1.85,1.27-3.83,2.22-5.93,2.83-2.1.61-4.32.88-6.66.79-2.34-.08-4.79-.55-7.34-1.41-2.53-.94-4.73-2.12-6.59-3.53-1.87-1.41-3.43-3.01-4.67-4.81-1.25-1.8-2.19-3.78-2.83-5.93-.64-2.16-.99-4.46-1.05-6.9-.07-2.44.15-5,.64-7.69.49-2.68,1.24-5.45,2.26-8.31,1.01-2.86,2.17-5.48,3.48-7.88,1.31-2.39,2.76-4.52,4.35-6.37,1.59-1.86,3.31-3.42,5.16-4.69,1.85-1.27,3.83-2.22,5.93-2.83,2.1-.61,4.32-.88,6.66-.79,2.34.08,4.79.55,7.34,1.41ZM721.8,466.74c-3.31-1.16-6.36-1.73-9.15-1.72-2.79.02-5.34.66-7.64,1.94-2.31,1.27-4.38,3.2-6.21,5.79-1.84,2.58-3.46,5.87-4.88,9.87-1.42,3.99-2.22,7.57-2.43,10.73-.2,3.16.19,5.97,1.18,8.41.99,2.44,2.56,4.55,4.72,6.31s4.88,3.24,8.19,4.44c3.32,1.15,6.37,1.72,9.15,1.71,2.79-.01,5.33-.66,7.64-1.93,2.31-1.27,4.38-3.2,6.21-5.79,1.84-2.58,3.46-5.87,4.88-9.87s2.22-7.57,2.43-10.73c.2-3.16-.19-5.97-1.18-8.41-.99-2.44-2.56-4.55-4.72-6.32-2.15-1.77-4.88-3.25-8.19-4.43Z"/>
        <path class="e" d="M749.85,445.84c-2.09-.41-4.33-.82-6.72-1.23-2.39-.41-4.87-.8-7.42-1.19-2.55-.38-5.14-.75-7.77-1.11-2.63-.35-5.23-.68-7.79-.98-2.56-.3-5.05-.57-7.47-.8-2.42-.24-4.69-.43-6.81-.58l-1.28-.09c3.92-3.5,7.74-6.99,11.45-10.48,3.71-3.49,7.27-6.92,10.67-10.29,3.4-3.37,6.63-6.65,9.69-9.84,3.06-3.19,5.9-6.22,8.52-9.11l-9.98-1.35c-2.06-.28-4.12-.54-6.16-.79-2.05-.25-4.06-.49-6.03-.7s-3.89-.41-5.74-.58c-1.86-.17-3.62-.32-5.28-.44l.72-5.36c2.09.41,4.33.82,6.72,1.23,2.39.41,4.87.8,7.41,1.19,2.55.38,5.14.75,7.77,1.11,2.63.35,5.23.68,7.79.98,2.56.3,5.05.57,7.47.8,2.42.24,4.69.43,6.81.58l1.33.08c-3.96,3.48-7.72,6.88-11.26,10.19-3.54,3.31-6.95,6.6-10.24,9.85-3.28,3.26-6.48,6.51-9.59,9.77-3.11,3.26-6.21,6.56-9.3,9.92l9.98,1.35c2.06.28,4.12.54,6.16.79,2.05.25,4.06.49,6.03.7,1.97.21,3.89.41,5.74.58,1.86.17,3.62.32,5.28.44l-.72,5.36Z"/>
      </g>
    </g>
  </g>
</svg>